<svg xmlns="http://www.w3.org/2000/svg" viewBox="0 0 61.305 57.895"><defs><style>.a{fill:#ebb409;stroke:#df7c10;}.a,.e,.h,.i{stroke-linecap:round;stroke-linejoin:round;stroke-miterlimit:10;stroke-width:0.155px;}.b{fill:#f8b809;}.c,.i,.m{opacity:0.5;}.d{fill:#e79e08;}.e{fill:#fdd70a;stroke:#ee9b13;}.f,.j,.n{opacity:0.7;}.g{fill:#f9c809;}.h,.i,.j,.k{fill:#c34916;}.h,.i{stroke:#81360f;}.l{opacity:0.45;}</style></defs><g transform="translate(-383.546 -1364.235)"><g transform="translate(164 248.783)"><path class="a" d="M250.1,1132.6c1.6-13.1-6.3-17.8-6.6-16.9-3.3,9.7,3.1,17.6,3.1,17.6Z"/><path class="b" d="M247.6,1131.7c0,.1-.2,0-.2,0-.5-1.4-.9-2.8-1.3-4.3,0-.1.2,0,.3.1Z"/><path class="b" d="M248.4,1131.4c0,.1-.1,0-.1-.1a25.7,25.7,0,0,0-1.1-8.7c0-.1.2,0,.2.1A19.863,19.863,0,0,1,248.4,1131.4Z"/><g class="c"><path class="d" d="M250.1,1132.6l-3.5.7a20.687,20.687,0,0,1-3.7-8.2h0s2.3,6.1,3.5,6.7-1-5.5-1.1-7.4c1.2,3.9,2.9,5.6,2.3,1.5-1-7.1.9-.9,1,3.9.1,3.2,3.3-7.3-4.4-13a12.876,12.876,0,0,0-1.5,7.5l-.1-.1a18.2,18.2,0,0,1,.7-8.5C243.8,1114.8,251.7,1119.5,250.1,1132.6Z"/></g><path class="d" d="M244.4,1117.7a18.363,18.363,0,0,0-.9,5.7,14.175,14.175,0,0,0,1.5,5.6c0,.1-.1,0-.1,0a12.651,12.651,0,0,1-.8-11.5C244.2,1117.4,244.4,1117.6,244.4,1117.7Z"/><path class="a" d="M243.8,1134.5c-2.6-12.9-11.6-15.3-11.6-14.3-.1,10.2,8.5,15.9,8.5,15.9Z"/><path class="b" d="M241.1,1134.3c.1.1-.1.1-.2,0a40.125,40.125,0,0,1-2.5-3.7c-.1-.1.2-.1.3,0C239.4,1131.8,240.3,1133,241.1,1134.3Z"/><path class="b" d="M241.7,1133.8c0,.1-.1,0-.2,0a27.94,27.94,0,0,0-3.8-8c-.1-.1.2-.1.2,0A19.085,19.085,0,0,1,241.7,1133.8Z"/><g class="c"><path class="d" d="M243.8,1134.5l-3.1,1.6a21.849,21.849,0,0,1-6.1-6.8h0s4.1,5.2,5.5,5.4c1.3.3-2.7-5-3.4-6.8,2.4,3.4,4.5,4.6,2.7.8-3.2-6.5.6-1.1,2.2,3.5,1.1,3.1.9-7.8-8.3-11.2a12.734,12.734,0,0,0,1,7.6.1.1,0,0,1-.1-.1,17.851,17.851,0,0,1-2-8.3C232.1,1119.2,241.2,1121.6,243.8,1134.5Z"/></g><path class="d" d="M233.6,1121.8a21.232,21.232,0,0,0,.9,5.7,14.336,14.336,0,0,0,3.2,4.9c.1.1-.1.1-.1,0a13.064,13.064,0,0,1-4.4-10.7C233.3,1121.6,233.6,1121.7,233.6,1121.8Z"/><path class="a" d="M240.6,1137.1c-8.7-10.3-17.9-8.5-17.4-7.6,5,9.1,15.5,10.4,15.5,10.4Z"/><path class="b" d="M238.2,1138.1c.1,0-.1.1-.2.1a32.336,32.336,0,0,1-4.1-2.2c-.1-.1.2-.2.2-.1C235.5,1136.7,236.8,1137.4,238.2,1138.1Z"/><path class="b" d="M238.5,1137.5a.139.139,0,0,1-.2,0,26.615,26.615,0,0,0-7.4-5.4c-.1-.1.1-.2.2-.1A20.51,20.51,0,0,1,238.5,1137.5Z"/><g class="c"><path class="d" d="M240.6,1137.1l-1.9,2.8a22.355,22.355,0,0,1-8.8-3.4h0s6.2,2.8,7.6,2.4c1.3-.3-4.8-3.3-6.4-4.6,3.8,2,6.3,2.1,2.8-.5-6.1-4.4,0-1.2,3.7,2.1,2.5,2.3-3.1-7.3-12.9-6.3a13.423,13.423,0,0,0,4.6,6.3h-.1a18.75,18.75,0,0,1-5.9-6.5C222.8,1128.7,231.9,1126.8,240.6,1137.1Z"/></g><path class="d" d="M225.3,1130.3a23.177,23.177,0,0,0,3.7,4.7,15.243,15.243,0,0,0,5.3,2.9c.1,0,0,.1-.1.1a14.38,14.38,0,0,1-9.2-7.6C225,1130.3,225.3,1130.2,225.3,1130.3Z"/><path class="a" d="M239,1140.7c-12.6-5.8-20.1-.4-19.2.1,8.7,6.2,18.8,3.1,18.8,3.1Z"/><path class="b" d="M237.3,1142.6c.1,0,0,.1-.1.1a35.915,35.915,0,0,1-4.7-.3c-.1,0,.1-.2.2-.2C234.2,1142.4,235.7,1142.5,237.3,1142.6Z"/><path class="b" d="M237.3,1141.8c.1,0-.1.1-.1.1a31.424,31.424,0,0,0-9.1-1.9c-.1,0,.1-.2.1-.2A26.106,26.106,0,0,1,237.3,1141.8Z"/><g class="c"><path class="d" d="M239,1140.7l-.5,3.3a23.484,23.484,0,0,1-9.5.5h0s6.9,0,7.9-.9c1-.8-5.9-1-7.9-1.5,4.4.3,6.7-.7,2.3-1.5-7.5-1.5-.6-1.1,4.3.4,3.3,1-6.2-5.4-14.6-.5a14.405,14.405,0,0,0,7.1,3.8H228a19.783,19.783,0,0,1-8.3-3.5C219,1140.2,226.4,1134.9,239,1140.7Z"/></g><path class="d" d="M222.1,1140.7a21.644,21.644,0,0,0,5.5,2.7,16.164,16.164,0,0,0,6.2.5c.1,0,0,.1,0,.1a15.79,15.79,0,0,1-11.9-3.1C221.7,1140.8,222,1140.7,222.1,1140.7Z"/><path class="a" d="M238.7,1146.1c-14-1.4-19,6-18,6.3a23.181,23.181,0,0,0,18.8-3.1Z"/><path class="b" d="M237.8,1148.4c.1,0,0,.1,0,.2a34.463,34.463,0,0,1-4.6,1.2c-.1,0,0-.2.1-.2Z"/><path class="b" d="M237.5,1147.7c.1,0,0,.1-.1.1a36.415,36.415,0,0,0-9.3,1.1c-.1,0,0-.2.1-.2A26.365,26.365,0,0,1,237.5,1147.7Z"/><g class="c"><path class="d" d="M238.7,1146.1l.8,3.2a24.2,24.2,0,0,1-8.7,3.5h0s6.5-2.2,7.1-3.4c.7-1.1-5.9,1-8,1.1,4.2-1.2,6-2.8,1.6-2.2-7.6,1-1-.8,4.2-1,3.5-.1-7.8-3-13.8,4.2a15.615,15.615,0,0,0,8.1,1.3l-.1.1a22.209,22.209,0,0,1-9.1-.6C219.7,1152.1,224.7,1144.7,238.7,1146.1Z"/></g><path class="d" d="M222.8,1151.5a25.7,25.7,0,0,0,6.2.8,15.615,15.615,0,0,0,6-1.5c.1,0,0,.1,0,.1a15.924,15.924,0,0,1-12.3.9C222.5,1151.8,222.7,1151.5,222.8,1151.5Z"/><path class="a" d="M240.2,1151.2c-13.7,3.1-15.7,11.7-14.7,11.6a22.5,22.5,0,0,0,16.6-8.8Z"/><path class="b" d="M240.2,1153.7c.1-.1.1.1,0,.2a37.73,37.73,0,0,1-3.9,2.6c-.1.1-.1-.2,0-.2C237.7,1155.4,238.9,1154.6,240.2,1153.7Z"/><path class="b" d="M239.7,1153.2c.1,0,0,.1,0,.2a30.351,30.351,0,0,0-8.3,4c-.1.1-.1-.2,0-.2A18.918,18.918,0,0,1,239.7,1153.2Z"/><g class="c"><path class="d" d="M240.2,1151.2l1.9,2.8a21.466,21.466,0,0,1-6.9,6.1h0s5.3-4.1,5.5-5.4-5.2,2.8-7.1,3.5c3.5-2.4,4.7-4.5.7-2.5-6.8,3.3-1.2-.5,3.6-2.2,3.2-1.2-8.4-.4-11.5,8.3a16.481,16.481,0,0,0,8.1-1.3.1.1,0,0,1-.1.1,20.712,20.712,0,0,1-8.8,2.3C224.5,1162.9,226.6,1154.4,240.2,1151.2Z"/></g><path class="d" d="M227.3,1161.4a25.368,25.368,0,0,0,6.1-1.2,15.429,15.429,0,0,0,5.1-3.3c.1-.1.1.1,0,.1a15.381,15.381,0,0,1-11.3,4.7C227.1,1161.7,227.1,1161.4,227.3,1161.4Z"/><path class="a" d="M244.8,1154.5c-11.4,7.8-9.7,16.4-8.8,16a20.627,20.627,0,0,0,11.7-14.1Z"/><path class="b" d="M245.8,1156.8c.1-.1.1.1.1.1a31.1,31.1,0,0,1-2.5,3.8c-.1.1-.2-.2-.1-.2C244.1,1159.3,244.9,1158,245.8,1156.8Z"/><path class="b" d="M245.1,1156.5c.1,0,.1.1,0,.1a29.87,29.87,0,0,0-6.1,6.7c-.1.1-.2-.1-.1-.2A20.5,20.5,0,0,1,245.1,1156.5Z"/><g class="c"><path class="d" d="M244.8,1154.5l2.9,1.9a20.3,20.3,0,0,1-3.9,8.1h0s3.2-5.7,2.9-7c-.3-1.2-3.7,4.4-5.1,5.8,2.3-3.5,2.5-5.8-.4-2.6-4.9,5.5-1.3,0,2.4-3.3,2.5-2.2-8,2.6-7.2,11.8a14.833,14.833,0,0,0,6.9-4.1v.1a19.574,19.574,0,0,1-7.2,5.3C235,1170.9,233.4,1162.3,244.8,1154.5Z"/></g><path class="d" d="M236.9,1168.5a21.216,21.216,0,0,0,5.1-3.3,12.93,12.93,0,0,0,3.3-4.8c0-.1.1,0,.1.1a13.729,13.729,0,0,1-8.5,8.3C236.9,1168.9,236.8,1168.6,236.9,1168.5Z"/><path class="a" d="M248.9,1155.3c-6.8,11.5-1.4,18.7-.8,17.9,7-7.8,4.3-17.4,4.3-17.4Z"/><path class="b" d="M250.8,1157c0-.1.1,0,.1.1a33.208,33.208,0,0,1-.6,4.4c0,.1-.2-.1-.2-.2C250.4,1159.9,250.6,1158.5,250.8,1157Z"/><path class="b" d="M250,1157c0-.1.1.1.1.1a28.011,28.011,0,0,0-2.5,8.4c0,.1-.2-.1-.2-.1A19.618,19.618,0,0,1,250,1157Z"/><g class="c"><path class="d" d="M248.9,1155.3l3.5.6a21.061,21.061,0,0,1,.1,8.9h0s.3-6.4-.5-7.4c-.9-1-1.3,5.4-2,7.3.5-4.1-.4-6.2-1.5-2.2-2,6.9-1.2.5.7-4,1.3-3-6,5.5-1.2,13.5a13.7,13.7,0,0,0,4.4-6.4v.1a19.006,19.006,0,0,1-4.1,7.6C247.4,1174,242.1,1166.8,248.9,1155.3Z"/></g><path class="d" d="M248.1,1171.1a20.262,20.262,0,0,0,3.2-5,13.926,13.926,0,0,0,.9-5.7c0-.1.1,0,.1,0a13.176,13.176,0,0,1-3.9,10.9C248.2,1171.5,248,1171.2,248.1,1171.1Z"/><path class="a" d="M254.2,1155c-2.6,12.9,4.9,18.2,5.3,17.3,4.1-9.5-1.8-17.7-1.8-17.7Z"/><path class="b" d="M256.7,1156.1c0-.1.2,0,.2.1a32.9,32.9,0,0,1,.9,4.3c0,.1-.2,0-.2-.1C257.3,1158.9,257,1157.5,256.7,1156.1Z"/><path class="b" d="M255.9,1156.3c0-.1.1,0,.1.1a25.4,25.4,0,0,0,.5,8.7c0,.1-.2,0-.2-.1A18.282,18.282,0,0,1,255.9,1156.3Z"/><g class="c"><path class="d" d="M254.2,1155l3.5-.5a20.91,20.91,0,0,1,3.1,8.4h0s-1.9-6.2-3-6.9c-1.2-.7.5,5.5.5,7.5-.9-4-2.5-5.8-2.2-1.6.5,7.1-1,.9-.7-4,.2-3.2-3.9,7,3.4,13.2a13.265,13.265,0,0,0,2-7.4l.1.1a17.49,17.49,0,0,1-1.4,8.4C259.1,1173.2,251.6,1167.9,254.2,1155Z"/></g><path class="d" d="M258.8,1170.2a22.637,22.637,0,0,0,1.4-5.7,12.612,12.612,0,0,0-1.1-5.7c0-.1.1,0,.1,0a12.609,12.609,0,0,1-.1,11.5C259,1170.5,258.8,1170.4,258.8,1170.2Z"/><path class="a" d="M257.8,1152.6c1.5,13.1,10.3,16.1,10.4,15.1,1-10.2-7.2-16.5-7.2-16.5Z"/><path class="b" d="M260.4,1153c0-.1.1,0,.2,0a38.393,38.393,0,0,1,2.2,3.9c.1.1-.2.1-.3,0A37.167,37.167,0,0,0,260.4,1153Z"/><path class="b" d="M259.8,1153.4c0-.1.1,0,.2,0a26.235,26.235,0,0,0,3.1,8.2c.1.1-.2.1-.2,0A17.119,17.119,0,0,1,259.8,1153.4Z"/><g class="c"><path class="d" d="M257.8,1152.6l3.2-1.4a20.591,20.591,0,0,1,5.5,7.2h0s-3.7-5.4-5-5.8,2.2,5.2,2.8,7c-2.1-3.6-4.1-4.9-2.6-1,2.7,6.7-.7,1.1-1.9-3.6-.8-3.1-1.5,7.8,7.3,11.7a13.177,13.177,0,0,0-.3-7.6l.1.1a17.334,17.334,0,0,1,1.3,8.4C268.1,1168.7,259.3,1165.7,257.8,1152.6Z"/></g><path class="d" d="M266.9,1166a18.743,18.743,0,0,0-.5-5.8,12.792,12.792,0,0,0-2.8-5.1c0-.1.1-.1.1,0a13.2,13.2,0,0,1,3.5,11C267.2,1166.2,266.9,1166.1,266.9,1166Z"/><path class="a" d="M261.2,1148.9c5.1,12.3,14.4,13.1,14.2,12.1-1.9-10.1-11.5-14.2-11.5-14.2Z"/><path class="b" d="M263.9,1148.7c-.1-.1.1-.1.2,0a32.218,32.218,0,0,1,3.2,3.2c.1.1-.2.1-.3,0C266,1150.8,264.9,1149.7,263.9,1148.7Z"/><path class="b" d="M263.3,1149.2c0-.1.1,0,.2,0a28.5,28.5,0,0,0,5.3,7.2c.1.1-.2.1-.2.1A21.086,21.086,0,0,1,263.3,1149.2Z"/><g class="c"><path class="d" d="M261.2,1148.9l2.7-2.1a21.966,21.966,0,0,1,7.3,5.6h0s-5.1-4.4-6.5-4.4,3.6,4.4,4.7,6.1c-3-3-5.4-3.7-2.8-.3,4.4,5.8-.4,1.2-2.8-3-1.7-2.8.7,7.9,10.3,9.6a13.5,13.5,0,0,0-2.4-7.3.1.1,0,0,1,.1.1,18.182,18.182,0,0,1,3.6,7.8C275.6,1162,266.3,1161.2,261.2,1148.9Z"/></g><path class="d" d="M273.7,1159.7a21.312,21.312,0,0,0-2-5.5,15.247,15.247,0,0,0-4.1-4.3c-.1,0,.1-.1.1,0a13.426,13.426,0,0,1,6.4,9.8C274,1159.8,273.7,1159.8,273.7,1159.7Z"/><path class="a" d="M262.1,1144.8c9.4,9.8,18.4,7.5,17.9,6.6-5.6-8.8-16.1-9.5-16.1-9.5Z"/><path class="b" d="M264.5,1143.7c-.1,0,.1-.1.1-.1a27.1,27.1,0,0,1,4.2,2c.1.1-.1.2-.2.1C267.3,1145,265.9,1144.3,264.5,1143.7Z"/><path class="b" d="M264.2,1144.4a.349.349,0,0,1,.2-.1,30.915,30.915,0,0,0,7.7,5c.1.1-.1.2-.2.1A20.94,20.94,0,0,1,264.2,1144.4Z"/><g class="c"><path class="d" d="M262.1,1144.8l1.7-2.9a23.572,23.572,0,0,1,9,2.9h0s-6.4-2.4-7.7-2,5,3,6.7,4.2c-4-1.8-6.4-1.7-2.7.6,6.3,4,.1,1.2-3.8-1.9-2.6-2.1,3.6,7.1,13.3,5.6a14.314,14.314,0,0,0-5-6h.1a19.513,19.513,0,0,1,6.3,6.2C280.5,1152.3,271.5,1154.6,262.1,1144.8Z"/></g><path class="d" d="M277.8,1150.7a24.345,24.345,0,0,0-4-4.5,15.5,15.5,0,0,0-5.5-2.6c-.1,0,0-.1.1-.1a14.5,14.5,0,0,1,9.7,7.1C278.2,1150.8,277.9,1150.8,277.8,1150.7Z"/><path class="a" d="M261.4,1141.6c13,5.1,20.1-.6,19.2-1.1-9-5.7-18.9-2.2-18.9-2.2Z"/><path class="b" d="M263,1139.6c-.1,0,0-.1.1-.1a36.492,36.492,0,0,1,4.7.1c.1,0-.1.2-.2.2C266.1,1139.7,264.6,1139.7,263,1139.6Z"/><path class="b" d="M263.1,1140.4c-.1,0,.1-.1.1-.1a35.4,35.4,0,0,0,9.2,1.5c.1,0,0,.2-.1.2A23.792,23.792,0,0,1,263.1,1140.4Z"/><g class="c"><path class="d" d="M261.4,1141.6l.3-3.3a23.612,23.612,0,0,1,9.4-1h0s-6.9.4-7.9,1.3,5.9.7,8,1.1c-4.4,0-6.6,1-2.2,1.6,7.6,1.1.7,1.1-4.3-.2-3.3-.9,6.5,5,14.6-.2a14.991,14.991,0,0,0-7.3-3.4h.1a22.056,22.056,0,0,1,8.5,3.1C281.4,1141.1,274.3,1146.8,261.4,1141.6Z"/></g><path class="d" d="M278.3,1140.7a28.142,28.142,0,0,0-5.6-2.5,16.126,16.126,0,0,0-6.2-.2c-.1,0,0-.1,0-.1a15.812,15.812,0,0,1,12,2.5C278.7,1140.6,278.4,1140.8,278.3,1140.7Z"/><path class="a" d="M260.6,1139.1c13.9-1.8,16.9-10.1,15.8-10.2a22.377,22.377,0,0,0-17.4,7.2Z"/><path class="b" d="M260.9,1136.6c-.1,0-.1-.1,0-.2,1.3-.8,2.7-1.5,4.1-2.2.1-.1.1.2,0,.2C263.7,1135.2,262.3,1135.9,260.9,1136.6Z"/><path class="b" d="M261.4,1137.2c-.1,0,0-.1,0-.1a32.39,32.39,0,0,0,8.7-3.2c.1-.1.1.2,0,.2A22.144,22.144,0,0,1,261.4,1137.2Z"/><g class="c"><path class="d" d="M260.6,1139.1l-1.6-2.9a23.267,23.267,0,0,1,7.5-5.4h0s-5.7,3.6-6.1,4.9c-.3,1.2,5.4-2.3,7.4-2.9-3.8,2.1-5.1,4-1,2.5,7.1-2.7,1.2.6-3.8,1.9-3.3.9,8.4,1.2,12.3-7.2a15.41,15.41,0,0,0-8.2.6l.1-.1a22.349,22.349,0,0,1,9-1.5C277.5,1128.9,274.6,1137.2,260.6,1139.1Z"/></g><path class="d" d="M274.6,1130.2a26.08,26.08,0,0,0-6.2.6,13.958,13.958,0,0,0-5.4,2.8c-.1,0-.1-.1,0-.1a15.4,15.4,0,0,1,11.7-3.6C274.9,1129.9,274.8,1130.2,274.6,1130.2Z"/><path class="a" d="M257.8,1135.7c12.4-6.3,12-15,11-14.7a21.129,21.129,0,0,0-13.6,12.5Z"/><path class="b" d="M257.2,1133.3c-.1.1-.1-.1-.1-.2.9-1.2,2-2.3,3-3.4.1-.1.1.2.1.2C259.2,1131,258.2,1132.2,257.2,1133.3Z"/><path class="b" d="M257.8,1133.7c-.1,0-.1-.1,0-.2a32.761,32.761,0,0,0,7-5.8c.1-.1.1.2.1.2A22.356,22.356,0,0,1,257.8,1133.7Z"/><g class="c"><path class="d" d="M257.8,1135.7l-2.6-2.2a20.91,20.91,0,0,1,5-7.5h0s-4,5.3-3.8,6.5c.1,1.3,4.3-3.9,5.9-5.1-2.8,3.2-3.3,5.5,0,2.6,5.6-4.8,1.3.2-2.9,3-2.8,1.9,8.3-1.6,8.8-10.8a14.883,14.883,0,0,0-7.4,3.2v-.1a21.948,21.948,0,0,1,7.9-4.3C269.8,1120.7,270.2,1129.4,257.8,1135.7Z"/></g><path class="d" d="M267.6,1122.8a23.736,23.736,0,0,0-5.6,2.6,13.954,13.954,0,0,0-4,4.4c0,.1-.1,0-.1-.1a14.518,14.518,0,0,1,9.6-7.2C267.7,1122.4,267.7,1122.7,267.6,1122.8Z"/><path class="a" d="M253.7,1133.7c8.8-10.2,4.9-18.2,4.1-17.5a19.681,19.681,0,0,0-7.4,16.4Z"/><path class="b" d="M252.1,1131.7c0,.1-.1-.1-.1-.1a29.551,29.551,0,0,1,1.4-4.2c.1-.1.2.1.2.2C253,1128.9,252.6,1130.3,252.1,1131.7Z"/><path class="b" d="M252.9,1131.8c0,.1-.1-.1-.1-.1a25.6,25.6,0,0,0,4-7.9c0-.1.2.1.2.2A20.231,20.231,0,0,1,252.9,1131.8Z"/><g class="c"><path class="d" d="M253.7,1133.7l-3.3-1.1a19.337,19.337,0,0,1,1.6-8.7h0s-1.5,6.3-.8,7.4,2.3-5.1,3.3-6.8c-1.2,3.9-.8,6.2,1.1,2.4,3.2-6.5,1.3-.3-1.4,3.8-1.8,2.8,7-4.5,3.7-13.1a14.114,14.114,0,0,0-5.5,5.6v-.1a18.775,18.775,0,0,1,5.5-6.8C258.6,1115.5,262.5,1123.4,253.7,1133.7Z"/></g><path class="d" d="M257.4,1118.2a24.342,24.342,0,0,0-4.1,4.4,12.491,12.491,0,0,0-1.9,5.5c0,.1-.1,0-.1-.1.2-4.1,2.5-7.6,5.9-10.1C257.4,1117.9,257.5,1118.2,257.4,1118.2Z"/><path class="e" d="M257.2,1152.8c5.3,12.2,14.6,12.8,14.4,11.9-2.1-10-11.8-14-11.8-14Z"/><path class="b" d="M259.9,1152.5c-.1-.1.1-.1.2,0a33.413,33.413,0,0,1,3.3,3.2c.1.1-.2.1-.3,0C262,1154.6,261,1153.5,259.9,1152.5Z"/><path class="b" d="M259.4,1153c0-.1.1-.1.2,0a31.007,31.007,0,0,0,5.4,7.1c.1.1-.2.1-.2.1A19.821,19.821,0,0,1,259.4,1153Z"/><g class="f"><path class="g" d="M257.2,1152.8l2.7-2.2a23.421,23.421,0,0,1,7.4,5.5h0s-5.2-4.3-6.5-4.3c-1.4,0,3.7,4.4,4.8,6-3.1-2.9-5.4-3.7-2.8-.3,4.5,5.8-.3,1.2-2.9-3-1.7-2.8.8,7.9,10.5,9.4a13.19,13.19,0,0,0-2.6-7.2.1.1,0,0,1,.1.1,17.733,17.733,0,0,1,3.7,7.8C271.9,1165.6,262.5,1164.9,257.2,1152.8Z"/></g><path class="g" d="M269.9,1163.3a23.071,23.071,0,0,0-2.1-5.5,14.018,14.018,0,0,0-4.2-4.2c-.1,0,.1-.1.1,0a13.789,13.789,0,0,1,6.6,9.7C270.2,1163.4,269.9,1163.4,269.9,1163.3Z"/><path class="e" d="M238,1142.4s-11.6-1.8-18.3,3.8c-1,1,8.7,5.1,19.4.7Z"/><path class="b" d="M236.8,1143.8a16.76,16.76,0,0,0-5,0c-.1,0,0,.1.1.1a40.064,40.064,0,0,1,4.9,0C237,1143.9,236.9,1143.8,236.8,1143.8Z"/><path class="b" d="M237.1,1144.3a22.672,22.672,0,0,0-8.2,1.2c-.1,0,.1.1.1.1,2.7-.5,5.3-1.3,8.1-1.3C237.3,1144.4,237.2,1144.3,237.1,1144.3Z"/><path class="b" d="M237.4,1145.3c.1,0-.1-.1-.1-.1-2.7,1.4-6.1,1.9-9.2,2.2-.1,0,0,.1.1.1C231.1,1147.4,234.9,1146.8,237.4,1145.3Z"/><g class="f"><path class="g" d="M239.1,1146.8l-1.1-4.5a33.543,33.543,0,0,0-9.4.1c.8-.1,5.7-.4,6.7.3,1.1.8-5.3,1.3-5.3,1.3s3.2-.1,3.6,0c.3.2-5.9,1.8-5.9,1.8s6.9-1.1,7.3-.5-7.2,2.9-11.9,1.6c-3.3-1-.1-2.8,2.9-3.9.1,0,.1-.1.2-.1a15.474,15.474,0,0,0-6.4,3.2C218.8,1147.2,228.4,1151.3,239.1,1146.8Z"/></g><path class="g" d="M221.9,1145.8a23.4,23.4,0,0,1,5.5-2.7,14.4,14.4,0,0,1,6.2-.4c.1,0,0-.1,0-.1a15.321,15.321,0,0,0-11.9,3C221.5,1145.7,221.8,1145.9,221.9,1145.8Z"/><path class="e" d="M239,1147.6s-10.9,1-15.9,9.1c-1,1.3,8.6,3.1,17-4.7Z"/><path class="b" d="M229.6,1153.5a35.635,35.635,0,0,1,8.4-4.5.1.1,0,0,0-.1-.1,28.314,28.314,0,0,0-8.4,4.5C229.4,1153.4,229.6,1153.5,229.6,1153.5Z"/><path class="b" d="M238.2,1150.9c.1,0-.1-.1-.1-.1a27.3,27.3,0,0,1-4.8,2.5c-.1,0,.1.2.2.2A18.1,18.1,0,0,0,238.2,1150.9Z"/><path class="b" d="M238.5,1151.6h0c-1.4.8-2.7,1.7-4.2,2.4-1.6.8-3.4,1.4-5.1,2.1-.1,0,.1.2.1.1A25.7,25.7,0,0,0,238.5,1151.6Z"/><g class="f"><path class="g" d="M240.1,1152l-1.1-4.3a26.026,26.026,0,0,0-11.5,4.4h0s4.5-2,5.3-1.7-2.6,2.1-4,3.8c4.4-2.9,6.5-3.7,7.1-3.1.8.7-3.5,2.7-3.5,2.7s2.5-.7,2.6-.4c.1.4-4.5,2.8-8.3,3.4-3.7.6-2.3-1.6-.6-3.4a1.755,1.755,0,0,0,.4-.5,13.96,13.96,0,0,0-3.3,3.9C222.1,1158,231.6,1159.8,240.1,1152Z"/></g><path class="g" d="M224.6,1156.1a19,19,0,0,1,3.7-3.8,13.2,13.2,0,0,1,5-2.2c.1,0,0-.1-.1-.1a12.954,12.954,0,0,0-8.8,6C224.3,1156.1,224.5,1156.2,224.6,1156.1Z"/><path class="e" d="M253.3,1155s.8,10.2,9.4,15c1.4,1,3.5-7.9-4.7-15.9Z"/><path class="b" d="M259.4,1163.9a31.741,31.741,0,0,1-4.7-7.9.1.1,0,0,0-.1.1,23.675,23.675,0,0,0,4.7,7.9Z"/><path class="b" d="M256.8,1155.9c0-.1-.1.1-.1.1a29.121,29.121,0,0,1,2.6,4.5c0,.1.2-.1.2-.2A20.02,20.02,0,0,0,256.8,1155.9Z"/><path class="b" d="M257.6,1155.5h0c.8,1.3,1.8,2.6,2.5,3.9a41.012,41.012,0,0,1,2.1,4.8c0,.1.2-.1.1-.1A25.005,25.005,0,0,0,257.6,1155.5Z"/><g class="f"><path class="g" d="M258,1154.1l-4.7.9a22.4,22.4,0,0,0,4.5,10.9h0s-2-4.2-1.7-5,2.2,2.5,3.9,3.9c-3-4.2-3.8-6.1-3.2-6.7.8-.8,2.8,3.4,2.8,3.4s-.7-2.3-.3-2.4,2.9,4.3,3.5,7.8-1.8,2.1-3.7.4a.914.914,0,0,0-.5-.3,16.657,16.657,0,0,0,4.1,3.2C264.1,1171,266.2,1162.1,258,1154.1Z"/></g><path class="g" d="M262.1,1168.6a16.788,16.788,0,0,1-4-3.5,11.936,11.936,0,0,1-2.2-4.7c0-.1-.1,0-.1.1a12.3,12.3,0,0,0,6.2,8.4A.192.192,0,0,0,262.1,1168.6Z"/><path class="e" d="M261,1138.1s8.4-6.5,18.1-4.1c1.7.3-3.7,7.8-15.6,7.9Z"/><path class="b" d="M272,1136a37.252,37.252,0,0,0-9.3,2.3v-.1a29.671,29.671,0,0,1,9.3-2.4C272.1,1135.9,272.1,1136,272,1136Z"/><path class="b" d="M264.1,1139.9c-.1,0-.1-.1,0-.2a24.372,24.372,0,0,0,5.3-1.4c.1,0,.1.2,0,.2A18.839,18.839,0,0,1,264.1,1139.9Z"/><path class="b" d="M264.4,1140.6c-.1,0-.1-.1,0,0,1.6-.4,3.2-.6,4.8-1,1.8-.5,3.5-1.3,5.2-1.9.1,0,.1.2,0,.2A31.578,31.578,0,0,1,264.4,1140.6Z"/><g class="f"><path class="g" d="M263.5,1141.9l-2.5-3.8a25.056,25.056,0,0,1,11.5-4.5h0s-4.7,1.6-5,2.3,3.4-.3,5.7,0c-5.3.8-7.3,1.7-7.4,2.5,0,1.1,4.5-.5,4.5-.5s-2.3,1.1-2.1,1.5c.2.3,5.3-1,8.4-3s.4-2.7-2.2-2.8a3.537,3.537,0,0,1-.6-.1,19.425,19.425,0,0,1,5.3.5C280.8,1134.3,275.4,1141.8,263.5,1141.9Z"/></g><path class="g" d="M277.6,1134.6a25.059,25.059,0,0,0-5.5-.3,13.851,13.851,0,0,0-5.2,1.7c-.1,0,0-.1,0-.1a13.636,13.636,0,0,1,10.8-1.6A.192.192,0,0,1,277.6,1134.6Z"/><path class="e" d="M241.5,1151.9s-10.3,4.4-11.1,14.6c-.2.9,8,1.5,15.1-12.4Z"/><path class="b" d="M239.7,1154.5a13.67,13.67,0,0,0-5.1,6.6c0,.1.1.1.2,0a15.847,15.847,0,0,1,5-6.5S239.8,1154.4,239.7,1154.5Z"/><path class="b" d="M240.9,1154.6c-.6.5-1.1,1.1-1.7,1.7-.1.1,0,.2.1.1.6-.6,1.1-1.2,1.6-1.8C241,1154.6,241,1154.5,240.9,1154.6Z"/><path class="b" d="M242,1155.5c-.9,2.6-3.6,4.8-5.9,6.5-.1.1-.1.3,0,.2,2.3-1.6,5.3-4.1,5.9-6.7C242.1,1155.4,242,1155.4,242,1155.5Z"/><path class="b" d="M242.9,1155.8c-.7,1.1-1.1,2.3-1.9,3.4a17.178,17.178,0,0,1-2.9,3.1c-.1.1-.1.3.1.2a22.741,22.741,0,0,0,3-3.2,16.157,16.157,0,0,0,1.7-3.5Z"/><g class="f"><path class="g" d="M241.5,1151.9a22.05,22.05,0,0,0-7.9,6.4h0s3.4-3.2,4.6-3.5c1-.2-1.7,2.1-3.1,4.9,0,0,2.9-4,3.9-4.1s-.9,1.9-.9,1.9,1.9-2.1,2.9-1.8-1.9,4.3-4.9,6.4c1.8-.7,4.3-3.5,4.7-3.4.4.2-4,5.6-8.3,7.1-2.8.9-1.5-3.5.1-6.1h-.1a14.813,14.813,0,0,0-2.2,6.9c-.2.9,8,1.5,15.1-12.4Z"/></g><path class="g" d="M231.3,1165.3a18.177,18.177,0,0,1,2-5.5,12.954,12.954,0,0,1,4.1-4.3c.1,0-.1-.1-.1,0a13.669,13.669,0,0,0-6.3,9.9C230.9,1165.5,231.2,1165.4,231.3,1165.3Z"/><path class="e" d="M237.9,1142.4s-10.9.4-16.3-8c-.6-.7,6.1-4.5,18.7,4.4Z"/><path class="b" d="M235.2,1141a14.645,14.645,0,0,1-7.5-3.6c-.1-.1.1-.1.1-.1a16.538,16.538,0,0,0,7.3,3.5C235.2,1140.9,235.3,1141,235.2,1141Z"/><path class="b" d="M236.1,1140.4a14.262,14.262,0,0,1-2.2-.8c-.2-.1-.1-.2.1-.1l2.1.9C236.2,1140.4,236.2,1140.5,236.1,1140.4Z"/><path class="b" d="M236.6,1139.2c-2-1.9-5.4-2.7-8-3.1-.1,0-.2-.2-.1-.2,2.7.4,6.4,1.3,8.1,3.3C236.8,1139.3,236.7,1139.3,236.6,1139.2Z"/><path class="b" d="M237.3,1138.5a35.3,35.3,0,0,0-3.2-2.1,17.391,17.391,0,0,0-4-1.5c-.1,0-.2-.2,0-.2a19.314,19.314,0,0,1,4,1.5,26.17,26.17,0,0,1,3.2,2.3C237.4,1138.5,237.3,1138.6,237.3,1138.5Z"/><g class="f"><path class="g" d="M237.9,1142.4a22.131,22.131,0,0,1-9.7-2.2h0s4.4,1.4,5.5,1.1c.9-.2-2.4-1.1-4.9-3,0,0,4.4,2.2,5.3,2,.9-.3-1.6-1.3-1.6-1.3s2.6,1.1,3.3.4-3.6-2.9-7.1-3.5c1.9-.1,5.4,1.3,5.6,1,.3-.3-6-3.2-10.4-2.7-2.8.4.3,3.6,2.9,5.2h-.1a16.158,16.158,0,0,1-5.1-5c-.6-.7,6.1-4.5,18.7,4.4Z"/></g><path class="g" d="M222.9,1135.1a19.986,19.986,0,0,0,4.3,3.9,15.858,15.858,0,0,0,5.5,2c.1,0,0,.1-.1.1a14.268,14.268,0,0,1-10-5.9C222.5,1135.2,222.8,1135.1,222.9,1135.1Z"/><path class="e" d="M245.1,1154.8s-6.1,9.4-3,17.3c.6,1.2,8.3-5.7,7.8-16.5Z"/><path class="b" d="M246.1,1156.4a11.6,11.6,0,0,0-1.8,4.3c0,.1.2,0,.2-.1a32.511,32.511,0,0,1,1.8-4.3S246.1,1156.3,246.1,1156.4Z"/><path class="b" d="M246.6,1156.3a19.81,19.81,0,0,0-1.9,7.6c0,.1.2,0,.2-.1.5-2.5.7-5.1,1.8-7.5C246.8,1156.2,246.7,1156.2,246.6,1156.3Z"/><path class="b" d="M247.7,1156.4c0-.1-.1,0-.1.1a20.445,20.445,0,0,1-1.2,8.8c0,.1.1,0,.1,0C247.5,1162.7,248.4,1159.1,247.7,1156.4Z"/><g class="f"><path class="g" d="M249.9,1155.5l-4.8-.7a29.928,29.928,0,0,0-3.4,8.2c.2-.7,1.7-5.1,2.8-5.7,1.2-.7-.7,5.1-.7,5.1a20.125,20.125,0,0,1,1.4-3.1c.3-.2-.5,5.8-.5,5.8s1.5-6.4,2.2-6.5.2,7.3-2.8,10.9c-2.2,2.5-2.8-.9-2.8-4v-.2a14.506,14.506,0,0,0,.8,6.8C242.7,1173.3,250.4,1166.4,249.9,1155.5Z"/></g><path class="g" d="M242.5,1170.1a18.782,18.782,0,0,1-.6-5.8,15.481,15.481,0,0,1,1.8-5.5c0-.1-.1,0-.1,0a12.55,12.55,0,0,0-1.4,11.4A.192.192,0,0,0,242.5,1170.1Z"/><path class="e" d="M263.1,1146.4s11.5,2.5,15.3,10.1c.5,1.3-10.2,1.6-18.1-6.4Z"/><path class="b" d="M263.6,1148.2a15.2,15.2,0,0,1,4.6,1.8c.1.1-.1.1-.2.1a41.764,41.764,0,0,0-4.4-1.9C263.4,1148.2,263.5,1148.1,263.6,1148.2Z"/><path class="b" d="M263.1,1148.5a21.961,21.961,0,0,1,7.1,4.1c.1.1-.1.1-.2.1a30.323,30.323,0,0,0-6.9-4.2Z"/><path class="b" d="M262.5,1149.3c0-.1.1-.1.1,0,1.9,2.3,4.9,4,7.6,5.3.1.1,0,.1-.1.1C267.4,1153.5,264.1,1151.6,262.5,1149.3Z"/><g class="f"><path class="g" d="M260.3,1150.1l2.8-3.7a34.853,34.853,0,0,1,8.7,3.5c-.7-.3-5.1-2.4-6.3-2.1-1.3.3,4.4,3.1,4.4,3.1a28.452,28.452,0,0,0-3.3-1.3c-.4,0,4.7,3.7,4.7,3.7s-5.9-3.5-6.5-3.1,5.4,5.2,10.3,5.8c3.5.3,1.3-2.5-1.1-4.6-.1-.1-.1-.1-.2-.1a14.757,14.757,0,0,1,4.6,5.3C278.9,1157.8,268.2,1158.1,260.3,1150.1Z"/></g><path class="g" d="M276.5,1155.4a24.345,24.345,0,0,0-4-4.5,15.5,15.5,0,0,0-5.5-2.6c-.1,0,0-.1.1-.1a14.45,14.45,0,0,1,9.7,7C276.9,1155.4,276.6,1155.5,276.5,1155.4Z"/><path class="e" d="M239.7,1137.5s-11.1-4.5-13.4-12.9c-.2-1.4,10.6.2,17,9.6Z"/><path class="b" d="M239.6,1135.6a14.544,14.544,0,0,1-4.3-2.6c-.1-.1.1-.1.2,0,1.3.9,2.7,1.7,4.1,2.6Z"/><path class="b" d="M240.1,1135.4a21.7,21.7,0,0,1-6.3-5.3c-.1-.1.1-.1.2,0a51.505,51.505,0,0,0,6.1,5.3C240.3,1135.3,240.2,1135.4,240.1,1135.4Z"/><path class="b" d="M240.9,1134.7c0,.1-.1,0-.1,0-1.4-2.6-4.1-4.9-6.6-6.7-.1-.1.1-.1.1-.1C236.8,1129.5,239.8,1132,240.9,1134.7Z"/><g class="f"><path class="g" d="M243.3,1134.2l-3.6,3.3a30.852,30.852,0,0,1-8-5.1c.6.4,4.6,3.4,5.9,3.3,1.4-.1-3.8-3.9-3.8-3.9a35.387,35.387,0,0,0,3.1,1.9c.4,0-4-4.6-4-4.6s5.2,4.6,5.9,4.3-4.4-6.2-9.2-7.7c-3.5-.9-1.8,2.3.2,4.9.1.1.1.1.1.2a15.686,15.686,0,0,1-3.6-6.1C226.1,1123.2,236.9,1124.8,243.3,1134.2Z"/></g><path class="g" d="M228,1126a27.472,27.472,0,0,0,3.1,5.2,16.387,16.387,0,0,0,5,3.6c.1,0,0,.1-.1.1a14.327,14.327,0,0,1-8.4-8.8C227.6,1125.9,227.9,1125.9,228,1126Z"/><path class="e" d="M253.4,1155.2c5.7,12-.3,18.7-.9,17.9-6.3-8.4-2.6-17.6-2.6-17.6Z"/><path class="b" d="M251.3,1156.8c0-.1-.2,0-.2.1a21.308,21.308,0,0,0,.2,4.4c0,.1.2-.1.2-.1C251.5,1159.7,251.4,1158.3,251.3,1156.8Z"/><path class="b" d="M252.1,1156.9c0-.1-.1.1-.1.1a27.965,27.965,0,0,1,1.7,8.6c0,.1.2,0,.2-.1A18.241,18.241,0,0,0,252.1,1156.9Z"/><g class="f"><path class="g" d="M253.4,1155.2l-3.5.3a19.792,19.792,0,0,0-.9,8.8h0s.3-6.4,1.2-7.4c.9-.9.8,5.5,1.3,7.4-.1-4.1,1-6.2,1.7-2.1,1.3,7,1.2.6-.3-4-1-3.1,5.5,6-.1,13.6a13.548,13.548,0,0,1-3.8-6.8v.1a17.9,17.9,0,0,0,3.4,7.9C253.1,1174,259.1,1167.3,253.4,1155.2Z"/></g><path class="g" d="M252.7,1171.1a21.453,21.453,0,0,1-2.7-5.2,12.607,12.607,0,0,1-.3-5.8c0-.1-.1,0-.1,0a13.186,13.186,0,0,0,2.9,11.2C252.6,1171.4,252.8,1171.1,252.7,1171.1Z"/><path class="e" d="M261.5,1145.6c12.6,6,20.1.7,19.2.1-8.6-6.3-18.7-3.4-18.7-3.4Z"/><path class="b" d="M263.3,1143.7c-.1,0,0-.1.1-.1a35.719,35.719,0,0,1,4.7.4c.1,0-.1.2-.2.2C266.4,1144,264.8,1143.9,263.3,1143.7Z"/><path class="b" d="M263.3,1144.5c-.1,0,.1-.1.1-.1a34.485,34.485,0,0,0,9.1,2.1c.1,0-.1.2-.1.2A25.331,25.331,0,0,1,263.3,1144.5Z"/><g class="f"><path class="g" d="M261.5,1145.6l.5-3.3a24.675,24.675,0,0,1,9.5-.4h0s-6.9-.1-8,.8c-1,.8,5.9,1.1,7.9,1.6-4.4-.3-6.7.6-2.3,1.5,7.5,1.6.6,1.1-4.3-.5-3.3-1.1,6.1,5.4,14.5.7a15.554,15.554,0,0,0-7-3.9h.1a20.6,20.6,0,0,1,8.3,3.6C281.6,1146.3,274,1151.6,261.5,1145.6Z"/></g><path class="g" d="M278.5,1145.8a25.1,25.1,0,0,0-5.4-2.8,15.877,15.877,0,0,0-6.1-.6c-.1,0,0-.1,0-.1a15.561,15.561,0,0,1,11.8,3.3C278.8,1145.7,278.6,1145.9,278.5,1145.8Z"/><path class="e" d="M252,1133.5c5.1-12.2-1.2-18.7-1.7-17.9-5.9,8.6-1.8,17.7-1.8,17.7Z"/><path class="b" d="M249.8,1132.1c0,.1-.2,0-.2-.1a32.293,32.293,0,0,1,0-4.4c0-.1.2,0,.2.1Z"/><path class="b" d="M250.6,1132c0,.1-.1-.1-.1-.1a25.883,25.883,0,0,0,1.3-8.7c0-.1.2,0,.2.1A17.394,17.394,0,0,1,250.6,1132Z"/><g class="f"><path class="g" d="M252,1133.5l-3.5-.1a19.737,19.737,0,0,1-1.3-8.8h0s.6,6.4,1.6,7.3.6-5.5,1-7.5c.1,4.1,1.3,6.1,1.8,2,1-7.1,1.1-.7-.1,4-.8,3.1,5.2-6.2-.7-13.6a13.8,13.8,0,0,0-3.5,6.9.1.1,0,0,0-.1-.1,18.417,18.417,0,0,1,3-8C250.8,1114.8,257.1,1121.3,252,1133.5Z"/></g><path class="g" d="M250.6,1117.8a21.4,21.4,0,0,0-2.5,5.3,12.628,12.628,0,0,0,0,5.8c0,.1-.1,0-.1,0a12.819,12.819,0,0,1,2.4-11.3C250.4,1117.4,250.6,1117.7,250.6,1117.8Z"/><path class="e" d="M248.1,1133.4c-1.9-13-10.8-15.8-10.8-14.8-.7,10.2,7.6,16.3,7.6,16.3Z"/><path class="b" d="M245.4,1133.1c0,.1-.1,0-.2,0a25,25,0,0,1-2.3-3.9c-.1-.1.2-.1.3,0C243.9,1130.6,244.7,1131.8,245.4,1133.1Z"/><path class="b" d="M246.1,1132.7c0,.1-.1,0-.2,0a25.482,25.482,0,0,0-3.4-8.2c-.1-.1.2-.1.2,0A19.65,19.65,0,0,1,246.1,1132.7Z"/><g class="f"><path class="g" d="M248.1,1133.4l-3.2,1.5a21.365,21.365,0,0,1-5.7-7.1h0s3.9,5.4,5.2,5.7-2.4-5.1-3-7c2.2,3.5,4.3,4.8,2.6.9-2.8-6.6.6-1.1,2,3.6.9,3.1,1.3-7.8-7.7-11.6a12.5,12.5,0,0,0,.6,7.6l-.1-.1a18.308,18.308,0,0,1-1.5-8.4C237.3,1117.6,246.2,1120.4,248.1,1133.4Z"/></g><path class="g" d="M238.7,1120.3a22.421,22.421,0,0,0,.6,5.8,13.244,13.244,0,0,0,3,5.1c0,.1-.1.1-.1,0a13.21,13.21,0,0,1-3.8-10.9C238.3,1120.1,238.6,1120.2,238.7,1120.3Z"/><path class="e" d="M256.4,1134.8c11-8.4,8.2-17.1,7.3-16.6a18.869,18.869,0,0,0-10.6,14.8Z"/><path class="b" d="M255.1,1132.5c0,.1-.1-.1-.1-.1a24.578,24.578,0,0,1,2.2-3.9c.1-.1.2.1.1.2C256.5,1129.9,255.8,1131.2,255.1,1132.5Z"/><path class="b" d="M255.9,1132.8a.1.1,0,0,1-.1-.1,27.453,27.453,0,0,0,5.6-7.1c.1-.1.2.1.2.2A19.188,19.188,0,0,1,255.9,1132.8Z"/><g class="f"><path class="g" d="M256.4,1134.8l-3.3-1.8a19.66,19.66,0,0,1,3.1-8.4h0s-2.6,6-2.1,7.2,3.3-4.6,4.7-6.2c-2,3.7-1.9,6,.7,2.6,4.5-5.8,1.4-.1-2.1,3.5-2.4,2.4,8.1-3.1,6.1-12.3a14.317,14.317,0,0,0-6.8,4.5v-.1a20.069,20.069,0,0,1,6.9-5.7C264.6,1117.7,267.5,1126.4,256.4,1134.8Z"/></g><path class="g" d="M262.9,1120.2a19.906,19.906,0,0,0-5,3.6,11.888,11.888,0,0,0-2.9,5.1c0,.1-.1,0-.1-.1.9-4,3.9-7.1,7.9-8.9C262.9,1119.8,263,1120.1,262.9,1120.2Z"/><path class="e" d="M260,1137.8c13.1-4.9,13.8-13.6,12.8-13.4a21.579,21.579,0,0,0-15.1,10.9Z"/><path class="b" d="M259.7,1135.4c-.1.1-.1-.1,0-.2,1.1-1.1,2.2-2.1,3.4-3.1.1-.1.1.2,0,.2C262,1133.3,260.8,1134.4,259.7,1135.4Z"/><path class="b" d="M260.3,1135.8c-.1,0-.1-.1,0-.2a30.329,30.329,0,0,0,7.7-5.1c.1-.1.1.2.1.2A21.971,21.971,0,0,1,260.3,1135.8Z"/><g class="f"><path class="g" d="M260,1137.8l-2.3-2.5a22.085,22.085,0,0,1,5.9-6.9h0s-4.6,4.8-4.6,6.1,4.7-3.4,6.5-4.5c-3.1,2.9-3.9,5.1-.3,2.6,6.2-4.2,1.3.3-3.2,2.7-3,1.6,8.4-.7,10.1-9.8a15.147,15.147,0,0,0-7.8,2.4.1.1,0,0,1,.1-.1,20.982,20.982,0,0,1,8.3-3.4C273.8,1124.2,273.1,1132.9,260,1137.8Z"/></g><path class="g" d="M271.3,1126.1a25.678,25.678,0,0,0-5.9,2,15.476,15.476,0,0,0-4.5,3.9c0,.1-.1-.1,0-.1a14.641,14.641,0,0,1,10.4-6.1C271.5,1125.7,271.5,1126,271.3,1126.1Z"/><path class="g" d="M248.2,1130.6s.7-1.8,1.2-.4c.2.4.1-1,1-.2.2.1.4-.7.8.2.2.2.7-.8,1-.6.4.2.1,1.1.1,1.1s1.8-1,1.2.1c.6-.5.9-.8,1.1.1.2.7,1.3-1.1,1.3.3,0,.4,1.3-.9,1,.3-.1.3,1.4-.7,1.1.4,0,.4,1.5-.8,1,.4-.2.3,1.9-.9,1,.6-.1.2,2.1-.7,1.1.7-.3.3,3.2.2.8,1.1,1.2.2,1.5.3.6.7,1-.1.9.4.4.9.7-.2,1,.3.8.7.9-.4,1.1.1.4.8,1.5-.1,1.7.1.9.6,1.4.1,1.2,1.1.4,1.4,1.4.1,1.4.9.6,1.1,1.1.7,1.2,1.3.3,1.3,1.1.6.6,1-.1,1.1.3.2-.4.8-.4.8s2.1.2.3.9c.9.4.8.6-.3,1.1,1,.3.5.8-.4,1,.7.8.1.9-.4.5.6,1.2.6,1.8-.2,1.5.5.9.1.8-.6,1.1.7.5-.1.8-.6.9.9.6.1.9-.8.9.4,1,.1,1.5-.7.7,0,1.3-.2,1.3-.7.7.2.7-.1,1.4-1.1.9.3,1-.3,1.1-.6.2-.3,1.1-.2,1.4-.7.4.2,1.2-.8,1.4-1.8.7.3,1.4-.3,1.3-1.2.3,0,1-.7.6-1.4.2,0,1-.4,1.5-1.3.8,0,.9-.6.5-1-.1-.6,1.2-.7,1-1,.1-.4,1.2-1.3,1.1-1.5.2-.7,1-1,1-1.4.1-.8,1.3-.9.2-1.1-.5-.5,1.1-1.1.4-1.1-.2-1,1-1,.4-1-.4-.7,1.1-1.1.5-1.3-.5-.9.9-1.4.8-.8-.7-1.3.9-1.5.2-1.5-.5-.5.7-1.1-.1-.7-.7-.6.4-.5-.2-.5-.2-.9.4-1.3.1-.6-.8-2,.1-2-.6-1.1-1.1-1.3-.3-1.3-.6-.6-1-1.1.3-1.3-.2-.5-1.3-1,.7-1.4-.4-.4-1.2-1.5-.4-.9-.6-.2-1.1-1.2.3-1.8-1.1-.4-1.1-1.1-.8-.6-1,.1-1-1.6-1.3-1.3-1.2-.4-1.6-1.3-.6-.6-1.1.2-1.4-1.2.2-.7-.3.1-.9-1.2-1.1-.5-1.2.3-1.3-1-.5-.1-1,.6-1.1-1.4-.4-.6-.8.2-.8-1.6-1.3-.9-1.6.2-1.1-1.2-1.2-.3-1.3.6-1-.5-1.6.3-1.4.9-.8-.1-1.1.1-1.1,1-.8-.7-1.3,0-1.1,1-.8-.6-1.1,0-1.1,1.4-.8-.3-1,0-1,.8-.5-.3-1.1.3-1.1,1.4-.6-.1-1.1.4-.9,1-.4,0-1.3.5-1.3.8-.4C247.4,1129.3,248.1,1129.6,248.2,1130.6Z"/><path class="h" d="M248.5,1131.6s.6-1.6,1.1-.4c.1.4.1-.9.9-.2.2.1.4-.6.7.1.2.2.6-.7.9-.6.3.2.1,1,.1,1s1.7-.9,1.1.1c.5-.5.8-.7,1,.1.2.6,1.2-1,1.2.3,0,.4,1.2-.9.9.3-.1.3,1.3-.6,1,.4,0,.3,1.4-.7.9.4-.2.3,1.8-.8,1,.5-.1.2,2-.6,1,.6-.3.3,3,.2.7,1,1.1.2,1.4.3.6.7,1-.1.8.4.4.9.7-.2.9.3.7.6.8-.4,1,.1.3.8,1.4-.1,1.6.1.8.6,1.2.1,1.1,1,.4,1.3,1.3.1,1.3.8.5,1,1,.7,1.1,1.2.3,1.2,1,.6.5.9-.1,1,.2.2-.4.7-.4.7s1.9.2.3.8c.8.4.7.6-.3,1.1,1,.3.4.8-.4.9.6.8.1.8-.4.5.5,1.1.5,1.7-.2,1.4.4.8.1.7-.6,1,.6.5-.1.8-.5.8.8.5.1.8-.8.8.4.9.1,1.4-.6.6,0,1.2-.2,1.2-.7.7.2.7-.1,1.3-1,.9.3.9-.2,1-.6.2-.2,1-.2,1.3-.7.4.2,1.1-.7,1.3-1.6.6.3,1.3-.3,1.2-1.1.3,0,.9-.7.6-1.3.1,0,.9-.4,1.4-1.2.8,0,.9-.5.5-.9-.1-.5,1.1-.6.9-.9.1-.3,1.1-1.2,1-1.4.1-.6.9-.9.9-1.3.1-.7,1.2-.8.2-1-.5-.4,1.1-1,.3-1-.2-1,.9-1,.4-.9-.4-.7,1-1,.5-1.2-.5-.8.8-1.3.7-.7-.6-1.2.9-1.4.2-1.3-.5-.5.7-1-.1-.6-.6-.5.4-.4-.2-.4-.2-.9.4-1.2.1-.6-.7-1.9,0-1.8-.6-1-1-1.2-.3-1.2-.6-.6-1-1,.3-1.2-.2-.4-1.2-.9.6-1.3-.4-.3-1.1-1.4-.3-.9-.6-.2-1-1.1.2-1.6-1-.3-1.1-1-.7-.5-.9.1-.9-1.5-1.2-1.2-1.1-.4-1.5-1.2-.6-.6-1,.2-1.3-1.1.1-.7-.3.1-.8-1.1-1-.5-1.1.2-1.2-.9-.4-.1-.9.6-1-1.3-.4-.5-.7.2-.7-1.4-1.2-.8-1.5.2-1-1.1-1.1-.3-1.2.6-.9-.5-1.5.3-1.3.8-.8-.1-1,.1-1,.9-.7-.6-1.2,0-1,1-.7-.6-1,0-1,1.3-.7-.3-.9,0-.9.7-.4-.3-1,.3-1,1.3-.5-.1-1,.4-.9.9-.3,0-1.2.4-1.2.8-.3C247.7,1130.4,248.3,1130.7,248.5,1131.6Z"/><path class="i" d="M242.8,1133.3c-.6-.1-.9.1-.7.6.2,0,.3.1.5.2C242.3,1133.6,242.4,1133.4,242.8,1133.3Z"/><path class="i" d="M247,1132c.1-.2.1-.3.2-.4-.2-.5-.5-.6-.6-.1C246.7,1131.4,246.8,1131.6,247,1132Z"/><path class="i" d="M243.9,1132.8c-.5-.2-.7-.1-.4.6h.3C243.6,1132.9,243.7,1132.7,243.9,1132.8Z"/><path class="i" d="M245.5,1132.6v-.1c-1-.4-1.6-.4-1.3.5a.349.349,0,0,0,.2.1C244.1,1132.2,244.6,1132.2,245.5,1132.6Z"/><path class="i" d="M246.3,1132.3v-.3c-.4-.3-.7-.4-.8.1C245.6,1131.8,246,1132,246.3,1132.3Z"/><path class="i" d="M250.4,1131.5c.2.1.4-.4.7-.5-.3-.4-.4.2-.6.1-.6-.5-.7.1-.8.2a.1.1,0,0,1,.1.1C250,1131.4,250.1,1130.8,250.4,1131.5Z"/><path class="i" d="M251.3,1131.8s.7-.4,1-.3c0-.2.1-.8-.1-.9-.3-.1-.6.4-.8.6A3.537,3.537,0,0,1,251.3,1131.8Z"/><path class="i" d="M249,1131.5c.1.3.1-.5.6-.3-.3-.7-.6-.4-.9-.1A1.381,1.381,0,0,1,249,1131.5Z"/><path class="i" d="M248,1131.8a1.546,1.546,0,0,1,.3-.6c-.2-.5-.5-.6-.9-.1C247.8,1131.1,248,1131.4,248,1131.8Z"/><path class="i" d="M241,1135.3v-.5c-.4-.1-.6-.1-.7.2A1.08,1.08,0,0,1,241,1135.3Z"/><path class="i" d="M241.8,1134.7a1.433,1.433,0,0,1-.2-.7c-.5-.1-.7,0-.5.6C241.2,1134.5,241.5,1134.6,241.8,1134.7Z"/><path class="j" d="M265.1,1142.1c.8,0,.7-.5-.3-1.2.8-.2.8-.9-.5-1,.7-.3.9-1.2-.4-1.3.8-.5.6-.7-.8-.6.7-.7.5-1.2-.3-.8.2-.3,0-.8-.7-.6.4-.5.6-.9-.4-.9.8-.4.6-.5-.6-.7,2.3-.8-1-.7-.7-1,.9-1.2-1.2-.4-1-.6.8-1.3-1.1-.2-1-.5.5-1.1-.9,0-.9-.4.3-1-1.1-.1-1-.4.3-1.1-.9.1-.9-.3,0-1.3-1,.3-1.2-.3-.2-.8-.5-.6-1-.1.4-.9-.7-.3-1-.1a.756.756,0,0,1-.1.4c.5-.4.7-.6.9.1.1.6,1-.8,1,.3,0,.3,1-.7.8.2-.1.3,1.1-.6.9.3,0,.3,1.2-.6.8.3-.1.3,1.5-.7.8.5-.1.2,1.7-.5.9.5-.2.3,2.6.2.6.8,1,.2,1.2.3.5.6.8-.1.7.4.3.7.6-.2.8.2.6.5.7-.4.9.1.3.6,1.2-.1,1.4.1.7.5,1.1.1.9.9.3,1.1,1.1.1,1.1.7.5.9.9.6.9,1,.3,1,.9.5.5.8-.1.8.2.2-.3.6-.3.6s1.6.1.2.7c.7.3.6.5-.2.9.8.2.4.6-.3.8.5.6.1.7-.3.4.5.9.5,1.5-.1,1.2.4.7.1.6-.5.9.6.4-.1.6-.5.7.7.5.1.7-.7.7.3.8.1,1.2-.5.6,0,1-.2,1-.6.6.1.6-.1,1.1-.9.7.2.8-.2.9-.5.2-.2.8-.1,1.1-.6.4.1,1-.6,1.1-1.4.6.3,1.1-.3,1-1,.3,0,.8-.6.5-1.1.1,0,.8-.3,1.2-1,.7,0,.7-.5.4-.8-.1-.5,1-.5.8-.8.1-.3.9-1,.8-1.2.1-.5.8-.8.8-1.1.1-.6,1-.7.2-.9-.4-.4.9-.9.3-.9-.1-.8.8-.8.4-.8-.3-.6.8-.9.4-1-.4-.7.7-1.1.6-.6-.5-1,.7-1.2.2-1.2-.4-.4.6-.8-.1-.6-.5-.5.3-.4-.1-.4-.1-.7.3-1,0-.5-.6-1.6,0-1.6-.5-.8-.9-1.1-.2-1-.5-.5-.8-.8.2-1-.1-.4-1-.8.5-1.1-.3-.3-1-1.2-.3-.8-.5-.2-.9-.9.2-1.4-.8-.3-.9-.9-.6-.4-.8.1-.8-1.3-1-1-.9-.3-1.3-1-.5-.5-.8.2-1.1-.9.1-.6-.2.1-.7-1-.8-.4-.9.2-1-.8-.4-.1-.8.5-.9-1.1-.4-.4-.6.1-.6-1.2-1-.7-1.3.2-.9-.2-.2-.3-.3-.3-.4-.9-.2-1.6-.1-.5.9-1-.4-1.6-.1-.2,1-.7,0-1.4.3-.2.7-.7.1-1.5.6-.6,1-.7.1-1.4.2-.2,1.2-.8.6-1.2,1-.1.8-.8.3-1.4.7-.2,1.3-.8.4-1.1.3.4,1.5-.6,0-1.1.2-.1.9-1.3.1-.8,1.3.3,1.1-.6.5-1.2.7.2,1-1,.7-.6,1.7.3,1.1-.8,1.1-.5,1.5.4,1.2-.6.4-.6.7.6,1-.9.5-.9,1.1,1,1-.6.8-.3,1.1.6.7,0,0-.1.5.4.2-.3.5.2,1.3.6.6-.1.7.2,1.4,1.3.5-.5,1.3-.1,1.4.7.6.1,1,.5,1.5,1.2.5,0,.8,0,1.3.9.4,0,.5.6,1.2,1,.2.2.6.3,1.6,1,.5.4.8.7.8,1.3-.1.2.8,1,.9,1.4-.1.3.8.4,1,.9-.1.4.5.8.9.9.1.8.6,1.2.2,1.2-.8.6.4,1.2.8,1.3-.1.8.9,1.4,1,1.1-.3.9.7,1.8.5,1.6-.6.5.9.4.6.7-.4.3.8.8.7.6-.2.9.4,1.2-.2,1-.9.5.5.7.5.7-.7.7.8,1,.3.6-.6.8,0,1.6-.3.8-.8.4-.1,1.2-.4.5-.8.6-.3,1-.2.6-1,.7.3.7-.3.2-1.4.5.3,1,.3.4-.5.8-.2,1.3-.7.4-.9,1-.5,1.1-.7.3-1.1,1.6-.6-.3-.8-.3-.8s.6-.5.4-.7C265.6,1143,266.1,1142.7,265.1,1142.1Z"/><path class="i" d="M240.4,1136a1.087,1.087,0,0,1-.1-.5c-.4-.3-.9-.4-.8.5A1.308,1.308,0,0,1,240.4,1136Z"/><path class="i" d="M239.5,1136c-.1.1-.1.2.1.4h.1A.4.4,0,0,1,239.5,1136Z"/><path class="i" d="M248.7,1131.1a.367.367,0,0,0-.3.1c0,.1.1.2.1.4A4.2,4.2,0,0,0,248.7,1131.1Z"/><path class="i" d="M251.3,1131.2c0-.1-.1-.1-.1-.2h-.1c0,.1.1.1.1.2Z"/><path class="i" d="M243.5,1133.4a5.639,5.639,0,0,1-.7-.1c.2,0,.4.1.7.1Z"/><path class="i" d="M252.3,1131.5Z"/><path class="i" d="M249.7,1131.3a.1.1,0,0,1-.1-.1l.1.1Z"/><path class="i" d="M244.2,1132.9a.367.367,0,0,0-.3-.1.367.367,0,0,0,.3.1Z"/><path class="i" d="M242.1,1133.9a.75.75,0,0,0-.5.1,1.422,1.422,0,0,1,.6.2C242.2,1134.1,242.1,1134,242.1,1133.9Z"/><path class="i" d="M245.5,1132.1v.4h0Z"/><path class="i" d="M247.5,1131.2c-.1,0-.2.2-.4.4,0,.1.1.1.1.2A3.333,3.333,0,0,1,247.5,1131.2Z"/><path class="i" d="M246.5,1131.5c-.1,0-.2.2-.2.5a.349.349,0,0,0,.2.1Z"/><path class="i" d="M241.1,1134.6c-.1,0-.1.1-.1.2.1,0,.2,0,.2.1A.367.367,0,0,0,241.1,1134.6Z"/><path class="i" d="M240.4,1135.6v-.6c-.1.1-.1.2-.1.4C240.3,1135.5,240.3,1135.6,240.4,1135.6Z"/><path class="k" d="M240,1137.5c-.1,0-.2.1-.1.2.2.1.3.3.5.4a.1.1,0,0,0,.1-.1C240.4,1137.7,240.2,1137.5,240,1137.5Z"/><path class="k" d="M240.7,1137.1c0-.1-.3.1-.2.2,0,.1.1.1.1.2s.2-.1.2-.2C240.7,1137.3,240.7,1137.2,240.7,1137.1Z"/><path class="k" d="M242,1137.6c-.1-.3-.5-.6-.8-.9-.1-.1-.2.1-.2.2.3.3.4.6.7.9C241.9,1137.9,242.1,1137.7,242,1137.6Z"/><path class="k" d="M242.1,1136.6c.1-.2-.2-.1-.3,0-.1.2,0,.3.1.5.1.1.2-.1.2-.2C242.2,1136.8,242.1,1136.7,242.1,1136.6Z"/><path class="k" d="M243.1,1135.9c-.1-.2-.4-.4-.6-.6-.1-.1-.3.2-.2.2.2.2.3.4.6.5C243,1136.2,243.1,1136,243.1,1135.9Z"/><path class="k" d="M243.5,1135.5c-.1-.1-.2-.2-.2-.3-.1-.1-.3.1-.2.2s.1.2.3.3C243.4,1135.8,243.5,1135.6,243.5,1135.5Z"/><path class="k" d="M244.8,1134.6c-.2-.3-.2-.6-.4-.9,0-.1-.1.1-.1.1.1.3,0,.8.3,1C244.7,1134.8,244.9,1134.6,244.8,1134.6Z"/><path class="k" d="M245.9,1133.4c.1-.1.1-.2,0-.2a.1.1,0,0,0-.1.1c-.1,0-.2.2-.2.2a.2.2,0,0,0,.4,0C245.9,1133.5,245.9,1133.5,245.9,1133.4Z"/><path class="k" d="M246.9,1132.9c-.1,0-.2.2-.1.2S247,1132.9,246.9,1132.9Z"/><path class="k" d="M248.4,1132.9a.349.349,0,0,1-.1-.2c-.1-.1-.3.1-.3.2s0,.1.1.2h.2A.349.349,0,0,0,248.4,1132.9Z"/><path class="k" d="M249.4,1132.9l-.2-.2c-.1-.1-.3.2-.2.3s.1.1.2.1C249.2,1133.2,249.4,1133,249.4,1132.9Z"/><path class="k" d="M250.1,1132.6c-.1,0-.3.3-.2.3C250.1,1132.9,250.3,1132.6,250.1,1132.6Z"/><path class="k" d="M248.1,1133.8c0-.1-.2,0-.2.1v.4c0,.1.2,0,.2-.1Z"/><path class="k" d="M249.7,1133.6c-.1,0-.1,0-.1-.1-.1-.1-.3.1-.2.2,0,.1.1.1.2.1C249.7,1133.9,249.8,1133.7,249.7,1133.6Z"/><path class="k" d="M251.7,1132.5c0,.2-.1.3-.1.5s.2,0,.2-.1c0-.2.1-.3.1-.5S251.7,1132.4,251.7,1132.5Z"/><path class="k" d="M253,1132.7a.1.1,0,0,0-.1-.1c0-.1-.2.1-.2.2s0,.2.1.2S253.1,1132.8,253,1132.7Z"/><path class="k" d="M254,1133.1h0l-.1-.1c-.1,0-.3.2-.2.3v.1h0a.319.319,0,0,0,.3-.3Z"/><path class="k" d="M252.7,1133.3c-.1,0-.1.1-.2.1s-.2.3-.1.2c.1,0,.1-.1.2-.1C252.8,1133.5,252.9,1133.2,252.7,1133.3Z"/><path class="k" d="M245,1136c-.2-.1-.3-.3-.5-.4-.1-.1-.2.1-.2.2.2.1.3.3.5.4C244.9,1136.3,245.1,1136,245,1136Z"/><path class="k" d="M239.9,1138.6c-.1-.1-.2.1-.2.2a2.092,2.092,0,0,0,.4.6c.1.1.2-.1.2-.2A1.275,1.275,0,0,0,239.9,1138.6Z"/><path class="k" d="M241.6,1138.5c0-.1-.1-.1,0,0a.367.367,0,0,0-.3-.1l-.1.1h0a.1.1,0,0,0,.1.1h.2c0,.1.1,0,.1-.1Z"/><path class="k" d="M246.3,1137.4a.1.1,0,0,0-.1.1C246.3,1137.5,246.4,1137.4,246.3,1137.4Z"/><path class="k" d="M239.9,1141.2a.6.6,0,0,0-.1.4c0,.1.2-.1.2-.1a.368.368,0,0,1,.1-.3C240.2,1141,239.9,1141.1,239.9,1141.2Z"/><path class="k" d="M240.8,1142.7h0c0,.2.3,0,.3-.1h0C241.1,1142.3,240.8,1142.5,240.8,1142.7Z"/><path class="k" d="M244.1,1137.9l-.1.1a.1.1,0,0,0,.2,0C244.4,1138,244.3,1137.7,244.1,1137.9Z"/><path class="k" d="M242.5,1143.2c-.1.1-.2.2-.2.3s.1.1.1,0l.2-.2C242.7,1143.2,242.6,1143,242.5,1143.2Z"/><path class="k" d="M240.7,1145s-.1.1,0,.1h0a.215.215,0,0,0,.2-.2h0C241,1144.7,240.7,1144.8,240.7,1145Z"/><path class="k" d="M239.9,1145.7c0-.1-.1-.1-.1-.2,0-.2-.3.1-.3.2a.2.2,0,0,0,.4,0Z"/><path class="k" d="M255.2,1135a.1.1,0,0,1-.1-.1c-.1-.1-.3.1-.3.2.1.1.2.2.3.1A.349.349,0,0,0,255.2,1135Z"/><path class="k" d="M256.9,1134.1a.215.215,0,0,0-.2.2v.1h0C256.9,1134.4,257,1134.1,256.9,1134.1Z"/><path class="k" d="M255.5,1133.3c-.1,0-.2.2-.1.2S255.6,1133.3,255.5,1133.3Z"/><path class="k" d="M257.5,1134.5h0c0,.2.2,0,.2-.1v-.1C257.8,1134.2,257.5,1134.3,257.5,1134.5Z"/><path class="k" d="M257.9,1135.2v.1c.1.1.2-.1.2-.1v-.2C258.2,1134.9,257.9,1135.1,257.9,1135.2Z"/><path class="k" d="M257.7,1136.2c-.1,0-.3.3-.2.3C257.7,1136.5,257.9,1136.2,257.7,1136.2Z"/><path class="k" d="M257,1135.3c-.1,0-.1,0-.2.1-.1,0-.3.3-.1.3.1,0,.1,0,.2-.1C257,1135.6,257.1,1135.3,257,1135.3Z"/><path class="k" d="M259.5,1136.3c-.1-.1-.3.1-.3.2v.2c0,.1,0,.2.1.1A.365.365,0,0,0,259.5,1136.3Z"/><path class="k" d="M250.8,1134.8v.2c0,.1.2-.1.2-.1v-.2C251.1,1134.5,250.8,1134.7,250.8,1134.8Z"/><path class="k" d="M252.8,1135l-.1.1s-.1.2,0,.2.1,0,.2-.1S253,1134.9,252.8,1135Z"/><path class="k" d="M249.2,1134.7c-.1-.2-.4.2-.5.3v.1c0,.2.2.2.3.1h0a.365.365,0,0,0,.2-.5Z"/><path class="k" d="M258.8,1137.3c-.1,0-.3.3-.2.3C258.8,1137.6,259,1137.3,258.8,1137.3Z"/><path class="k" d="M258.3,1135.7c-.1,0-.1,0-.2.1-.1,0-.1.1-.1.2a.1.1,0,0,0,.1.1C258.3,1136,258.5,1135.6,258.3,1135.7Z"/><path class="k" d="M260.2,1138.3c-.2,0-.4.4-.2.4S260.4,1138.3,260.2,1138.3Z"/><path class="k" d="M258.7,1140.4c-.2,0-.4.4-.2.4C258.6,1140.7,258.8,1140.4,258.7,1140.4Z"/><path class="k" d="M261.4,1141.4c-.1-.2-.4.2-.4.3h.1a.215.215,0,0,0,.2-.2C261.4,1141.6,261.4,1141.5,261.4,1141.4Z"/><path class="k" d="M260.8,1142.1c-.1,0-.3.3-.1.3C260.8,1142.4,260.9,1142.1,260.8,1142.1Z"/><path class="k" d="M259.7,1142.3c0-.2-.5.3-.2.2h.1c.1,0,.1-.1.1-.2Z"/><path class="k" d="M244,1145.9h0c0,.1.2,0,.2-.1v-.1C244.2,1145.6,243.9,1145.8,244,1145.9Z"/><path class="k" d="M244.1,1147.8c-.1,0-.3.3-.1.3C244.1,1148,244.2,1147.8,244.1,1147.8Z"/><path class="k" d="M242.5,1148c-.2,0-.5.5-.3.5S242.7,1148,242.5,1148Z"/><path class="k" d="M245.2,1148.1h0l-.2.2h0c0,.1.2,0,.2-.1l-.1.1C245.3,1148.3,245.4,1148,245.2,1148.1Z"/><path class="k" d="M245.2,1150.4c-.1,0-.2.2-.1.2Z"/><path class="k" d="M249.7,1149.9h0c0,.2.2.1.2,0v-.1C249.9,1149.7,249.7,1149.9,249.7,1149.9Z"/><path class="k" d="M249.9,1151.3h0c-.2.1-.1.3,0,.2v-.1C250,1151.4,250,1151.2,249.9,1151.3Z"/><path class="k" d="M254.8,1149c-.1,0-.2.2-.1.2S255,1149,254.8,1149Z"/><path class="k" d="M254.7,1150.3h0c-.2.1-.1.4,0,.2v-.1C254.8,1150.4,254.8,1150.2,254.7,1150.3Z"/><path class="k" d="M252.5,1149c-.1,0-.2.2-.1.2C252.5,1149.1,252.6,1149,252.5,1149Z"/><path class="k" d="M253.5,1149.8c-.2,0-.3.3-.2.3C253.5,1150.2,253.7,1149.8,253.5,1149.8Z"/><path class="k" d="M256.1,1148.9c-.1,0-.2.3,0,.3.1,0,.1-.1.2-.2C256.3,1148.9,256.2,1148.8,256.1,1148.9Z"/><path class="k" d="M257,1147.3c-.1,0-.2.3,0,.3.1,0,.1-.1.2-.2C257.2,1147.3,257.1,1147.3,257,1147.3Z"/><path class="k" d="M258.5,1145.4c-.1-.1-.3.3-.1.2h0a.1.1,0,0,0,.1-.1Z"/><path class="k" d="M259.7,1146.7h0c-.1-.2-.3.1-.2.1h.1C259.7,1146.9,259.8,1146.8,259.7,1146.7Z"/><path class="k" d="M259.5,1147.7c-.1,0-.3.2-.1.2C259.5,1148,259.6,1147.7,259.5,1147.7Z"/><path class="k" d="M258.7,1148.8a.1.1,0,0,1-.1-.1c-.1-.1-.2.2-.1.2h.1C258.7,1149,258.8,1148.8,258.7,1148.8Z"/><path class="k" d="M261.2,1144.2c-.1,0-.2.2-.1.2S261.3,1144.2,261.2,1144.2Z"/><path class="k" d="M246.4,1133.7c0-.1-.2.1-.2.2a1.421,1.421,0,0,0,.2.6c.1.1.3-.1.2-.2C246.5,1134,246.4,1133.9,246.4,1133.7Z"/><path class="h" d="M266.1,1143.6c0,7.6-6.6,13.8-14.8,13.8s-14.8-6.2-14.8-13.8,6.6-13.8,14.8-13.8C259.5,1129.7,266.1,1135.9,266.1,1143.6Z"/></g><g class="l" transform="translate(164 248.783)"><path d="M250.1,1132.6c1.6-13.1-6.3-17.8-6.6-16.9-3.3,9.7,3.1,17.6,3.1,17.6Z"/><path d="M247.6,1131.7c0,.1-.2,0-.2,0-.5-1.4-.9-2.8-1.3-4.3,0-.1.2,0,.3.1Z"/><path d="M248.4,1131.4c0,.1-.1,0-.1-.1a25.7,25.7,0,0,0-1.1-8.7c0-.1.2,0,.2.1A19.863,19.863,0,0,1,248.4,1131.4Z"/><g class="c"><path d="M250.1,1132.6l-3.5.7a20.687,20.687,0,0,1-3.7-8.2h0s2.3,6.1,3.5,6.7-1-5.5-1.1-7.4c1.2,3.9,2.9,5.6,2.3,1.5-1-7.1.9-.9,1,3.9.1,3.2,3.3-7.3-4.4-13a12.876,12.876,0,0,0-1.5,7.5l-.1-.1a18.2,18.2,0,0,1,.7-8.5C243.8,1114.8,251.7,1119.5,250.1,1132.6Z"/></g><path d="M244.4,1117.7a18.363,18.363,0,0,0-.9,5.7,14.175,14.175,0,0,0,1.5,5.6c0,.1-.1,0-.1,0a12.651,12.651,0,0,1-.8-11.5C244.2,1117.4,244.4,1117.6,244.4,1117.7Z"/><path d="M243.8,1134.5c-2.6-12.9-11.6-15.3-11.6-14.3-.1,10.2,8.5,15.9,8.5,15.9Z"/><path d="M241.1,1134.3c.1.1-.1.1-.2,0a40.125,40.125,0,0,1-2.5-3.7c-.1-.1.2-.1.3,0C239.4,1131.8,240.3,1133,241.1,1134.3Z"/><path d="M241.7,1133.8c0,.1-.1,0-.2,0a27.94,27.94,0,0,0-3.8-8c-.1-.1.2-.1.2,0A19.085,19.085,0,0,1,241.7,1133.8Z"/><g class="c"><path d="M243.8,1134.5l-3.1,1.6a21.849,21.849,0,0,1-6.1-6.8h0s4.1,5.2,5.5,5.4c1.3.3-2.7-5-3.4-6.8,2.4,3.4,4.5,4.6,2.7.8-3.2-6.5.6-1.1,2.2,3.5,1.1,3.1.9-7.8-8.3-11.2a12.734,12.734,0,0,0,1,7.6.1.1,0,0,1-.1-.1,17.851,17.851,0,0,1-2-8.3C232.1,1119.2,241.2,1121.6,243.8,1134.5Z"/></g><path d="M233.6,1121.8a21.232,21.232,0,0,0,.9,5.7,14.336,14.336,0,0,0,3.2,4.9c.1.1-.1.1-.1,0a13.064,13.064,0,0,1-4.4-10.7C233.3,1121.6,233.6,1121.7,233.6,1121.8Z"/><path d="M240.6,1137.1c-8.7-10.3-17.9-8.5-17.4-7.6,5,9.1,15.5,10.4,15.5,10.4Z"/><path d="M238.2,1138.1c.1,0-.1.1-.2.1a32.336,32.336,0,0,1-4.1-2.2c-.1-.1.2-.2.2-.1C235.5,1136.7,236.8,1137.4,238.2,1138.1Z"/><path d="M238.5,1137.5a.139.139,0,0,1-.2,0,26.615,26.615,0,0,0-7.4-5.4c-.1-.1.1-.2.2-.1A20.51,20.51,0,0,1,238.5,1137.5Z"/><g class="c"><path d="M240.6,1137.1l-1.9,2.8a22.355,22.355,0,0,1-8.8-3.4h0s6.2,2.8,7.6,2.4c1.3-.3-4.8-3.3-6.4-4.6,3.8,2,6.3,2.1,2.8-.5-6.1-4.4,0-1.2,3.7,2.1,2.5,2.3-3.1-7.3-12.9-6.3a13.423,13.423,0,0,0,4.6,6.3h-.1a18.75,18.75,0,0,1-5.9-6.5C222.8,1128.7,231.9,1126.8,240.6,1137.1Z"/></g><path d="M225.3,1130.3a23.177,23.177,0,0,0,3.7,4.7,15.243,15.243,0,0,0,5.3,2.9c.1,0,0,.1-.1.1a14.38,14.38,0,0,1-9.2-7.6C225,1130.3,225.3,1130.2,225.3,1130.3Z"/><path d="M239,1140.7c-12.6-5.8-20.1-.4-19.2.1,8.7,6.2,18.8,3.1,18.8,3.1Z"/><path d="M237.3,1142.6c.1,0,0,.1-.1.1a35.915,35.915,0,0,1-4.7-.3c-.1,0,.1-.2.2-.2C234.2,1142.4,235.7,1142.5,237.3,1142.6Z"/><path d="M237.3,1141.8c.1,0-.1.1-.1.1a31.424,31.424,0,0,0-9.1-1.9c-.1,0,.1-.2.1-.2A26.106,26.106,0,0,1,237.3,1141.8Z"/><g class="c"><path d="M239,1140.7l-.5,3.3a23.484,23.484,0,0,1-9.5.5h0s6.9,0,7.9-.9c1-.8-5.9-1-7.9-1.5,4.4.3,6.7-.7,2.3-1.5-7.5-1.5-.6-1.1,4.3.4,3.3,1-6.2-5.4-14.6-.5a14.405,14.405,0,0,0,7.1,3.8H228a19.783,19.783,0,0,1-8.3-3.5C219,1140.2,226.4,1134.9,239,1140.7Z"/></g><path d="M222.1,1140.7a21.644,21.644,0,0,0,5.5,2.7,16.164,16.164,0,0,0,6.2.5c.1,0,0,.1,0,.1a15.79,15.79,0,0,1-11.9-3.1C221.7,1140.8,222,1140.7,222.1,1140.7Z"/><path d="M238.7,1146.1c-14-1.4-19,6-18,6.3a23.181,23.181,0,0,0,18.8-3.1Z"/><path d="M237.8,1148.4c.1,0,0,.1,0,.2a34.463,34.463,0,0,1-4.6,1.2c-.1,0,0-.2.1-.2Z"/><path d="M237.5,1147.7c.1,0,0,.1-.1.1a36.415,36.415,0,0,0-9.3,1.1c-.1,0,0-.2.1-.2A26.365,26.365,0,0,1,237.5,1147.7Z"/><g class="c"><path d="M238.7,1146.1l.8,3.2a24.2,24.2,0,0,1-8.7,3.5h0s6.5-2.2,7.1-3.4c.7-1.1-5.9,1-8,1.1,4.2-1.2,6-2.8,1.6-2.2-7.6,1-1-.8,4.2-1,3.5-.1-7.8-3-13.8,4.2a15.615,15.615,0,0,0,8.1,1.3l-.1.1a22.209,22.209,0,0,1-9.1-.6C219.7,1152.1,224.7,1144.7,238.7,1146.1Z"/></g><path d="M222.8,1151.5a25.7,25.7,0,0,0,6.2.8,15.615,15.615,0,0,0,6-1.5c.1,0,0,.1,0,.1a15.924,15.924,0,0,1-12.3.9C222.5,1151.8,222.7,1151.5,222.8,1151.5Z"/><path d="M240.2,1151.2c-13.7,3.1-15.7,11.7-14.7,11.6a22.5,22.5,0,0,0,16.6-8.8Z"/><path d="M240.2,1153.7c.1-.1.1.1,0,.2a37.73,37.73,0,0,1-3.9,2.6c-.1.1-.1-.2,0-.2C237.7,1155.4,238.9,1154.6,240.2,1153.7Z"/><path d="M239.7,1153.2c.1,0,0,.1,0,.2a30.351,30.351,0,0,0-8.3,4c-.1.1-.1-.2,0-.2A18.918,18.918,0,0,1,239.7,1153.2Z"/><g class="c"><path d="M240.2,1151.2l1.9,2.8a21.466,21.466,0,0,1-6.9,6.1h0s5.3-4.1,5.5-5.4-5.2,2.8-7.1,3.5c3.5-2.4,4.7-4.5.7-2.5-6.8,3.3-1.2-.5,3.6-2.2,3.2-1.2-8.4-.4-11.5,8.3a16.481,16.481,0,0,0,8.1-1.3.1.1,0,0,1-.1.1,20.712,20.712,0,0,1-8.8,2.3C224.5,1162.9,226.6,1154.4,240.2,1151.2Z"/></g><path d="M227.3,1161.4a25.368,25.368,0,0,0,6.1-1.2,15.429,15.429,0,0,0,5.1-3.3c.1-.1.1.1,0,.1a15.381,15.381,0,0,1-11.3,4.7C227.1,1161.7,227.1,1161.4,227.3,1161.4Z"/><path d="M244.8,1154.5c-11.4,7.8-9.7,16.4-8.8,16a20.627,20.627,0,0,0,11.7-14.1Z"/><path d="M245.8,1156.8c.1-.1.1.1.1.1a31.1,31.1,0,0,1-2.5,3.8c-.1.1-.2-.2-.1-.2C244.1,1159.3,244.9,1158,245.8,1156.8Z"/><path d="M245.1,1156.5c.1,0,.1.1,0,.1a29.87,29.87,0,0,0-6.1,6.7c-.1.1-.2-.1-.1-.2A20.5,20.5,0,0,1,245.1,1156.5Z"/><g class="c"><path d="M244.8,1154.5l2.9,1.9a20.3,20.3,0,0,1-3.9,8.1h0s3.2-5.7,2.9-7c-.3-1.2-3.7,4.4-5.1,5.8,2.3-3.5,2.5-5.8-.4-2.6-4.9,5.5-1.3,0,2.4-3.3,2.5-2.2-8,2.6-7.2,11.8a14.833,14.833,0,0,0,6.9-4.1v.1a19.574,19.574,0,0,1-7.2,5.3C235,1170.9,233.4,1162.3,244.8,1154.5Z"/></g><path d="M236.9,1168.5a21.216,21.216,0,0,0,5.1-3.3,12.93,12.93,0,0,0,3.3-4.8c0-.1.1,0,.1.1a13.729,13.729,0,0,1-8.5,8.3C236.9,1168.9,236.8,1168.6,236.9,1168.5Z"/><path d="M248.9,1155.3c-6.8,11.5-1.4,18.7-.8,17.9,7-7.8,4.3-17.4,4.3-17.4Z"/><path d="M250.8,1157c0-.1.1,0,.1.1a33.208,33.208,0,0,1-.6,4.4c0,.1-.2-.1-.2-.2C250.4,1159.9,250.6,1158.5,250.8,1157Z"/><path d="M250,1157c0-.1.1.1.1.1a28.011,28.011,0,0,0-2.5,8.4c0,.1-.2-.1-.2-.1A19.618,19.618,0,0,1,250,1157Z"/><g class="c"><path d="M248.9,1155.3l3.5.6a21.061,21.061,0,0,1,.1,8.9h0s.3-6.4-.5-7.4c-.9-1-1.3,5.4-2,7.3.5-4.1-.4-6.2-1.5-2.2-2,6.9-1.2.5.7-4,1.3-3-6,5.5-1.2,13.5a13.7,13.7,0,0,0,4.4-6.4v.1a19.006,19.006,0,0,1-4.1,7.6C247.4,1174,242.1,1166.8,248.9,1155.3Z"/></g><path d="M248.1,1171.1a20.262,20.262,0,0,0,3.2-5,13.926,13.926,0,0,0,.9-5.7c0-.1.1,0,.1,0a13.176,13.176,0,0,1-3.9,10.9C248.2,1171.5,248,1171.2,248.1,1171.1Z"/><path d="M254.2,1155c-2.6,12.9,4.9,18.2,5.3,17.3,4.1-9.5-1.8-17.7-1.8-17.7Z"/><path d="M256.7,1156.1c0-.1.2,0,.2.1a32.9,32.9,0,0,1,.9,4.3c0,.1-.2,0-.2-.1C257.3,1158.9,257,1157.5,256.7,1156.1Z"/><path d="M255.9,1156.3c0-.1.1,0,.1.1a25.4,25.4,0,0,0,.5,8.7c0,.1-.2,0-.2-.1A18.282,18.282,0,0,1,255.9,1156.3Z"/><g class="c"><path d="M254.2,1155l3.5-.5a20.91,20.91,0,0,1,3.1,8.4h0s-1.9-6.2-3-6.9c-1.2-.7.5,5.5.5,7.5-.9-4-2.5-5.8-2.2-1.6.5,7.1-1,.9-.7-4,.2-3.2-3.9,7,3.4,13.2a13.265,13.265,0,0,0,2-7.4l.1.1a17.49,17.49,0,0,1-1.4,8.4C259.1,1173.2,251.6,1167.9,254.2,1155Z"/></g><path d="M258.8,1170.2a22.637,22.637,0,0,0,1.4-5.7,12.612,12.612,0,0,0-1.1-5.7c0-.1.1,0,.1,0a12.609,12.609,0,0,1-.1,11.5C259,1170.5,258.8,1170.4,258.8,1170.2Z"/><path d="M257.8,1152.6c1.5,13.1,10.3,16.1,10.4,15.1,1-10.2-7.2-16.5-7.2-16.5Z"/><path d="M260.4,1153c0-.1.1,0,.2,0a38.393,38.393,0,0,1,2.2,3.9c.1.1-.2.1-.3,0A37.167,37.167,0,0,0,260.4,1153Z"/><path d="M259.8,1153.4c0-.1.1,0,.2,0a26.235,26.235,0,0,0,3.1,8.2c.1.1-.2.1-.2,0A17.119,17.119,0,0,1,259.8,1153.4Z"/><g class="c"><path d="M257.8,1152.6l3.2-1.4a20.591,20.591,0,0,1,5.5,7.2h0s-3.7-5.4-5-5.8,2.2,5.2,2.8,7c-2.1-3.6-4.1-4.9-2.6-1,2.7,6.7-.7,1.1-1.9-3.6-.8-3.1-1.5,7.8,7.3,11.7a13.177,13.177,0,0,0-.3-7.6l.1.1a17.334,17.334,0,0,1,1.3,8.4C268.1,1168.7,259.3,1165.7,257.8,1152.6Z"/></g><path d="M266.9,1166a18.743,18.743,0,0,0-.5-5.8,12.792,12.792,0,0,0-2.8-5.1c0-.1.1-.1.1,0a13.2,13.2,0,0,1,3.5,11C267.2,1166.2,266.9,1166.1,266.9,1166Z"/><path d="M261.2,1148.9c5.1,12.3,14.4,13.1,14.2,12.1-1.9-10.1-11.5-14.2-11.5-14.2Z"/><path d="M263.9,1148.7c-.1-.1.1-.1.2,0a32.218,32.218,0,0,1,3.2,3.2c.1.1-.2.1-.3,0C266,1150.8,264.9,1149.7,263.9,1148.7Z"/><path d="M263.3,1149.2c0-.1.1,0,.2,0a28.5,28.5,0,0,0,5.3,7.2c.1.1-.2.1-.2.1A21.086,21.086,0,0,1,263.3,1149.2Z"/><g class="c"><path d="M261.2,1148.9l2.7-2.1a21.966,21.966,0,0,1,7.3,5.6h0s-5.1-4.4-6.5-4.4,3.6,4.4,4.7,6.1c-3-3-5.4-3.7-2.8-.3,4.4,5.8-.4,1.2-2.8-3-1.7-2.8.7,7.9,10.3,9.6a13.5,13.5,0,0,0-2.4-7.3.1.1,0,0,1,.1.1,18.182,18.182,0,0,1,3.6,7.8C275.6,1162,266.3,1161.2,261.2,1148.9Z"/></g><path d="M273.7,1159.7a21.312,21.312,0,0,0-2-5.5,15.247,15.247,0,0,0-4.1-4.3c-.1,0,.1-.1.1,0a13.426,13.426,0,0,1,6.4,9.8C274,1159.8,273.7,1159.8,273.7,1159.7Z"/><path d="M262.1,1144.8c9.4,9.8,18.4,7.5,17.9,6.6-5.6-8.8-16.1-9.5-16.1-9.5Z"/><path d="M264.5,1143.7c-.1,0,.1-.1.1-.1a27.1,27.1,0,0,1,4.2,2c.1.1-.1.2-.2.1C267.3,1145,265.9,1144.3,264.5,1143.7Z"/><path d="M264.2,1144.4a.349.349,0,0,1,.2-.1,30.915,30.915,0,0,0,7.7,5c.1.1-.1.2-.2.1A20.94,20.94,0,0,1,264.2,1144.4Z"/><g class="c"><path d="M262.1,1144.8l1.7-2.9a23.572,23.572,0,0,1,9,2.9h0s-6.4-2.4-7.7-2,5,3,6.7,4.2c-4-1.8-6.4-1.7-2.7.6,6.3,4,.1,1.2-3.8-1.9-2.6-2.1,3.6,7.1,13.3,5.6a14.314,14.314,0,0,0-5-6h.1a19.513,19.513,0,0,1,6.3,6.2C280.5,1152.3,271.5,1154.6,262.1,1144.8Z"/></g><path d="M277.8,1150.7a24.345,24.345,0,0,0-4-4.5,15.5,15.5,0,0,0-5.5-2.6c-.1,0,0-.1.1-.1a14.5,14.5,0,0,1,9.7,7.1C278.2,1150.8,277.9,1150.8,277.8,1150.7Z"/><path d="M261.4,1141.6c13,5.1,20.1-.6,19.2-1.1-9-5.7-18.9-2.2-18.9-2.2Z"/><path d="M263,1139.6c-.1,0,0-.1.1-.1a36.492,36.492,0,0,1,4.7.1c.1,0-.1.2-.2.2C266.1,1139.7,264.6,1139.7,263,1139.6Z"/><path d="M263.1,1140.4c-.1,0,.1-.1.1-.1a35.4,35.4,0,0,0,9.2,1.5c.1,0,0,.2-.1.2A23.792,23.792,0,0,1,263.1,1140.4Z"/><g class="c"><path d="M261.4,1141.6l.3-3.3a23.612,23.612,0,0,1,9.4-1h0s-6.9.4-7.9,1.3,5.9.7,8,1.1c-4.4,0-6.6,1-2.2,1.6,7.6,1.1.7,1.1-4.3-.2-3.3-.9,6.5,5,14.6-.2a14.991,14.991,0,0,0-7.3-3.4h.1a22.056,22.056,0,0,1,8.5,3.1C281.4,1141.1,274.3,1146.8,261.4,1141.6Z"/></g><path d="M278.3,1140.7a28.142,28.142,0,0,0-5.6-2.5,16.126,16.126,0,0,0-6.2-.2c-.1,0,0-.1,0-.1a15.812,15.812,0,0,1,12,2.5C278.7,1140.6,278.4,1140.8,278.3,1140.7Z"/><path d="M260.6,1139.1c13.9-1.8,16.9-10.1,15.8-10.2a22.377,22.377,0,0,0-17.4,7.2Z"/><path d="M260.9,1136.6c-.1,0-.1-.1,0-.2,1.3-.8,2.7-1.5,4.1-2.2.1-.1.1.2,0,.2C263.7,1135.2,262.3,1135.9,260.9,1136.6Z"/><path d="M261.4,1137.2c-.1,0,0-.1,0-.1a32.39,32.39,0,0,0,8.7-3.2c.1-.1.1.2,0,.2A22.144,22.144,0,0,1,261.4,1137.2Z"/><g class="c"><path d="M260.6,1139.1l-1.6-2.9a23.267,23.267,0,0,1,7.5-5.4h0s-5.7,3.6-6.1,4.9c-.3,1.2,5.4-2.3,7.4-2.9-3.8,2.1-5.1,4-1,2.5,7.1-2.7,1.2.6-3.8,1.9-3.3.9,8.4,1.2,12.3-7.2a15.41,15.41,0,0,0-8.2.6l.1-.1a22.349,22.349,0,0,1,9-1.5C277.5,1128.9,274.6,1137.2,260.6,1139.1Z"/></g><path d="M274.6,1130.2a26.08,26.08,0,0,0-6.2.6,13.958,13.958,0,0,0-5.4,2.8c-.1,0-.1-.1,0-.1a15.4,15.4,0,0,1,11.7-3.6C274.9,1129.9,274.8,1130.2,274.6,1130.2Z"/><path d="M257.8,1135.7c12.4-6.3,12-15,11-14.7a21.129,21.129,0,0,0-13.6,12.5Z"/><path d="M257.2,1133.3c-.1.1-.1-.1-.1-.2.9-1.2,2-2.3,3-3.4.1-.1.1.2.1.2C259.2,1131,258.2,1132.2,257.2,1133.3Z"/><path d="M257.8,1133.7c-.1,0-.1-.1,0-.2a32.761,32.761,0,0,0,7-5.8c.1-.1.1.2.1.2A22.356,22.356,0,0,1,257.8,1133.7Z"/><g class="c"><path d="M257.8,1135.7l-2.6-2.2a20.91,20.91,0,0,1,5-7.5h0s-4,5.3-3.8,6.5c.1,1.3,4.3-3.9,5.9-5.1-2.8,3.2-3.3,5.5,0,2.6,5.6-4.8,1.3.2-2.9,3-2.8,1.9,8.3-1.6,8.8-10.8a14.883,14.883,0,0,0-7.4,3.2v-.1a21.948,21.948,0,0,1,7.9-4.3C269.8,1120.7,270.2,1129.4,257.8,1135.7Z"/></g><path d="M267.6,1122.8a23.736,23.736,0,0,0-5.6,2.6,13.954,13.954,0,0,0-4,4.4c0,.1-.1,0-.1-.1a14.518,14.518,0,0,1,9.6-7.2C267.7,1122.4,267.7,1122.7,267.6,1122.8Z"/><path d="M253.7,1133.7c8.8-10.2,4.9-18.2,4.1-17.5a19.681,19.681,0,0,0-7.4,16.4Z"/><path d="M252.1,1131.7c0,.1-.1-.1-.1-.1a29.551,29.551,0,0,1,1.4-4.2c.1-.1.2.1.2.2C253,1128.9,252.6,1130.3,252.1,1131.7Z"/><path d="M252.9,1131.8c0,.1-.1-.1-.1-.1a25.6,25.6,0,0,0,4-7.9c0-.1.2.1.2.2A20.231,20.231,0,0,1,252.9,1131.8Z"/><g class="c"><path d="M253.7,1133.7l-3.3-1.1a19.337,19.337,0,0,1,1.6-8.7h0s-1.5,6.3-.8,7.4,2.3-5.1,3.3-6.8c-1.2,3.9-.8,6.2,1.1,2.4,3.2-6.5,1.3-.3-1.4,3.8-1.8,2.8,7-4.5,3.7-13.1a14.114,14.114,0,0,0-5.5,5.6v-.1a18.775,18.775,0,0,1,5.5-6.8C258.6,1115.5,262.5,1123.4,253.7,1133.7Z"/></g><path d="M257.4,1118.2a24.342,24.342,0,0,0-4.1,4.4,12.491,12.491,0,0,0-1.9,5.5c0,.1-.1,0-.1-.1.2-4.1,2.5-7.6,5.9-10.1C257.4,1117.9,257.5,1118.2,257.4,1118.2Z"/><path d="M257.2,1152.8c5.3,12.2,14.6,12.8,14.4,11.9-2.1-10-11.8-14-11.8-14Z"/><path d="M259.9,1152.5c-.1-.1.1-.1.2,0a33.413,33.413,0,0,1,3.3,3.2c.1.1-.2.1-.3,0C262,1154.6,261,1153.5,259.9,1152.5Z"/><path d="M259.4,1153c0-.1.1-.1.2,0a31.007,31.007,0,0,0,5.4,7.1c.1.1-.2.1-.2.1A19.821,19.821,0,0,1,259.4,1153Z"/><g class="f"><path d="M257.2,1152.8l2.7-2.2a23.421,23.421,0,0,1,7.4,5.5h0s-5.2-4.3-6.5-4.3c-1.4,0,3.7,4.4,4.8,6-3.1-2.9-5.4-3.7-2.8-.3,4.5,5.8-.3,1.2-2.9-3-1.7-2.8.8,7.9,10.5,9.4a13.19,13.19,0,0,0-2.6-7.2.1.1,0,0,1,.1.1,17.733,17.733,0,0,1,3.7,7.8C271.9,1165.6,262.5,1164.9,257.2,1152.8Z"/></g><path d="M269.9,1163.3a23.071,23.071,0,0,0-2.1-5.5,14.018,14.018,0,0,0-4.2-4.2c-.1,0,.1-.1.1,0a13.789,13.789,0,0,1,6.6,9.7C270.2,1163.4,269.9,1163.4,269.9,1163.3Z"/><path d="M238,1142.4s-11.6-1.8-18.3,3.8c-1,1,8.7,5.1,19.4.7Z"/><path d="M236.8,1143.8a16.76,16.76,0,0,0-5,0c-.1,0,0,.1.1.1a40.064,40.064,0,0,1,4.9,0C237,1143.9,236.9,1143.8,236.8,1143.8Z"/><path d="M237.1,1144.3a22.672,22.672,0,0,0-8.2,1.2c-.1,0,.1.1.1.1,2.7-.5,5.3-1.3,8.1-1.3C237.3,1144.4,237.2,1144.3,237.1,1144.3Z"/><path d="M237.4,1145.3c.1,0-.1-.1-.1-.1-2.7,1.4-6.1,1.9-9.2,2.2-.1,0,0,.1.1.1C231.1,1147.4,234.9,1146.8,237.4,1145.3Z"/><g class="f"><path d="M239.1,1146.8l-1.1-4.5a33.543,33.543,0,0,0-9.4.1c.8-.1,5.7-.4,6.7.3,1.1.8-5.3,1.3-5.3,1.3s3.2-.1,3.6,0c.3.2-5.9,1.8-5.9,1.8s6.9-1.1,7.3-.5-7.2,2.9-11.9,1.6c-3.3-1-.1-2.8,2.9-3.9.1,0,.1-.1.2-.1a15.474,15.474,0,0,0-6.4,3.2C218.8,1147.2,228.4,1151.3,239.1,1146.8Z"/></g><path d="M221.9,1145.8a23.4,23.4,0,0,1,5.5-2.7,14.4,14.4,0,0,1,6.2-.4c.1,0,0-.1,0-.1a15.321,15.321,0,0,0-11.9,3C221.5,1145.7,221.8,1145.9,221.9,1145.8Z"/><path d="M239,1147.6s-10.9,1-15.9,9.1c-1,1.3,8.6,3.1,17-4.7Z"/><path d="M229.6,1153.5a35.635,35.635,0,0,1,8.4-4.5.1.1,0,0,0-.1-.1,28.314,28.314,0,0,0-8.4,4.5C229.4,1153.4,229.6,1153.5,229.6,1153.5Z"/><path d="M238.2,1150.9c.1,0-.1-.1-.1-.1a27.3,27.3,0,0,1-4.8,2.5c-.1,0,.1.2.2.2A18.1,18.1,0,0,0,238.2,1150.9Z"/><path d="M238.5,1151.6h0c-1.4.8-2.7,1.7-4.2,2.4-1.6.8-3.4,1.4-5.1,2.1-.1,0,.1.2.1.1A25.7,25.7,0,0,0,238.5,1151.6Z"/><g class="f"><path d="M240.1,1152l-1.1-4.3a26.026,26.026,0,0,0-11.5,4.4h0s4.5-2,5.3-1.7-2.6,2.1-4,3.8c4.4-2.9,6.5-3.7,7.1-3.1.8.7-3.5,2.7-3.5,2.7s2.5-.7,2.6-.4c.1.4-4.5,2.8-8.3,3.4-3.7.6-2.3-1.6-.6-3.4a1.755,1.755,0,0,0,.4-.5,13.96,13.96,0,0,0-3.3,3.9C222.1,1158,231.6,1159.8,240.1,1152Z"/></g><path d="M224.6,1156.1a19,19,0,0,1,3.7-3.8,13.2,13.2,0,0,1,5-2.2c.1,0,0-.1-.1-.1a12.954,12.954,0,0,0-8.8,6C224.3,1156.1,224.5,1156.2,224.6,1156.1Z"/><path d="M253.3,1155s.8,10.2,9.4,15c1.4,1,3.5-7.9-4.7-15.9Z"/><path d="M259.4,1163.9a31.741,31.741,0,0,1-4.7-7.9.1.1,0,0,0-.1.1,23.675,23.675,0,0,0,4.7,7.9Z"/><path d="M256.8,1155.9c0-.1-.1.1-.1.1a29.121,29.121,0,0,1,2.6,4.5c0,.1.2-.1.2-.2A20.02,20.02,0,0,0,256.8,1155.9Z"/><path d="M257.6,1155.5h0c.8,1.3,1.8,2.6,2.5,3.9a41.012,41.012,0,0,1,2.1,4.8c0,.1.2-.1.1-.1A25.005,25.005,0,0,0,257.6,1155.5Z"/><g class="f"><path d="M258,1154.1l-4.7.9a22.4,22.4,0,0,0,4.5,10.9h0s-2-4.2-1.7-5,2.2,2.5,3.9,3.9c-3-4.2-3.8-6.1-3.2-6.7.8-.8,2.8,3.4,2.8,3.4s-.7-2.3-.3-2.4,2.9,4.3,3.5,7.8-1.8,2.1-3.7.4a.914.914,0,0,0-.5-.3,16.657,16.657,0,0,0,4.1,3.2C264.1,1171,266.2,1162.1,258,1154.1Z"/></g><path d="M262.1,1168.6a16.788,16.788,0,0,1-4-3.5,11.936,11.936,0,0,1-2.2-4.7c0-.1-.1,0-.1.1a12.3,12.3,0,0,0,6.2,8.4A.192.192,0,0,0,262.1,1168.6Z"/><path d="M261,1138.1s8.4-6.5,18.1-4.1c1.7.3-3.7,7.8-15.6,7.9Z"/><path d="M272,1136a37.252,37.252,0,0,0-9.3,2.3v-.1a29.671,29.671,0,0,1,9.3-2.4C272.1,1135.9,272.1,1136,272,1136Z"/><path d="M264.1,1139.9c-.1,0-.1-.1,0-.2a24.372,24.372,0,0,0,5.3-1.4c.1,0,.1.2,0,.2A18.839,18.839,0,0,1,264.1,1139.9Z"/><path d="M264.4,1140.6c-.1,0-.1-.1,0,0,1.6-.4,3.2-.6,4.8-1,1.8-.5,3.5-1.3,5.2-1.9.1,0,.1.2,0,.2A31.578,31.578,0,0,1,264.4,1140.6Z"/><g class="f"><path d="M263.5,1141.9l-2.5-3.8a25.056,25.056,0,0,1,11.5-4.5h0s-4.7,1.6-5,2.3,3.4-.3,5.7,0c-5.3.8-7.3,1.7-7.4,2.5,0,1.1,4.5-.5,4.5-.5s-2.3,1.1-2.1,1.5c.2.3,5.3-1,8.4-3s.4-2.7-2.2-2.8a3.537,3.537,0,0,1-.6-.1,19.425,19.425,0,0,1,5.3.5C280.8,1134.3,275.4,1141.8,263.5,1141.9Z"/></g><path d="M277.6,1134.6a25.059,25.059,0,0,0-5.5-.3,13.851,13.851,0,0,0-5.2,1.7c-.1,0,0-.1,0-.1a13.636,13.636,0,0,1,10.8-1.6A.192.192,0,0,1,277.6,1134.6Z"/><path d="M241.5,1151.9s-10.3,4.4-11.1,14.6c-.2.9,8,1.5,15.1-12.4Z"/><path d="M239.7,1154.5a13.67,13.67,0,0,0-5.1,6.6c0,.1.1.1.2,0a15.847,15.847,0,0,1,5-6.5S239.8,1154.4,239.7,1154.5Z"/><path d="M240.9,1154.6c-.6.5-1.1,1.1-1.7,1.7-.1.1,0,.2.1.1.6-.6,1.1-1.2,1.6-1.8C241,1154.6,241,1154.5,240.9,1154.6Z"/><path d="M242,1155.5c-.9,2.6-3.6,4.8-5.9,6.5-.1.1-.1.3,0,.2,2.3-1.6,5.3-4.1,5.9-6.7C242.1,1155.4,242,1155.4,242,1155.5Z"/><path d="M242.9,1155.8c-.7,1.1-1.1,2.3-1.9,3.4a17.178,17.178,0,0,1-2.9,3.1c-.1.1-.1.3.1.2a22.741,22.741,0,0,0,3-3.2,16.157,16.157,0,0,0,1.7-3.5Z"/><g class="f"><path d="M241.5,1151.9a22.05,22.05,0,0,0-7.9,6.4h0s3.4-3.2,4.6-3.5c1-.2-1.7,2.1-3.1,4.9,0,0,2.9-4,3.9-4.1s-.9,1.9-.9,1.9,1.9-2.1,2.9-1.8-1.9,4.3-4.9,6.4c1.8-.7,4.3-3.5,4.7-3.4.4.2-4,5.6-8.3,7.1-2.8.9-1.5-3.5.1-6.1h-.1a14.813,14.813,0,0,0-2.2,6.9c-.2.9,8,1.5,15.1-12.4Z"/></g><path d="M231.3,1165.3a18.177,18.177,0,0,1,2-5.5,12.954,12.954,0,0,1,4.1-4.3c.1,0-.1-.1-.1,0a13.669,13.669,0,0,0-6.3,9.9C230.9,1165.5,231.2,1165.4,231.3,1165.3Z"/><path d="M237.9,1142.4s-10.9.4-16.3-8c-.6-.7,6.1-4.5,18.7,4.4Z"/><path d="M235.2,1141a14.645,14.645,0,0,1-7.5-3.6c-.1-.1.1-.1.1-.1a16.538,16.538,0,0,0,7.3,3.5C235.2,1140.9,235.3,1141,235.2,1141Z"/><path d="M236.1,1140.4a14.262,14.262,0,0,1-2.2-.8c-.2-.1-.1-.2.1-.1l2.1.9C236.2,1140.4,236.2,1140.5,236.1,1140.4Z"/><path d="M236.6,1139.2c-2-1.9-5.4-2.7-8-3.1-.1,0-.2-.2-.1-.2,2.7.4,6.4,1.3,8.1,3.3C236.8,1139.3,236.7,1139.3,236.6,1139.2Z"/><path d="M237.3,1138.5a35.3,35.3,0,0,0-3.2-2.1,17.391,17.391,0,0,0-4-1.5c-.1,0-.2-.2,0-.2a19.314,19.314,0,0,1,4,1.5,26.17,26.17,0,0,1,3.2,2.3C237.4,1138.5,237.3,1138.6,237.3,1138.5Z"/><g class="f"><path d="M237.9,1142.4a22.131,22.131,0,0,1-9.7-2.2h0s4.4,1.4,5.5,1.1c.9-.2-2.4-1.1-4.9-3,0,0,4.4,2.2,5.3,2,.9-.3-1.6-1.3-1.6-1.3s2.6,1.1,3.3.4-3.6-2.9-7.1-3.5c1.9-.1,5.4,1.3,5.6,1,.3-.3-6-3.2-10.4-2.7-2.8.4.3,3.6,2.9,5.2h-.1a16.158,16.158,0,0,1-5.1-5c-.6-.7,6.1-4.5,18.7,4.4Z"/></g><path d="M222.9,1135.1a19.986,19.986,0,0,0,4.3,3.9,15.858,15.858,0,0,0,5.5,2c.1,0,0,.1-.1.1a14.268,14.268,0,0,1-10-5.9C222.5,1135.2,222.8,1135.1,222.9,1135.1Z"/><path d="M245.1,1154.8s-6.1,9.4-3,17.3c.6,1.2,8.3-5.7,7.8-16.5Z"/><path d="M246.1,1156.4a11.6,11.6,0,0,0-1.8,4.3c0,.1.2,0,.2-.1a32.511,32.511,0,0,1,1.8-4.3S246.1,1156.3,246.1,1156.4Z"/><path d="M246.6,1156.3a19.81,19.81,0,0,0-1.9,7.6c0,.1.2,0,.2-.1.5-2.5.7-5.1,1.8-7.5C246.8,1156.2,246.7,1156.2,246.6,1156.3Z"/><path d="M247.7,1156.4c0-.1-.1,0-.1.1a20.445,20.445,0,0,1-1.2,8.8c0,.1.1,0,.1,0C247.5,1162.7,248.4,1159.1,247.7,1156.4Z"/><g class="f"><path d="M249.9,1155.5l-4.8-.7a29.928,29.928,0,0,0-3.4,8.2c.2-.7,1.7-5.1,2.8-5.7,1.2-.7-.7,5.1-.7,5.1a20.125,20.125,0,0,1,1.4-3.1c.3-.2-.5,5.8-.5,5.8s1.5-6.4,2.2-6.5.2,7.3-2.8,10.9c-2.2,2.5-2.8-.9-2.8-4v-.2a14.506,14.506,0,0,0,.8,6.8C242.7,1173.3,250.4,1166.4,249.9,1155.5Z"/></g><path d="M242.5,1170.1a18.782,18.782,0,0,1-.6-5.8,15.481,15.481,0,0,1,1.8-5.5c0-.1-.1,0-.1,0a12.55,12.55,0,0,0-1.4,11.4A.192.192,0,0,0,242.5,1170.1Z"/><path d="M263.1,1146.4s11.5,2.5,15.3,10.1c.5,1.3-10.2,1.6-18.1-6.4Z"/><path d="M263.6,1148.2a15.2,15.2,0,0,1,4.6,1.8c.1.1-.1.1-.2.1a41.764,41.764,0,0,0-4.4-1.9C263.4,1148.2,263.5,1148.1,263.6,1148.2Z"/><path d="M263.1,1148.5a21.961,21.961,0,0,1,7.1,4.1c.1.1-.1.1-.2.1a30.323,30.323,0,0,0-6.9-4.2Z"/><path d="M262.5,1149.3c0-.1.1-.1.1,0,1.9,2.3,4.9,4,7.6,5.3.1.1,0,.1-.1.1C267.4,1153.5,264.1,1151.6,262.5,1149.3Z"/><g class="f"><path d="M260.3,1150.1l2.8-3.7a34.853,34.853,0,0,1,8.7,3.5c-.7-.3-5.1-2.4-6.3-2.1-1.3.3,4.4,3.1,4.4,3.1a28.452,28.452,0,0,0-3.3-1.3c-.4,0,4.7,3.7,4.7,3.7s-5.9-3.5-6.5-3.1,5.4,5.2,10.3,5.8c3.5.3,1.3-2.5-1.1-4.6-.1-.1-.1-.1-.2-.1a14.757,14.757,0,0,1,4.6,5.3C278.9,1157.8,268.2,1158.1,260.3,1150.1Z"/></g><path d="M276.5,1155.4a24.345,24.345,0,0,0-4-4.5,15.5,15.5,0,0,0-5.5-2.6c-.1,0,0-.1.1-.1a14.45,14.45,0,0,1,9.7,7C276.9,1155.4,276.6,1155.5,276.5,1155.4Z"/><path d="M239.7,1137.5s-11.1-4.5-13.4-12.9c-.2-1.4,10.6.2,17,9.6Z"/><path d="M239.6,1135.6a14.544,14.544,0,0,1-4.3-2.6c-.1-.1.1-.1.2,0,1.3.9,2.7,1.7,4.1,2.6Z"/><path d="M240.1,1135.4a21.7,21.7,0,0,1-6.3-5.3c-.1-.1.1-.1.2,0a51.505,51.505,0,0,0,6.1,5.3C240.3,1135.3,240.2,1135.4,240.1,1135.4Z"/><path d="M240.9,1134.7c0,.1-.1,0-.1,0-1.4-2.6-4.1-4.9-6.6-6.7-.1-.1.1-.1.1-.1C236.8,1129.5,239.8,1132,240.9,1134.7Z"/><g class="f"><path d="M243.3,1134.2l-3.6,3.3a30.852,30.852,0,0,1-8-5.1c.6.4,4.6,3.4,5.9,3.3,1.4-.1-3.8-3.9-3.8-3.9a35.387,35.387,0,0,0,3.1,1.9c.4,0-4-4.6-4-4.6s5.2,4.6,5.9,4.3-4.4-6.2-9.2-7.7c-3.5-.9-1.8,2.3.2,4.9.1.1.1.1.1.2a15.686,15.686,0,0,1-3.6-6.1C226.1,1123.2,236.9,1124.8,243.3,1134.2Z"/></g><path d="M228,1126a27.472,27.472,0,0,0,3.1,5.2,16.387,16.387,0,0,0,5,3.6c.1,0,0,.1-.1.1a14.327,14.327,0,0,1-8.4-8.8C227.6,1125.9,227.9,1125.9,228,1126Z"/><path d="M253.4,1155.2c5.7,12-.3,18.7-.9,17.9-6.3-8.4-2.6-17.6-2.6-17.6Z"/><path d="M251.3,1156.8c0-.1-.2,0-.2.1a21.308,21.308,0,0,0,.2,4.4c0,.1.2-.1.2-.1C251.5,1159.7,251.4,1158.3,251.3,1156.8Z"/><path d="M252.1,1156.9c0-.1-.1.1-.1.1a27.965,27.965,0,0,1,1.7,8.6c0,.1.2,0,.2-.1A18.241,18.241,0,0,0,252.1,1156.9Z"/><g class="f"><path d="M253.4,1155.2l-3.5.3a19.792,19.792,0,0,0-.9,8.8h0s.3-6.4,1.2-7.4c.9-.9.8,5.5,1.3,7.4-.1-4.1,1-6.2,1.7-2.1,1.3,7,1.2.6-.3-4-1-3.1,5.5,6-.1,13.6a13.548,13.548,0,0,1-3.8-6.8v.1a17.9,17.9,0,0,0,3.4,7.9C253.1,1174,259.1,1167.3,253.4,1155.2Z"/></g><path d="M252.7,1171.1a21.453,21.453,0,0,1-2.7-5.2,12.607,12.607,0,0,1-.3-5.8c0-.1-.1,0-.1,0a13.186,13.186,0,0,0,2.9,11.2C252.6,1171.4,252.8,1171.1,252.7,1171.1Z"/><path d="M261.5,1145.6c12.6,6,20.1.7,19.2.1-8.6-6.3-18.7-3.4-18.7-3.4Z"/><path d="M263.3,1143.7c-.1,0,0-.1.1-.1a35.719,35.719,0,0,1,4.7.4c.1,0-.1.2-.2.2C266.4,1144,264.8,1143.9,263.3,1143.7Z"/><path d="M263.3,1144.5c-.1,0,.1-.1.1-.1a34.485,34.485,0,0,0,9.1,2.1c.1,0-.1.2-.1.2A25.331,25.331,0,0,1,263.3,1144.5Z"/><g class="f"><path d="M261.5,1145.6l.5-3.3a24.675,24.675,0,0,1,9.5-.4h0s-6.9-.1-8,.8c-1,.8,5.9,1.1,7.9,1.6-4.4-.3-6.7.6-2.3,1.5,7.5,1.6.6,1.1-4.3-.5-3.3-1.1,6.1,5.4,14.5.7a15.554,15.554,0,0,0-7-3.9h.1a20.6,20.6,0,0,1,8.3,3.6C281.6,1146.3,274,1151.6,261.5,1145.6Z"/></g><path d="M278.5,1145.8a25.1,25.1,0,0,0-5.4-2.8,15.877,15.877,0,0,0-6.1-.6c-.1,0,0-.1,0-.1a15.561,15.561,0,0,1,11.8,3.3C278.8,1145.7,278.6,1145.9,278.5,1145.8Z"/><path d="M252,1133.5c5.1-12.2-1.2-18.7-1.7-17.9-5.9,8.6-1.8,17.7-1.8,17.7Z"/><path d="M249.8,1132.1c0,.1-.2,0-.2-.1a32.293,32.293,0,0,1,0-4.4c0-.1.2,0,.2.1Z"/><path d="M250.6,1132c0,.1-.1-.1-.1-.1a25.883,25.883,0,0,0,1.3-8.7c0-.1.2,0,.2.1A17.394,17.394,0,0,1,250.6,1132Z"/><g class="f"><path d="M252,1133.5l-3.5-.1a19.737,19.737,0,0,1-1.3-8.8h0s.6,6.4,1.6,7.3.6-5.5,1-7.5c.1,4.1,1.3,6.1,1.8,2,1-7.1,1.1-.7-.1,4-.8,3.1,5.2-6.2-.7-13.6a13.8,13.8,0,0,0-3.5,6.9.1.1,0,0,0-.1-.1,18.417,18.417,0,0,1,3-8C250.8,1114.8,257.1,1121.3,252,1133.5Z"/></g><path d="M250.6,1117.8a21.4,21.4,0,0,0-2.5,5.3,12.628,12.628,0,0,0,0,5.8c0,.1-.1,0-.1,0a12.819,12.819,0,0,1,2.4-11.3C250.4,1117.4,250.6,1117.7,250.6,1117.8Z"/><path d="M248.1,1133.4c-1.9-13-10.8-15.8-10.8-14.8-.7,10.2,7.6,16.3,7.6,16.3Z"/><path d="M245.4,1133.1c0,.1-.1,0-.2,0a25,25,0,0,1-2.3-3.9c-.1-.1.2-.1.3,0C243.9,1130.6,244.7,1131.8,245.4,1133.1Z"/><path d="M246.1,1132.7c0,.1-.1,0-.2,0a25.482,25.482,0,0,0-3.4-8.2c-.1-.1.2-.1.2,0A19.65,19.65,0,0,1,246.1,1132.7Z"/><g class="f"><path d="M248.1,1133.4l-3.2,1.5a21.365,21.365,0,0,1-5.7-7.1h0s3.9,5.4,5.2,5.7-2.4-5.1-3-7c2.2,3.5,4.3,4.8,2.6.9-2.8-6.6.6-1.1,2,3.6.9,3.1,1.3-7.8-7.7-11.6a12.5,12.5,0,0,0,.6,7.6l-.1-.1a18.308,18.308,0,0,1-1.5-8.4C237.3,1117.6,246.2,1120.4,248.1,1133.4Z"/></g><path d="M238.7,1120.3a22.421,22.421,0,0,0,.6,5.8,13.244,13.244,0,0,0,3,5.1c0,.1-.1.1-.1,0a13.21,13.21,0,0,1-3.8-10.9C238.3,1120.1,238.6,1120.2,238.7,1120.3Z"/><path d="M256.4,1134.8c11-8.4,8.2-17.1,7.3-16.6a18.869,18.869,0,0,0-10.6,14.8Z"/><path d="M255.1,1132.5c0,.1-.1-.1-.1-.1a24.578,24.578,0,0,1,2.2-3.9c.1-.1.2.1.1.2C256.5,1129.9,255.8,1131.2,255.1,1132.5Z"/><path d="M255.9,1132.8a.1.1,0,0,1-.1-.1,27.453,27.453,0,0,0,5.6-7.1c.1-.1.2.1.2.2A19.188,19.188,0,0,1,255.9,1132.8Z"/><g class="f"><path d="M256.4,1134.8l-3.3-1.8a19.66,19.66,0,0,1,3.1-8.4h0s-2.6,6-2.1,7.2,3.3-4.6,4.7-6.2c-2,3.7-1.9,6,.7,2.6,4.5-5.8,1.4-.1-2.1,3.5-2.4,2.4,8.1-3.1,6.1-12.3a14.317,14.317,0,0,0-6.8,4.5v-.1a20.069,20.069,0,0,1,6.9-5.7C264.6,1117.7,267.5,1126.4,256.4,1134.8Z"/></g><path d="M262.9,1120.2a19.906,19.906,0,0,0-5,3.6,11.888,11.888,0,0,0-2.9,5.1c0,.1-.1,0-.1-.1.9-4,3.9-7.1,7.9-8.9C262.9,1119.8,263,1120.1,262.9,1120.2Z"/><path d="M260,1137.8c13.1-4.9,13.8-13.6,12.8-13.4a21.579,21.579,0,0,0-15.1,10.9Z"/><path d="M259.7,1135.4c-.1.1-.1-.1,0-.2,1.1-1.1,2.2-2.1,3.4-3.1.1-.1.1.2,0,.2C262,1133.3,260.8,1134.4,259.7,1135.4Z"/><path d="M260.3,1135.8c-.1,0-.1-.1,0-.2a30.329,30.329,0,0,0,7.7-5.1c.1-.1.1.2.1.2A21.971,21.971,0,0,1,260.3,1135.8Z"/><g class="f"><path d="M260,1137.8l-2.3-2.5a22.085,22.085,0,0,1,5.9-6.9h0s-4.6,4.8-4.6,6.1,4.7-3.4,6.5-4.5c-3.1,2.9-3.9,5.1-.3,2.6,6.2-4.2,1.3.3-3.2,2.7-3,1.6,8.4-.7,10.1-9.8a15.147,15.147,0,0,0-7.8,2.4.1.1,0,0,1,.1-.1,20.982,20.982,0,0,1,8.3-3.4C273.8,1124.2,273.1,1132.9,260,1137.8Z"/></g><path d="M271.3,1126.1a25.678,25.678,0,0,0-5.9,2,15.476,15.476,0,0,0-4.5,3.9c0,.1-.1-.1,0-.1a14.641,14.641,0,0,1,10.4-6.1C271.5,1125.7,271.5,1126,271.3,1126.1Z"/><path d="M248.2,1130.6s.7-1.8,1.2-.4c.2.4.1-1,1-.2.2.1.4-.7.8.2.2.2.7-.8,1-.6.4.2.1,1.1.1,1.1s1.8-1,1.2.1c.6-.5.9-.8,1.1.1.2.7,1.3-1.1,1.3.3,0,.4,1.3-.9,1,.3-.1.3,1.4-.7,1.1.4,0,.4,1.5-.8,1,.4-.2.3,1.9-.9,1,.6-.1.2,2.1-.7,1.1.7-.3.3,3.2.2.8,1.1,1.2.2,1.5.3.6.7,1-.1.9.4.4.9.7-.2,1,.3.8.7.9-.4,1.1.1.4.8,1.5-.1,1.7.1.9.6,1.4.1,1.2,1.1.4,1.4,1.4.1,1.4.9.6,1.1,1.1.7,1.2,1.3.3,1.3,1.1.6.6,1-.1,1.1.3.2-.4.8-.4.8s2.1.2.3.9c.9.4.8.6-.3,1.1,1,.3.5.8-.4,1,.7.8.1.9-.4.5.6,1.2.6,1.8-.2,1.5.5.9.1.8-.6,1.1.7.5-.1.8-.6.9.9.6.1.9-.8.9.4,1,.1,1.5-.7.7,0,1.3-.2,1.3-.7.7.2.7-.1,1.4-1.1.9.3,1-.3,1.1-.6.2-.3,1.1-.2,1.4-.7.4.2,1.2-.8,1.4-1.8.7.3,1.4-.3,1.3-1.2.3,0,1-.7.6-1.4.2,0,1-.4,1.5-1.3.8,0,.9-.6.5-1-.1-.6,1.2-.7,1-1,.1-.4,1.2-1.3,1.1-1.5.2-.7,1-1,1-1.4.1-.8,1.3-.9.2-1.1-.5-.5,1.1-1.1.4-1.1-.2-1,1-1,.4-1-.4-.7,1.1-1.1.5-1.3-.5-.9.9-1.4.8-.8-.7-1.3.9-1.5.2-1.5-.5-.5.7-1.1-.1-.7-.7-.6.4-.5-.2-.5-.2-.9.4-1.3.1-.6-.8-2,.1-2-.6-1.1-1.1-1.3-.3-1.3-.6-.6-1-1.1.3-1.3-.2-.5-1.3-1,.7-1.4-.4-.4-1.2-1.5-.4-.9-.6-.2-1.1-1.2.3-1.8-1.1-.4-1.1-1.1-.8-.6-1,.1-1-1.6-1.3-1.3-1.2-.4-1.6-1.3-.6-.6-1.1.2-1.4-1.2.2-.7-.3.1-.9-1.2-1.1-.5-1.2.3-1.3-1-.5-.1-1,.6-1.1-1.4-.4-.6-.8.2-.8-1.6-1.3-.9-1.6.2-1.1-1.2-1.2-.3-1.3.6-1-.5-1.6.3-1.4.9-.8-.1-1.1.1-1.1,1-.8-.7-1.3,0-1.1,1-.8-.6-1.1,0-1.1,1.4-.8-.3-1,0-1,.8-.5-.3-1.1.3-1.1,1.4-.6-.1-1.1.4-.9,1-.4,0-1.3.5-1.3.8-.4C247.4,1129.3,248.1,1129.6,248.2,1130.6Z"/><path d="M248.5,1131.6s.6-1.6,1.1-.4c.1.4.1-.9.9-.2.2.1.4-.6.7.1.2.2.6-.7.9-.6.3.2.1,1,.1,1s1.7-.9,1.1.1c.5-.5.8-.7,1,.1.2.6,1.2-1,1.2.3,0,.4,1.2-.9.9.3-.1.3,1.3-.6,1,.4,0,.3,1.4-.7.9.4-.2.3,1.8-.8,1,.5-.1.2,2-.6,1,.6-.3.3,3,.2.7,1,1.1.2,1.4.3.6.7,1-.1.8.4.4.9.7-.2.9.3.7.6.8-.4,1,.1.3.8,1.4-.1,1.6.1.8.6,1.2.1,1.1,1,.4,1.3,1.3.1,1.3.8.5,1,1,.7,1.1,1.2.3,1.2,1,.6.5.9-.1,1,.2.2-.4.7-.4.7s1.9.2.3.8c.8.4.7.6-.3,1.1,1,.3.4.8-.4.9.6.8.1.8-.4.5.5,1.1.5,1.7-.2,1.4.4.8.1.7-.6,1,.6.5-.1.8-.5.8.8.5.1.8-.8.8.4.9.1,1.4-.6.6,0,1.2-.2,1.2-.7.7.2.7-.1,1.3-1,.9.3.9-.2,1-.6.2-.2,1-.2,1.3-.7.4.2,1.1-.7,1.3-1.6.6.3,1.3-.3,1.2-1.1.3,0,.9-.7.6-1.3.1,0,.9-.4,1.4-1.2.8,0,.9-.5.5-.9-.1-.5,1.1-.6.9-.9.1-.3,1.1-1.2,1-1.4.1-.6.9-.9.9-1.3.1-.7,1.2-.8.2-1-.5-.4,1.1-1,.3-1-.2-1,.9-1,.4-.9-.4-.7,1-1,.5-1.2-.5-.8.8-1.3.7-.7-.6-1.2.9-1.4.2-1.3-.5-.5.7-1-.1-.6-.6-.5.4-.4-.2-.4-.2-.9.4-1.2.1-.6-.7-1.9,0-1.8-.6-1-1-1.2-.3-1.2-.6-.6-1-1,.3-1.2-.2-.4-1.2-.9.6-1.3-.4-.3-1.1-1.4-.3-.9-.6-.2-1-1.1.2-1.6-1-.3-1.1-1-.7-.5-.9.1-.9-1.5-1.2-1.2-1.1-.4-1.5-1.2-.6-.6-1,.2-1.3-1.1.1-.7-.3.1-.8-1.1-1-.5-1.1.2-1.2-.9-.4-.1-.9.6-1-1.3-.4-.5-.7.2-.7-1.4-1.2-.8-1.5.2-1-1.1-1.1-.3-1.2.6-.9-.5-1.5.3-1.3.8-.8-.1-1,.1-1,.9-.7-.6-1.2,0-1,1-.7-.6-1,0-1,1.3-.7-.3-.9,0-.9.7-.4-.3-1,.3-1,1.3-.5-.1-1,.4-.9.9-.3,0-1.2.4-1.2.8-.3C247.7,1130.4,248.3,1130.7,248.5,1131.6Z"/><path class="m" d="M242.8,1133.3c-.6-.1-.9.1-.7.6.2,0,.3.1.5.2C242.3,1133.6,242.4,1133.4,242.8,1133.3Z"/><path class="m" d="M247,1132c.1-.2.1-.3.2-.4-.2-.5-.5-.6-.6-.1C246.7,1131.4,246.8,1131.6,247,1132Z"/><path class="m" d="M243.9,1132.8c-.5-.2-.7-.1-.4.6h.3C243.6,1132.9,243.7,1132.7,243.9,1132.8Z"/><path class="m" d="M245.5,1132.6v-.1c-1-.4-1.6-.4-1.3.5a.349.349,0,0,0,.2.1C244.1,1132.2,244.6,1132.2,245.5,1132.6Z"/><path class="m" d="M246.3,1132.3v-.3c-.4-.3-.7-.4-.8.1C245.6,1131.8,246,1132,246.3,1132.3Z"/><path class="m" d="M250.4,1131.5c.2.1.4-.4.7-.5-.3-.4-.4.2-.6.1-.6-.5-.7.1-.8.2a.1.1,0,0,1,.1.1C250,1131.4,250.1,1130.8,250.4,1131.5Z"/><path class="m" d="M251.3,1131.8s.7-.4,1-.3c0-.2.1-.8-.1-.9-.3-.1-.6.4-.8.6A3.537,3.537,0,0,1,251.3,1131.8Z"/><path class="m" d="M249,1131.5c.1.3.1-.5.6-.3-.3-.7-.6-.4-.9-.1A1.381,1.381,0,0,1,249,1131.5Z"/><path class="m" d="M248,1131.8a1.546,1.546,0,0,1,.3-.6c-.2-.5-.5-.6-.9-.1C247.8,1131.1,248,1131.4,248,1131.8Z"/><path class="m" d="M241,1135.3v-.5c-.4-.1-.6-.1-.7.2A1.08,1.08,0,0,1,241,1135.3Z"/><path class="m" d="M241.8,1134.7a1.433,1.433,0,0,1-.2-.7c-.5-.1-.7,0-.5.6C241.2,1134.5,241.5,1134.6,241.8,1134.7Z"/><path class="n" d="M265.1,1142.1c.8,0,.7-.5-.3-1.2.8-.2.8-.9-.5-1,.7-.3.9-1.2-.4-1.3.8-.5.6-.7-.8-.6.7-.7.5-1.2-.3-.8.2-.3,0-.8-.7-.6.4-.5.6-.9-.4-.9.8-.4.6-.5-.6-.7,2.3-.8-1-.7-.7-1,.9-1.2-1.2-.4-1-.6.8-1.3-1.1-.2-1-.5.5-1.1-.9,0-.9-.4.3-1-1.1-.1-1-.4.3-1.1-.9.1-.9-.3,0-1.3-1,.3-1.2-.3-.2-.8-.5-.6-1-.1.4-.9-.7-.3-1-.1a.756.756,0,0,1-.1.4c.5-.4.7-.6.9.1.1.6,1-.8,1,.3,0,.3,1-.7.8.2-.1.3,1.1-.6.9.3,0,.3,1.2-.6.8.3-.1.3,1.5-.7.8.5-.1.2,1.7-.5.9.5-.2.3,2.6.2.6.8,1,.2,1.2.3.5.6.8-.1.7.4.3.7.6-.2.8.2.6.5.7-.4.9.1.3.6,1.2-.1,1.4.1.7.5,1.1.1.9.9.3,1.1,1.1.1,1.1.7.5.9.9.6.9,1,.3,1,.9.5.5.8-.1.8.2.2-.3.6-.3.6s1.6.1.2.7c.7.3.6.5-.2.9.8.2.4.6-.3.8.5.6.1.7-.3.4.5.9.5,1.5-.1,1.2.4.7.1.6-.5.9.6.4-.1.6-.5.7.7.5.1.7-.7.7.3.8.1,1.2-.5.6,0,1-.2,1-.6.6.1.6-.1,1.1-.9.7.2.8-.2.9-.5.2-.2.8-.1,1.1-.6.4.1,1-.6,1.1-1.4.6.3,1.1-.3,1-1,.3,0,.8-.6.5-1.1.1,0,.8-.3,1.2-1,.7,0,.7-.5.4-.8-.1-.5,1-.5.8-.8.1-.3.9-1,.8-1.2.1-.5.8-.8.8-1.1.1-.6,1-.7.2-.9-.4-.4.9-.9.3-.9-.1-.8.8-.8.4-.8-.3-.6.8-.9.4-1-.4-.7.7-1.1.6-.6-.5-1,.7-1.2.2-1.2-.4-.4.6-.8-.1-.6-.5-.5.3-.4-.1-.4-.1-.7.3-1,0-.5-.6-1.6,0-1.6-.5-.8-.9-1.1-.2-1-.5-.5-.8-.8.2-1-.1-.4-1-.8.5-1.1-.3-.3-1-1.2-.3-.8-.5-.2-.9-.9.2-1.4-.8-.3-.9-.9-.6-.4-.8.1-.8-1.3-1-1-.9-.3-1.3-1-.5-.5-.8.2-1.1-.9.1-.6-.2.1-.7-1-.8-.4-.9.2-1-.8-.4-.1-.8.5-.9-1.1-.4-.4-.6.1-.6-1.2-1-.7-1.3.2-.9-.2-.2-.3-.3-.3-.4-.9-.2-1.6-.1-.5.9-1-.4-1.6-.1-.2,1-.7,0-1.4.3-.2.7-.7.1-1.5.6-.6,1-.7.1-1.4.2-.2,1.2-.8.6-1.2,1-.1.8-.8.3-1.4.7-.2,1.3-.8.4-1.1.3.4,1.5-.6,0-1.1.2-.1.9-1.3.1-.8,1.3.3,1.1-.6.5-1.2.7.2,1-1,.7-.6,1.7.3,1.1-.8,1.1-.5,1.5.4,1.2-.6.4-.6.7.6,1-.9.5-.9,1.1,1,1-.6.8-.3,1.1.6.7,0,0-.1.5.4.2-.3.5.2,1.3.6.6-.1.7.2,1.4,1.3.5-.5,1.3-.1,1.4.7.6.1,1,.5,1.5,1.2.5,0,.8,0,1.3.9.4,0,.5.6,1.2,1,.2.2.6.3,1.6,1,.5.4.8.7.8,1.3-.1.2.8,1,.9,1.4-.1.3.8.4,1,.9-.1.4.5.8.9.9.1.8.6,1.2.2,1.2-.8.6.4,1.2.8,1.3-.1.8.9,1.4,1,1.1-.3.9.7,1.8.5,1.6-.6.5.9.4.6.7-.4.3.8.8.7.6-.2.9.4,1.2-.2,1-.9.5.5.7.5.7-.7.7.8,1,.3.6-.6.8,0,1.6-.3.8-.8.4-.1,1.2-.4.5-.8.6-.3,1-.2.6-1,.7.3.7-.3.2-1.4.5.3,1,.3.4-.5.8-.2,1.3-.7.4-.9,1-.5,1.1-.7.3-1.1,1.6-.6-.3-.8-.3-.8s.6-.5.4-.7C265.6,1143,266.1,1142.7,265.1,1142.1Z"/><path class="m" d="M240.4,1136a1.087,1.087,0,0,1-.1-.5c-.4-.3-.9-.4-.8.5A1.308,1.308,0,0,1,240.4,1136Z"/><path class="m" d="M239.5,1136c-.1.1-.1.2.1.4h.1A.4.4,0,0,1,239.5,1136Z"/><path class="m" d="M248.7,1131.1a.367.367,0,0,0-.3.1c0,.1.1.2.1.4A4.2,4.2,0,0,0,248.7,1131.1Z"/><path class="m" d="M251.3,1131.2c0-.1-.1-.1-.1-.2h-.1c0,.1.1.1.1.2Z"/><path class="m" d="M243.5,1133.4a5.639,5.639,0,0,1-.7-.1c.2,0,.4.1.7.1Z"/><path class="m" d="M252.3,1131.5Z"/><path class="m" d="M249.7,1131.3a.1.1,0,0,1-.1-.1l.1.1Z"/><path class="m" d="M244.2,1132.9a.367.367,0,0,0-.3-.1.367.367,0,0,0,.3.1Z"/><path class="m" d="M242.1,1133.9a.75.75,0,0,0-.5.1,1.422,1.422,0,0,1,.6.2C242.2,1134.1,242.1,1134,242.1,1133.9Z"/><path class="m" d="M245.5,1132.1v.4h0Z"/><path class="m" d="M247.5,1131.2c-.1,0-.2.2-.4.4,0,.1.1.1.1.2A3.333,3.333,0,0,1,247.5,1131.2Z"/><path class="m" d="M246.5,1131.5c-.1,0-.2.2-.2.5a.349.349,0,0,0,.2.1Z"/><path class="m" d="M241.1,1134.6c-.1,0-.1.1-.1.2.1,0,.2,0,.2.1A.367.367,0,0,0,241.1,1134.6Z"/><path class="m" d="M240.4,1135.6v-.6c-.1.1-.1.2-.1.4C240.3,1135.5,240.3,1135.6,240.4,1135.6Z"/><path d="M240,1137.5c-.1,0-.2.1-.1.2.2.1.3.3.5.4a.1.1,0,0,0,.1-.1C240.4,1137.7,240.2,1137.5,240,1137.5Z"/><path d="M240.7,1137.1c0-.1-.3.1-.2.2,0,.1.1.1.1.2s.2-.1.2-.2C240.7,1137.3,240.7,1137.2,240.7,1137.1Z"/><path d="M242,1137.6c-.1-.3-.5-.6-.8-.9-.1-.1-.2.1-.2.2.3.3.4.6.7.9C241.9,1137.9,242.1,1137.7,242,1137.6Z"/><path d="M242.1,1136.6c.1-.2-.2-.1-.3,0-.1.2,0,.3.1.5.1.1.2-.1.2-.2C242.2,1136.8,242.1,1136.7,242.1,1136.6Z"/><path d="M243.1,1135.9c-.1-.2-.4-.4-.6-.6-.1-.1-.3.2-.2.2.2.2.3.4.6.5C243,1136.2,243.1,1136,243.1,1135.9Z"/><path d="M243.5,1135.5c-.1-.1-.2-.2-.2-.3-.1-.1-.3.1-.2.2s.1.2.3.3C243.4,1135.8,243.5,1135.6,243.5,1135.5Z"/><path d="M244.8,1134.6c-.2-.3-.2-.6-.4-.9,0-.1-.1.1-.1.1.1.3,0,.8.3,1C244.7,1134.8,244.9,1134.6,244.8,1134.6Z"/><path d="M245.9,1133.4c.1-.1.1-.2,0-.2a.1.1,0,0,0-.1.1c-.1,0-.2.2-.2.2a.2.2,0,0,0,.4,0C245.9,1133.5,245.9,1133.5,245.9,1133.4Z"/><path d="M246.9,1132.9c-.1,0-.2.2-.1.2S247,1132.9,246.9,1132.9Z"/><path d="M248.4,1132.9a.349.349,0,0,1-.1-.2c-.1-.1-.3.1-.3.2s0,.1.1.2h.2A.349.349,0,0,0,248.4,1132.9Z"/><path d="M249.4,1132.9l-.2-.2c-.1-.1-.3.2-.2.3s.1.1.2.1C249.2,1133.2,249.4,1133,249.4,1132.9Z"/><path d="M250.1,1132.6c-.1,0-.3.3-.2.3C250.1,1132.9,250.3,1132.6,250.1,1132.6Z"/><path d="M248.1,1133.8c0-.1-.2,0-.2.1v.4c0,.1.2,0,.2-.1Z"/><path d="M249.7,1133.6c-.1,0-.1,0-.1-.1-.1-.1-.3.1-.2.2,0,.1.1.1.2.1C249.7,1133.9,249.8,1133.7,249.7,1133.6Z"/><path d="M251.7,1132.5c0,.2-.1.3-.1.5s.2,0,.2-.1c0-.2.1-.3.1-.5S251.7,1132.4,251.7,1132.5Z"/><path d="M253,1132.7a.1.1,0,0,0-.1-.1c0-.1-.2.1-.2.2s0,.2.1.2S253.1,1132.8,253,1132.7Z"/><path d="M254,1133.1h0l-.1-.1c-.1,0-.3.2-.2.3v.1h0a.319.319,0,0,0,.3-.3Z"/><path d="M252.7,1133.3c-.1,0-.1.1-.2.1s-.2.3-.1.2c.1,0,.1-.1.2-.1C252.8,1133.5,252.9,1133.2,252.7,1133.3Z"/><path d="M245,1136c-.2-.1-.3-.3-.5-.4-.1-.1-.2.1-.2.2.2.1.3.3.5.4C244.9,1136.3,245.1,1136,245,1136Z"/><path d="M239.9,1138.6c-.1-.1-.2.1-.2.2a2.092,2.092,0,0,0,.4.6c.1.1.2-.1.2-.2A1.275,1.275,0,0,0,239.9,1138.6Z"/><path d="M241.6,1138.5c0-.1-.1-.1,0,0a.367.367,0,0,0-.3-.1l-.1.1h0a.1.1,0,0,0,.1.1h.2c0,.1.1,0,.1-.1Z"/><path d="M246.3,1137.4a.1.1,0,0,0-.1.1C246.3,1137.5,246.4,1137.4,246.3,1137.4Z"/><path d="M239.9,1141.2a.6.6,0,0,0-.1.4c0,.1.2-.1.2-.1a.368.368,0,0,1,.1-.3C240.2,1141,239.9,1141.1,239.9,1141.2Z"/><path d="M240.8,1142.7h0c0,.2.3,0,.3-.1h0C241.1,1142.3,240.8,1142.5,240.8,1142.7Z"/><path d="M244.1,1137.9l-.1.1a.1.1,0,0,0,.2,0C244.4,1138,244.3,1137.7,244.1,1137.9Z"/><path d="M242.5,1143.2c-.1.1-.2.2-.2.3s.1.1.1,0l.2-.2C242.7,1143.2,242.6,1143,242.5,1143.2Z"/><path d="M240.7,1145s-.1.1,0,.1h0a.215.215,0,0,0,.2-.2h0C241,1144.7,240.7,1144.8,240.7,1145Z"/><path d="M239.9,1145.7c0-.1-.1-.1-.1-.2,0-.2-.3.1-.3.2a.2.2,0,0,0,.4,0Z"/><path d="M255.2,1135a.1.1,0,0,1-.1-.1c-.1-.1-.3.1-.3.2.1.1.2.2.3.1A.349.349,0,0,0,255.2,1135Z"/><path d="M256.9,1134.1a.215.215,0,0,0-.2.2v.1h0C256.9,1134.4,257,1134.1,256.9,1134.1Z"/><path d="M255.5,1133.3c-.1,0-.2.2-.1.2S255.6,1133.3,255.5,1133.3Z"/><path d="M257.5,1134.5h0c0,.2.2,0,.2-.1v-.1C257.8,1134.2,257.5,1134.3,257.5,1134.5Z"/><path d="M257.9,1135.2v.1c.1.1.2-.1.2-.1v-.2C258.2,1134.9,257.9,1135.1,257.9,1135.2Z"/><path d="M257.7,1136.2c-.1,0-.3.3-.2.3C257.7,1136.5,257.9,1136.2,257.7,1136.2Z"/><path d="M257,1135.3c-.1,0-.1,0-.2.1-.1,0-.3.3-.1.3.1,0,.1,0,.2-.1C257,1135.6,257.1,1135.3,257,1135.3Z"/><path d="M259.5,1136.3c-.1-.1-.3.1-.3.2v.2c0,.1,0,.2.1.1A.365.365,0,0,0,259.5,1136.3Z"/><path d="M250.8,1134.8v.2c0,.1.2-.1.2-.1v-.2C251.1,1134.5,250.8,1134.7,250.8,1134.8Z"/><path d="M252.8,1135l-.1.1s-.1.2,0,.2.1,0,.2-.1S253,1134.9,252.8,1135Z"/><path d="M249.2,1134.7c-.1-.2-.4.2-.5.3v.1c0,.2.2.2.3.1h0a.365.365,0,0,0,.2-.5Z"/><path d="M258.8,1137.3c-.1,0-.3.3-.2.3C258.8,1137.6,259,1137.3,258.8,1137.3Z"/><path d="M258.3,1135.7c-.1,0-.1,0-.2.1-.1,0-.1.1-.1.2a.1.1,0,0,0,.1.1C258.3,1136,258.5,1135.6,258.3,1135.7Z"/><path d="M260.2,1138.3c-.2,0-.4.4-.2.4S260.4,1138.3,260.2,1138.3Z"/><path d="M258.7,1140.4c-.2,0-.4.4-.2.4C258.6,1140.7,258.8,1140.4,258.7,1140.4Z"/><path d="M261.4,1141.4c-.1-.2-.4.2-.4.3h.1a.215.215,0,0,0,.2-.2C261.4,1141.6,261.4,1141.5,261.4,1141.4Z"/><path d="M260.8,1142.1c-.1,0-.3.3-.1.3C260.8,1142.4,260.9,1142.1,260.8,1142.1Z"/><path d="M259.7,1142.3c0-.2-.5.3-.2.2h.1c.1,0,.1-.1.1-.2Z"/><path d="M244,1145.9h0c0,.1.2,0,.2-.1v-.1C244.2,1145.6,243.9,1145.8,244,1145.9Z"/><path d="M244.1,1147.8c-.1,0-.3.3-.1.3C244.1,1148,244.2,1147.8,244.1,1147.8Z"/><path d="M242.5,1148c-.2,0-.5.5-.3.5S242.7,1148,242.5,1148Z"/><path d="M245.2,1148.1h0l-.2.2h0c0,.1.2,0,.2-.1l-.1.1C245.3,1148.3,245.4,1148,245.2,1148.1Z"/><path d="M245.2,1150.4c-.1,0-.2.2-.1.2Z"/><path d="M249.7,1149.9h0c0,.2.2.1.2,0v-.1C249.9,1149.7,249.7,1149.9,249.7,1149.9Z"/><path d="M249.9,1151.3h0c-.2.1-.1.3,0,.2v-.1C250,1151.4,250,1151.2,249.9,1151.3Z"/><path d="M254.8,1149c-.1,0-.2.2-.1.2S255,1149,254.8,1149Z"/><path d="M254.7,1150.3h0c-.2.1-.1.4,0,.2v-.1C254.8,1150.4,254.8,1150.2,254.7,1150.3Z"/><path d="M252.5,1149c-.1,0-.2.2-.1.2C252.5,1149.1,252.6,1149,252.5,1149Z"/><path d="M253.5,1149.8c-.2,0-.3.3-.2.3C253.5,1150.2,253.7,1149.8,253.5,1149.8Z"/><path d="M256.1,1148.9c-.1,0-.2.3,0,.3.1,0,.1-.1.2-.2C256.3,1148.9,256.2,1148.8,256.1,1148.9Z"/><path d="M257,1147.3c-.1,0-.2.3,0,.3.1,0,.1-.1.2-.2C257.2,1147.3,257.1,1147.3,257,1147.3Z"/><path d="M258.5,1145.4c-.1-.1-.3.3-.1.2h0a.1.1,0,0,0,.1-.1Z"/><path d="M259.7,1146.7h0c-.1-.2-.3.1-.2.1h.1C259.7,1146.9,259.8,1146.8,259.7,1146.7Z"/><path d="M259.5,1147.7c-.1,0-.3.2-.1.2C259.5,1148,259.6,1147.7,259.5,1147.7Z"/><path d="M258.7,1148.8a.1.1,0,0,1-.1-.1c-.1-.1-.2.2-.1.2h.1C258.7,1149,258.8,1148.8,258.7,1148.8Z"/><path d="M261.2,1144.2c-.1,0-.2.2-.1.2S261.3,1144.2,261.2,1144.2Z"/><path d="M246.4,1133.7c0-.1-.2.1-.2.2a1.421,1.421,0,0,0,.2.6c.1.1.3-.1.2-.2C246.5,1134,246.4,1133.9,246.4,1133.7Z"/><path d="M266.1,1143.6c0,7.6-6.6,13.8-14.8,13.8s-14.8-6.2-14.8-13.8,6.6-13.8,14.8-13.8C259.5,1129.7,266.1,1135.9,266.1,1143.6Z"/></g></g></svg>