<svg xmlns="http://www.w3.org/2000/svg" viewBox="0 0 294.54 142.912"><defs><style>.a{fill:#ebb409;stroke:#df7c10;}.a,.e,.h,.i{stroke-linecap:round;stroke-linejoin:round;stroke-miterlimit:10;stroke-width:0.38px;}.b{fill:#f8b809;}.c,.i{opacity:0.5;}.d{fill:#e79e08;}.e{fill:#fdd70a;stroke:#ee9b13;}.f,.j{opacity:0.7;}.g{fill:#f9c809;}.h,.i,.j,.k{fill:#c34916;}.h,.i{stroke:#81360f;}</style></defs><g transform="translate(-336 -0.015)"><path class="a" d="M555.7,42.2C559.6,10,540.4-1.7,539.7.6c-8.1,24,7.6,43.4,7.6,43.4Z"/><path class="b" d="M549.6,40c.1.2-.4,0-.4-.1a75.633,75.633,0,0,1-3-10.6c-.1-.3.6,0,.6.2C547.7,33,548.7,36.5,549.6,40Z"/><path class="b" d="M551.4,39.3c0,.2-.4,0-.3-.2.5-7.4-.8-14.2-2.7-21.4-.1-.3.5,0,.6.1A47.711,47.711,0,0,1,551.4,39.3Z"/><g class="c"><path class="d" d="M555.7,42.2l-8.4,1.7a51.156,51.156,0,0,1-9-20.2h.1s5.7,15,8.6,16.5-2.4-13.5-2.7-18.4c2.9,9.7,7,13.9,5.6,3.7-2.5-17.5,2.2-2.3,2.4,9.6.1,8,8.1-17.9-10.7-32a32.432,32.432,0,0,0-3.5,18.5c-.1-.1-.1-.2-.2-.2A42.811,42.811,0,0,1,539.7.5C540.4-1.7,559.6,10,555.7,42.2Z"/></g><path class="d" d="M541.8,5.4c-1.2,5-2.4,9-2.2,14.2a33.523,33.523,0,0,0,3.8,13.8c.1.2-.2.1-.3,0-5.3-8.8-5.5-18.9-2-28.3C541.2,4.7,541.9,5.2,541.8,5.4Z"/><path class="a" d="M540.3,46.8C533.9,14.9,512,9.1,512,11.5c-.3,25.2,20.8,39.3,20.8,39.3Z"/><path class="b" d="M533.7,46.4c.1.2-.3.1-.4,0a92.6,92.6,0,0,1-6.2-9.2c-.2-.3.5-.2.6,0C529.7,40.3,531.7,43.3,533.7,46.4Z"/><path class="b" d="M535.2,45.2c0,.2-.4.1-.4-.1-1.9-7.2-5.2-13.4-9.3-19.7-.2-.3.5-.2.6,0A47.07,47.07,0,0,1,535.2,45.2Z"/><g class="c"><path class="d" d="M540.3,46.8l-7.5,4A54.6,54.6,0,0,1,517.9,34h.1s10.1,12.7,13.4,13.4-6.5-12.3-8.3-16.8c5.8,8.5,11.1,11.3,6.5,2-7.8-16,1.4-2.8,5.3,8.5,2.6,7.6,2.2-19.4-20.2-27.6a32.131,32.131,0,0,0,2.4,18.7c-.1-.1-.2-.1-.3-.2A44.627,44.627,0,0,1,512,11.5C512,9.1,533.9,14.9,540.3,46.8Z"/></g><path class="d" d="M515.5,15.5c.4,5.1.5,9.3,2.3,14.2a32.96,32.96,0,0,0,7.9,12.1c.1.1-.2.1-.2.1-7.8-7-11.1-16.6-10.7-26.5C514.8,15.1,515.5,15.3,515.5,15.5Z"/><path class="a" d="M532.7,53.4c-21.2-25.5-43.5-21-42.4-18.8C502.5,57,528,60.3,528,60.3Z"/><path class="b" d="M526.7,55.9c.2.1-.2.3-.4.2a87.791,87.791,0,0,1-10-5.5c-.3-.2.4-.4.6-.3C520.1,52.3,523.4,54.1,526.7,55.9Z"/><path class="b" d="M527.5,54.2c.1.1-.3.2-.4.1-5.2-5.6-11.2-9.5-17.9-13.4-.3-.2.3-.4.5-.3A53.16,53.16,0,0,1,527.5,54.2Z"/><g class="c"><path class="d" d="M532.7,53.4,528,60.2a58.43,58.43,0,0,1-21.4-8.3v-.1s15.2,6.8,18.4,6c3.2-.9-11.8-8-15.6-11.3,9.3,4.9,15.4,5.2,6.7-1.1-14.8-10.8-.1-3.1,8.9,5.2,6,5.6-7.6-18.1-31.4-15.6a33.905,33.905,0,0,0,11.3,15.5h-.3a46.774,46.774,0,0,1-14.3-16C489.2,32.5,511.5,28,532.7,53.4Z"/></g><path class="d" d="M495.4,36.6c2.9,4.3,5,8,9,11.6a37.506,37.506,0,0,0,12.9,7.3c.2.1-.1.2-.2.2a35.391,35.391,0,0,1-22.5-18.8C494.5,36.5,495.3,36.4,495.4,36.6Z"/><path class="a" d="M528.8,62.2C498,47.9,480,61.1,482,62.5c21.2,15.3,45.7,7.7,45.7,7.7Z"/><path class="b" d="M524.5,66.8c.2,0-.1.3-.2.3a111.083,111.083,0,0,1-11.5-.8c-.3,0,.2-.5.4-.5C516.9,66.3,520.7,66.6,524.5,66.8Z"/><path class="b" d="M524.4,65c.2.1-.2.3-.3.3-7.2-2.9-14.4-4-22.3-4.8-.3,0,.1-.5.3-.5A55.921,55.921,0,0,1,524.4,65Z"/><g class="c"><path class="d" d="M528.8,62.2l-1.1,8.1a59.278,59.278,0,0,1-23.1,1.3v-.1s16.8,0,19.3-2.1-14.3-2.4-19.2-3.8c10.7.6,16.2-1.6,5.5-3.8-18.2-3.7-1.5-2.7,10.4,1.1,8,2.6-15.1-13.2-35.4-1.2a37.1,37.1,0,0,0,17.2,9.4c-.1,0-.2.1-.3.1a50.144,50.144,0,0,1-20.2-8.6C480,61.1,498,47.9,528.8,62.2Z"/></g><path class="d" d="M487.5,62.3c4.5,2.7,8.1,5.2,13.4,6.8a37.974,37.974,0,0,0,15,1.3c.2,0,0,.2-.1.2A37.049,37.049,0,0,1,487,62.9C486.7,62.5,487.3,62.1,487.5,62.3Z"/><path class="a" d="M528,75.5c-34-3.4-46.2,14.8-43.8,15.5,25.4,7.4,45.7-7.6,45.7-7.6Z"/><path class="b" d="M525.7,81.3c.2-.1,0,.4-.1.4a106.985,106.985,0,0,1-11.1,3c-.3.1,0-.5.2-.6C518.4,83.2,522,82.2,525.7,81.3Z"/><path class="b" d="M525,79.6c.2,0,0,.3-.2.3-7.8-.4-15,.9-22.6,2.8-.3.1-.1-.5.1-.6A56.214,56.214,0,0,1,525,79.6Z"/><g class="c"><path class="d" d="M528,75.5l1.9,7.9a57.366,57.366,0,0,1-21.2,8.7V92s15.8-5.5,17.4-8.3-14.3,2.4-19.4,2.7c10.2-2.9,14.6-6.8,3.8-5.3-18.5,2.5-2.4-2.1,10.2-2.4,8.4-.2-19-7.5-33.7,10.4a37.861,37.861,0,0,0,19.6,3.2c-.1.1-.2.1-.3.2A50.154,50.154,0,0,1,484.2,91C481.8,90.3,494,72.1,528,75.5Z"/></g><path class="d" d="M489.3,89c5.2,1.1,9.5,2.2,15,2a37.9,37.9,0,0,0,14.5-3.7c.2-.1.1.2,0,.2-9.3,5.1-19.9,5.4-29.9,2.1C488.6,89.5,489,88.9,489.3,89Z"/><path class="a" d="M531.7,88.2c-33.3,7.7-38.2,28.8-35.7,28.7,26.6-1.1,40.3-21.8,40.3-21.8Z"/><path class="b" d="M531.6,94.4c.2-.1.2.3,0,.4-3,2.3-6.2,4.4-9.4,6.4-.3.2-.2-.5,0-.6C525.4,98.6,528.5,96.5,531.6,94.4Z"/><path class="b" d="M530.3,93.1c.2,0,.1.3-.1.4-7.5,2.2-13.8,5.7-20.3,9.9-.3.2-.2-.4-.1-.6A53.845,53.845,0,0,1,530.3,93.1Z"/><g class="c"><path class="d" d="M531.7,88.2l4.6,6.9a53.693,53.693,0,0,1-16.9,15l-.1-.1s12.9-10.2,13.4-13.4c.5-3.1-12.6,6.8-17.3,8.8,8.6-6,11.3-11.1,1.7-6.3-16.5,8.3-3-1.2,8.7-5.5,7.9-2.9-20.5-1-28,20.6a36.447,36.447,0,0,0,19.6-3.3c-.1.1-.1.2-.2.3a51.358,51.358,0,0,1-21.4,5.7C493.5,117,498.4,95.9,531.7,88.2Z"/></g><path class="d" d="M500.1,113.3c5.3-.7,9.8-1,14.8-2.9a37.011,37.011,0,0,0,12.4-8.1c.1-.1.2.2.1.2-6.9,7.7-16.8,11.4-27.4,11.6C499.6,114.1,499.8,113.4,500.1,113.3Z"/><path class="a" d="M542.8,96.2c-27.6,19.2-23.7,40.4-21.4,39.4,24.1-10.7,28.5-34.7,28.5-34.7Z"/><path class="b" d="M545.1,102c.1-.2.3.2.2.4a92.923,92.923,0,0,1-6.1,9.3c-.2.3-.4-.4-.3-.6C541.1,108.1,543.1,105,545.1,102Z"/><path class="b" d="M543.4,101.2c.1-.1.2.3.1.4-6.1,4.7-10.5,10.2-14.8,16.5-.2.3-.4-.3-.3-.5A51.085,51.085,0,0,1,543.4,101.2Z"/><g class="c"><path class="d" d="M542.8,96.2l7.1,4.7a50.621,50.621,0,0,1-9.5,19.9h-.1s7.8-14.1,7-17.2-8.9,10.8-12.4,14.4c5.5-8.6,6-14.3-.9-6.4-11.9,13.6-3.3,0,5.8-8.2,6.1-5.5-19.4,6.5-17.5,29.1a36.574,36.574,0,0,0,16.8-10.1.367.367,0,0,1-.1.3,49,49,0,0,1-17.4,13C519.1,136.7,515.1,115.4,542.8,96.2Z"/></g><path class="d" d="M523.7,130.9c4.7-2.5,8.6-4.4,12.5-8.1a33.55,33.55,0,0,0,8.1-12c.1-.2.2.1.2.2-3.3,9.6-10.9,16.7-20.6,20.6C523.6,131.7,523.4,131,523.7,130.9Z"/><path class="a" d="M552.7,98.3c-16.5,28.4-3.5,46.1-1.9,44.3,17.1-19.3,10.4-42.8,10.4-42.8Z"/><path class="b" d="M557.5,102.6c0-.2.4.1.3.2a81.266,81.266,0,0,1-1.4,10.9c-.1.3-.5-.2-.5-.4C556.5,109.7,557,106.1,557.5,102.6Z"/><path class="b" d="M555.5,102.5c.1-.1.3.2.3.3-3.4,6.7-5,13.5-6.1,20.8,0,.3-.5-.1-.5-.3A49.383,49.383,0,0,1,555.5,102.5Z"/><g class="c"><path class="d" d="M552.7,98.3l8.5,1.4a49.617,49.617,0,0,1,.2,21.9h-.1s.8-15.9-1.3-18.4-3.3,13.4-4.9,18c1.2-10-.9-15.4-3.7-5.4-4.7,17.1-3,1.3,1.6-9.8,3.1-7.4-14.7,13.6-3,33.4a33.38,33.38,0,0,0,10.7-15.9c0,.1.1.2.1.3a44.339,44.339,0,0,1-10.1,18.7C549.2,144.4,536.2,126.7,552.7,98.3Z"/></g><path class="d" d="M550.8,137.3c3.1-4.2,5.9-7.5,7.8-12.3a32.331,32.331,0,0,0,2.1-14.1c0-.2.2,0,.2.1,1.3,10.1-2.5,19.5-9.6,26.9C551.1,138.1,550.7,137.5,550.8,137.3Z"/><path class="a" d="M565.8,97.5c-6.3,31.9,11.9,44.8,12.8,42.6,9.9-23.4-4.3-43.8-4.3-43.8Z"/><path class="b" d="M571.7,100.2c0-.2.4,0,.4.1a78.105,78.105,0,0,1,2.2,10.7c0,.3-.6,0-.6-.2C573.1,107.2,572.4,103.7,571.7,100.2Z"/><path class="b" d="M569.8,100.7c0-.2.4.1.3.2-1,7.4-.3,14.3,1.1,21.6.1.3-.5,0-.6-.2A49.245,49.245,0,0,1,569.8,100.7Z"/><g class="c"><path class="d" d="M565.8,97.5l8.5-1.2a50.482,50.482,0,0,1,7.4,20.7h-.1s-4.5-15.3-7.3-17.1c-2.8-1.7,1.3,13.7,1.3,18.5-2.2-9.9-6-14.4-5.3-4.1,1.1,17.6-2.4,2.1-1.7-9.8.5-8-9.4,17.3,8.2,32.6a31.757,31.757,0,0,0,4.9-18.2c.1.1.1.2.2.3a43.3,43.3,0,0,1-3.4,20.8C577.7,142.4,559.4,129.4,565.8,97.5Z"/></g><path class="d" d="M576.8,135.2c1.6-4.9,3.1-8.8,3.3-14a32.1,32.1,0,0,0-2.7-14c-.1-.2.2-.1.3,0,4.6,9.2,4.1,19.3-.2,28.4C577.4,135.9,576.8,135.4,576.8,135.2Z"/><path class="a" d="M574.4,91.7c3.7,32.3,25.1,39.7,25.3,37.3,2.3-25.1-17.5-40.7-17.5-40.7Z"/><path class="b" d="M580.8,92.6c-.1-.2.4-.1.4,0a92.046,92.046,0,0,1,5.4,9.7c.1.3-.5.1-.6-.1C584.3,99,582.6,95.8,580.8,92.6Z"/><path class="b" d="M579.2,93.6c0-.2.4,0,.4.1,1.3,7.3,4.1,13.7,7.6,20.4.2.3-.5.1-.6,0A49.247,49.247,0,0,1,579.2,93.6Z"/><g class="c"><path class="d" d="M574.4,91.7l7.8-3.4a52.839,52.839,0,0,1,13.4,17.8l-.1.1s-9-13.4-12.2-14.4c-3.2-.9,5.4,12.7,6.9,17.4-5.1-8.9-10.1-12.1-6.3-2.4,6.5,16.6-1.6,2.7-4.6-8.9-2-7.8-3.8,19.1,17.8,29a31.892,31.892,0,0,0-.8-18.8c.1.1.2.1.3.2a44.161,44.161,0,0,1,3.1,20.8C599.4,131.4,578,123.9,574.4,91.7Z"/></g><path class="d" d="M596.4,124.7c0-5.1.3-9.3-1.1-14.3a35.58,35.58,0,0,0-6.8-12.7c-.1-.1.2-.1.3-.1,7.2,7.5,9.7,17.3,8.5,27.2C597.2,125.2,596.4,125,596.4,124.7Z"/><path class="a" d="M582.7,82.5c12.3,30.3,35,32.2,34.6,29.9-4.6-24.8-28-35.1-28-35.1Z"/><path class="b" d="M589.2,81.9c-.2-.2.3-.2.4-.1a99.4,99.4,0,0,1,7.9,8c.2.3-.5.3-.6.1C594.3,87.2,591.7,84.5,589.2,81.9Z"/><path class="b" d="M587.9,83.3c-.1-.1.3-.1.4,0,3.2,6.8,7.7,12.3,12.9,17.8.2.2-.4.3-.6.1A50.624,50.624,0,0,1,587.9,83.3Z"/><g class="c"><path class="d" d="M582.7,82.5l6.6-5.2a55.57,55.57,0,0,1,17.8,13.9l-.1.1s-12.4-10.8-15.7-10.9,8.7,11,11.4,15.1c-7.4-7.3-13.1-9.2-6.8-.8,10.7,14.4-.9,3-6.8-7.5-4-7,1.6,19.4,25.1,23.7a32.978,32.978,0,0,0-5.9-18c.1,0,.2.1.3.1a45.8,45.8,0,0,1,8.7,19.3C617.7,114.8,595,112.8,582.7,82.5Z"/></g><path class="d" d="M613,109c-1.4-4.9-2.3-9-5-13.6a35.153,35.153,0,0,0-10.1-10.6c-.2-.1.1-.2.2-.1,9,5.5,14.1,14.4,15.6,24.2C613.8,109.4,613.1,109.3,613,109Z"/><path class="a" d="M584.9,72.4c22.8,24.2,44.8,18.4,43.5,16.4-13.5-21.7-39.2-23.5-39.2-23.5Z"/><path class="b" d="M590.7,69.5c-.2-.1.2-.3.4-.2a88.576,88.576,0,0,1,10.3,4.9c.3.2-.3.4-.6.3C597.5,72.8,594.1,71.2,590.7,69.5Z"/><path class="b" d="M590.1,71.3c-.1-.1.3-.2.4-.1,5.5,5.3,11.8,8.9,18.7,12.4.3.1-.3.4-.5.3A53.745,53.745,0,0,1,590.1,71.3Z"/><g class="c"><path class="d" d="M584.9,72.4l4.2-7.1A58.536,58.536,0,0,1,611,72.4v.1s-15.6-6-18.8-4.9c-3.2,1,12.3,7.4,16.3,10.3-9.6-4.4-15.7-4.3-6.6,1.5,15.4,9.9.3,3.1-9.2-4.7-6.4-5.2,8.7,17.6,32.3,13.7a34.017,34.017,0,0,0-12.2-14.8h.3a48.069,48.069,0,0,1,15.3,15.2C629.7,90.8,607.7,96.6,584.9,72.4Z"/></g><path class="d" d="M623.1,87c-3.1-4.1-5.5-7.7-9.7-11A36.347,36.347,0,0,0,600,69.5c-.2,0,.1-.2.2-.2a35.149,35.149,0,0,1,23.6,17.5C624.1,87.1,623.3,87.2,623.1,87Z"/><path class="a" d="M583.1,64.5c31.5,12.7,48.8-1.4,46.7-2.7-22-14.2-46.1-5.4-46.1-5.4Z"/><path class="b" d="M587.1,59.6c-.2,0,.1-.3.2-.4a112.737,112.737,0,0,1,11.6.2c.3,0-.1.5-.4.5Z"/><path class="b" d="M587.3,61.4c-.2-.1.1-.3.3-.3,7.4,2.5,14.7,3.3,22.5,3.6.3,0-.1.5-.3.5A53.659,53.659,0,0,1,587.3,61.4Z"/><g class="c"><path class="d" d="M583.1,64.5l.6-8.1a58.686,58.686,0,0,1,23-2.4v.1s-16.8.9-19.2,3.1,14.4,1.7,19.4,2.8c-10.7-.1-16.1,2.4-5.3,4,18.4,2.7,1.7,2.7-10.4-.6-8.1-2.2,15.8,12.5,35.4-.6a36.653,36.653,0,0,0-17.7-8.5c.1,0,.2-.1.3-.1a50.462,50.462,0,0,1,20.7,7.6C631.9,63.1,614.6,77.2,583.1,64.5Z"/></g><path class="d" d="M624.3,62.3c-4.7-2.5-8.4-4.8-13.7-6.1a37.937,37.937,0,0,0-15-.5c-.2,0,0-.2.1-.2,10.4-2.3,20.7.4,29.2,6.3C625.1,62,624.5,62.5,624.3,62.3Z"/><path class="a" d="M581.3,58.2c33.9-4.5,41.1-25,38.5-25.1C593.2,31.7,577.4,51,577.4,51Z"/><path class="b" d="M582.1,52.1c-.2.1-.1-.3,0-.4a96.4,96.4,0,0,1,10-5.4c.3-.1.2.5,0,.6C588.7,48.5,585.4,50.3,582.1,52.1Z"/><path class="b" d="M583.2,53.5c-.2,0,0-.3.1-.4,7.7-1.4,14.4-4.3,21.2-7.9.3-.1.2.5,0,.6A52.076,52.076,0,0,1,583.2,53.5Z"/><g class="c"><path class="d" d="M581.3,58.2l-3.9-7.3a55.071,55.071,0,0,1,18.3-13.3l.1.1s-13.9,9-14.7,12c-.8,3.1,13.3-5.6,18.1-7.1-9.2,5.1-12.5,10-2.4,6.1,17.3-6.7,2.9,1.5-9.2,4.6-8.1,2.1,20.3,2.9,30-17.8a37.377,37.377,0,0,0-19.8,1.4c.1-.1.1-.2.2-.3A50.713,50.713,0,0,1,619.8,33C622.3,33.2,615.2,53.7,581.3,58.2Z"/></g><path class="d" d="M615.4,36.2c-5.4.2-9.8,0-15.1,1.5a37.91,37.91,0,0,0-13.2,6.9c-.1.1-.1-.2-.1-.2,7.7-7,18-9.8,28.5-8.9C615.9,35.5,615.7,36.2,615.4,36.2Z"/><path class="a" d="M574.4,49.9c30.1-15.5,29.2-37.1,26.8-36.3-25.4,7.5-33.1,30.8-33.1,30.8Z"/><path class="b" d="M572.9,43.9c-.1.2-.2-.3-.2-.4a83.9,83.9,0,0,1,7.4-8.4c.2-.2.3.4.2.6C577.7,38.4,575.3,41.1,572.9,43.9Z"/><path class="b" d="M574.5,44.9c-.1.1-.2-.3,0-.4,6.7-3.9,11.8-8.8,17-14.4.2-.2.3.4.2.5A55.3,55.3,0,0,1,574.5,44.9Z"/><g class="c"><path class="d" d="M574.4,49.9l-6.3-5.5a50.923,50.923,0,0,1,12.3-18.5l.1.1s-9.7,13-9.4,16.2c.3,3.1,10.4-9.6,14.3-12.7-6.7,7.9-8,13.5,0,6.5,13.7-12,3.2.4-6.9,7.4-6.8,4.7,20.1-4,21.5-26.7a36.822,36.822,0,0,0-18.1,7.9c0-.1.1-.2.1-.3a48.61,48.61,0,0,1,19.1-10.6C603.6,12.8,604.5,34.4,574.4,49.9Z"/></g><path class="d" d="M598.2,18c-5,1.9-9.2,3.3-13.5,6.4a37.335,37.335,0,0,0-9.8,10.8c-.1.2-.2-.1-.1-.2,4.6-9.1,13.2-15.1,23.4-17.8C598.5,17.1,598.5,17.9,598.2,18Z"/><path class="a" d="M564.4,44.9c21.5-25.3,11.9-44.9,10-43.3C554,17.8,556.3,42.1,556.3,42.1Z"/><path class="b" d="M560.5,39.9c-.1.2-.3-.2-.3-.3a106.755,106.755,0,0,1,3.4-10.5c.1-.3.5.3.4.5C562.8,33,561.7,36.4,560.5,39.9Z"/><path class="b" d="M562.4,40.2c-.1.1-.3-.2-.2-.3,4.6-6,7.3-12.5,9.8-19.5.1-.3.5.2.4.4A46.768,46.768,0,0,1,562.4,40.2Z"/><g class="c"><path class="d" d="M564.4,44.9l-8.1-2.8a49.217,49.217,0,0,1,3.8-21.6h.1s-3.7,15.5-2.1,18.3,5.7-12.7,8.1-16.9c-3,9.7-1.9,15.3,2.7,6,7.8-16,3.2-.8-3.4,9.4-4.4,6.8,17-11,9-32.4A35.41,35.41,0,0,0,561,18.8v-.3A47.182,47.182,0,0,1,574.3,1.7C576.3,0,585.9,19.6,564.4,44.9Z"/></g><path class="d" d="M573.4,6.7c-3.8,3.6-7.1,6.4-9.9,10.9a32.824,32.824,0,0,0-4.6,13.6c0,.2-.2,0-.2-.1.5-10.1,6-18.8,14.3-24.9C573.3,5.9,573.6,6.5,573.4,6.7Z"/><path class="e" d="M573,92c12.9,30.1,35.6,31.6,35.1,29.3-5-24.8-28.6-34.6-28.6-34.6Z"/><path class="b" d="M579.5,91.2c-.2-.2.3-.2.4-.1a74.593,74.593,0,0,1,8,7.9c.2.2-.5.3-.6.1C584.7,96.4,582.1,93.8,579.5,91.2Z"/><path class="b" d="M578.3,92.6c-.1-.2.3-.1.4,0,3.3,6.7,7.9,12.1,13.3,17.6.2.2-.4.3-.6.1A47.344,47.344,0,0,1,578.3,92.6Z"/><g class="f"><path class="g" d="M573,92l6.5-5.3a55.221,55.221,0,0,1,18.1,13.6l-.1.1s-12.6-10.6-15.9-10.6,8.9,10.8,11.7,14.9c-7.5-7.2-13.2-9-6.8-.7,11,14.2-.8,3-7-7.4-4.1-6.9,2,19.4,25.6,23.2a32.928,32.928,0,0,0-6.3-17.9c.1,0,.2.1.3.1a45.092,45.092,0,0,1,9,19.2C608.6,123.6,585.9,122.1,573,92Z"/></g><path class="g" d="M603.8,118c-1.5-4.9-2.4-9-5.2-13.5a36.429,36.429,0,0,0-10.3-10.4c-.2-.1.1-.2.2-.1,9.1,5.4,14.4,14.1,16.1,24C604.7,118.3,603.9,118.3,603.8,118Z"/><path class="e" d="M526.3,66.3s-28.3-4.5-44.5,9.4c-2.3,2.5,21.2,12.6,47.1,1.6Z"/><path class="b" d="M523.4,69.9a37.785,37.785,0,0,0-12.1,0c-.3.1.1.3.3.3a94.509,94.509,0,0,1,11.9-.1C523.8,70.2,523.6,70,523.4,69.9Z"/><path class="b" d="M524.1,71.1c-6.8-.4-13.6,1-20,2.9-.3.1.2.3.3.3,6.6-1.3,12.9-3.1,19.7-3C524.4,71.3,524.3,71.1,524.1,71.1Z"/><path class="b" d="M524.7,73.5c.2-.1-.2-.2-.3-.2-6.6,3.5-14.9,4.8-22.3,5.4-.3,0,0,.3.2.3C509.4,78.8,518.8,77.4,524.7,73.5Z"/><g class="f"><path class="g" d="M528.8,77.4l-2.6-11.1a81.253,81.253,0,0,0-23,.3c1.8-.2,13.8-1.1,16.3.8,2.7,2-12.9,3.1-12.9,3.1s7.9-.4,8.7.1c.8.4-14.4,4.3-14.4,4.3s16.8-2.7,17.6-1.3c.9,1.4-17.4,7.1-28.9,4.1-8.1-2.4-.3-6.9,7.2-9.6.2-.1.4-.1.5-.2a40.188,40.188,0,0,0-15.7,7.9C479.4,78.2,503,88.4,528.8,77.4Z"/></g><path class="g" d="M487,74.9c4.6-2.7,8.2-5.1,13.5-6.6a37.9,37.9,0,0,1,15-1.1c.2,0,0-.2-.1-.2-10.5-1.9-20.7,1.2-28.9,7.4C486.2,74.6,486.8,75,487,74.9Z"/><path class="e" d="M528.6,79.3s-26.6,2.4-38.7,22.4c-2.4,3.3,20.8,7.6,41.3-11.7Z"/><path class="b" d="M505.9,93.7a85.416,85.416,0,0,1,20.3-11.2c.1,0-.1-.2-.2-.2a67.354,67.354,0,0,0-20.4,11.1C505.4,93.6,505.7,93.8,505.9,93.7Z"/><path class="b" d="M526.6,87.5c.1-.1-.2-.3-.3-.3a65.527,65.527,0,0,1-11.7,6.2c-.2.1.2.5.5.4A44.293,44.293,0,0,0,526.6,87.5Z"/><path class="b" d="M527.5,89.2c.1-.1-.1-.2-.2-.1-3.3,2.1-6.5,4.4-10,6.2-3.9,2.1-8.2,3.5-12.4,5.1-.2.1.2.4.4.3A75.605,75.605,0,0,0,527.5,89.2Z"/><g class="f"><path class="g" d="M531.3,90.1l-2.6-10.7s-15.4,1.4-28.1,10.9h0s11-4.9,12.9-4.2c2,.7-6.3,5.2-9.8,9.3,10.7-7.2,15.8-9,17.3-7.7,2,1.8-8.6,6.6-8.6,6.6s6-1.8,6.3-.9c.4.9-11,6.9-20.1,8.5s-5.5-4-1.3-8.5a6.093,6.093,0,0,0,.9-1.2,40.4,40.4,0,0,0-8.1,9.6C487.5,105,510.7,109.4,531.3,90.1Z"/></g><path class="g" d="M493.7,100.3c2.9-3.6,5.1-6.7,8.9-9.5a32.628,32.628,0,0,1,12-5.4c.2,0-.1-.2-.1-.2A31.708,31.708,0,0,0,493,100C492.8,100.3,493.5,100.5,493.7,100.3Z"/><path class="e" d="M563.5,97.6s2,25.2,22.8,37.1c3.4,2.4,8.5-19.5-11.5-39.4Z"/><path class="b" d="M578.2,119.4c-4.6-6.1-8.7-12.4-11.4-19.5,0-.1-.3.1-.2.2a62.569,62.569,0,0,0,11.3,19.5C578,119.9,578.3,119.5,578.2,119.4Z"/><path class="b" d="M572,99.6c-.1-.1-.4.2-.3.3a61.781,61.781,0,0,1,6.3,11.2c.1.2.5-.2.4-.4A41.11,41.11,0,0,0,572,99.6Z"/><path class="b" d="M573.9,98.8c-.1-.1-.2.1-.2.2a88.162,88.162,0,0,1,6.3,9.6,110.556,110.556,0,0,1,5.1,11.8c.1.2.4-.2.3-.3A63.007,63.007,0,0,0,573.9,98.8Z"/><g class="f"><path class="g" d="M574.8,95.3l-11.4,2.3s1.1,14.6,10.9,26.8h0s-5-10.5-4.2-12.3c.8-1.9,5.3,6.1,9.6,9.5-7.4-10.3-9.2-15.1-7.7-16.5,2-1.9,6.8,8.3,6.8,8.3s-1.7-5.7-.8-6,7,10.6,8.5,19.2-4.4,5.1-9,1.1q-.75-.6-1.2-.9a41.479,41.479,0,0,0,9.9,7.9C589.7,137,594.8,115.1,574.8,95.3Z"/></g><path class="g" d="M584.9,131.1c-3.7-2.8-6.9-5-9.8-8.7a29.851,29.851,0,0,1-5.5-11.5c0-.2-.2,0-.2.1,1.5,8.9,7.3,16,15.2,20.6C584.9,131.9,585.1,131.3,584.9,131.1Z"/><path class="e" d="M582.2,55.8s20.6-16.2,44.1-10.1c4.1.7-9,19.3-37.9,19.5Z"/><path class="b" d="M609,50.7a87.927,87.927,0,0,0-22.7,5.7c-.1,0-.1-.3,0-.3A67.85,67.85,0,0,1,609,50.3C609.3,50.3,609.2,50.7,609,50.7Z"/><path class="b" d="M589.7,60.2c-.2,0-.1-.3,0-.4a63.054,63.054,0,0,0,12.9-3.5c.2-.1.2.5,0,.6A48.012,48.012,0,0,1,589.7,60.2Z"/><path class="b" d="M590.4,62c-.1,0-.1-.2,0-.2,3.9-.7,7.8-1.3,11.7-2.3,4.3-1.2,8.4-3.1,12.6-4.7.2-.1.1.4,0,.5A76.464,76.464,0,0,1,590.4,62Z"/><g class="f"><path class="g" d="M588.3,65.1l-6.1-9.3s11.9-9.3,27.9-11.2h0s-11.4,3.9-12.3,5.7c-.8,1.8,8.3-.6,13.9-.1-12.9,2.1-17.9,4.2-17.9,6.2-.1,2.6,11-1.1,11-1.1s-5.5,2.8-5.1,3.6c.4.9,12.9-2.5,20.6-7.5,7.6-5,.9-6.6-5.4-6.9a5.419,5.419,0,0,1-1.5-.2,44.563,44.563,0,0,1,12.9,1.3C630.4,46.3,617.3,65,588.3,65.1Z"/></g><path class="g" d="M622.6,47.1c-4.7-.6-8.6-1.3-13.4-.7a33.113,33.113,0,0,0-12.6,4.3c-.1.1-.1-.2,0-.2,7.8-5.1,17.2-6.1,26.2-3.9C623.1,46.6,622.8,47.2,622.6,47.1Z"/><path class="e" d="M534.8,90s-25.1,10.9-27,36.2c-.4,2.2,19.4,3.7,36.8-30.6Z"/><path class="b" d="M530.3,96.2c-5.5,4-10.4,10.1-12.5,16.4-.1.3.3.2.4,0,2.7-6.1,6.6-12,12.2-16C530.6,96.4,530.6,96,530.3,96.2Z"/><path class="b" d="M533.3,96.4a52.485,52.485,0,0,0-4,4.2c-.3.3.1.5.3.2,1.2-1.4,2.5-2.9,3.8-4.3C533.5,96.5,533.5,96.2,533.3,96.4Z"/><path class="b" d="M535.9,98.6c-2.1,6.4-8.8,12-14.2,16-.2.2-.3.7.1.5,5.5-3.8,12.7-9.9,14.4-16.4C536.1,98.4,535.9,98.5,535.9,98.6Z"/><path class="b" d="M538.1,99.5c-1.6,2.8-2.7,5.7-4.5,8.3a47.024,47.024,0,0,1-7.1,7.7c-.3.3-.2.7.2.4a40.687,40.687,0,0,0,7.2-7.8c1.9-2.7,2.9-5.7,4.4-8.5C538.4,99.4,538.2,99.4,538.1,99.5Z"/><g class="f"><path class="g" d="M534.8,90a53.386,53.386,0,0,0-19.2,15.7h0s8.2-7.9,11.1-8.6c2.3-.5-4.2,5.1-7.5,12.2,0,0,7.2-9.9,9.5-10.2s-2.1,4.7-2.1,4.7,4.5-5.2,6.9-4.5S529,109.9,521.7,115c4.3-1.8,10.5-8.7,11.5-8.3s-9.7,13.8-20.1,17.5c-6.8,2.2-3.7-8.5.3-15.1h-.1a39.692,39.692,0,0,0-5.5,17c-.4,2.2,19.4,3.7,36.8-30.6Z"/></g><path class="g" d="M509.8,123c1.3-4.9,2.2-9.1,4.8-13.6a33.968,33.968,0,0,1,10-10.7c.2-.1-.1-.2-.2-.1A33.328,33.328,0,0,0,509.1,123C509,123.4,509.8,123.3,509.8,123Z"/><path class="e" d="M526,66.4s-26.5,1-39.8-19.8c-1.4-1.7,14.9-11.2,45.6,11Z"/><path class="b" d="M519.3,62.9A36.224,36.224,0,0,1,501,54c-.2-.2.2-.3.3-.1,5.1,4.1,11.2,7.5,17.8,8.7C519.4,62.6,519.7,63,519.3,62.9Z"/><path class="b" d="M521.7,61.5a39.339,39.339,0,0,1-5.4-2c-.4-.2-.2-.5.2-.3,1.7.7,3.4,1.5,5.2,2.1C521.9,61.4,522,61.6,521.7,61.5Z"/><path class="b" d="M522.9,58.5c-4.8-4.6-13-6.6-19.5-7.8-.3,0-.6-.5-.1-.4,6.5,1,15.4,3.2,19.9,8.1C523.3,58.6,523,58.6,522.9,58.5Z"/><path class="b" d="M524.4,56.9c-2.6-1.7-4.9-3.7-7.7-5.2a46.2,46.2,0,0,0-9.6-3.6c-.4-.1-.5-.6,0-.4a48.217,48.217,0,0,1,9.8,3.7c2.9,1.5,5.1,3.7,7.7,5.5Z"/><g class="f"><path class="g" d="M526,66.4a54.838,54.838,0,0,1-23.7-5.5h0s10.7,3.4,13.5,2.7c2.2-.5-5.9-2.6-12-7.4,0,0,10.7,5.5,12.8,4.8s-4-3.2-4-3.2,6.3,2.6,8,1-8.7-7.2-17.4-8.6c4.6-.2,13,3.1,13.7,2.4.7-.8-14.6-7.8-25.2-6.6-6.8.9.8,8.8,7.2,12.8h-.1a39.473,39.473,0,0,1-12.5-12.3c-1.4-1.7,14.9-11.2,45.6,11Z"/></g><path class="g" d="M489.5,48.5c3.4,3.7,6,6.9,10.4,9.7a35.671,35.671,0,0,0,13.4,5c.2,0,0,.2-.1.2a34.293,34.293,0,0,1-24.3-14.5C488.6,48.5,489.3,48.3,489.5,48.5Z"/><path class="e" d="M543.4,97s-14.9,23.2-7.2,42.7c1.6,3,20.3-14,19-40.8Z"/><path class="b" d="M545.9,100.9c-1.9,3.2-3.9,7-4.4,10.7,0,.3.4,0,.4-.1a79.792,79.792,0,0,1,4.3-10.5C546.3,100.6,546,100.7,545.9,100.9Z"/><path class="b" d="M547.3,100.7c-2.9,5.8-4.1,12.3-4.5,18.7,0,.3.4,0,.4-.2,1.2-6.3,1.7-12.5,4.4-18.5C547.7,100.5,547.4,100.5,547.3,100.7Z"/><path class="b" d="M549.8,101c0-.2-.3.1-.3.2,1,7.1-.8,14.9-3,21.6-.1.3.3.1.3-.1C549.4,116.4,551.5,107.7,549.8,101Z"/><g class="f"><path class="g" d="M555.2,98.8,543.4,97a69.645,69.645,0,0,0-8.2,20.3c.5-1.7,4.1-12.5,6.8-14,2.9-1.6-1.7,12.5-1.7,12.5s2.6-7.1,3.3-7.7-1.1,14.3-1.1,14.3,3.6-15.8,5.3-16,.5,18-6.7,26.9c-5.4,6.3-6.9-2.3-6.7-9.9v-.5a35.6,35.6,0,0,0,1.9,16.7C537.7,142.6,556.4,125.7,555.2,98.8Z"/></g><path class="g" d="M537.3,134.7c-.9-5-1.9-9.1-1.5-14.3a33.163,33.163,0,0,1,4.5-13.6c.1-.2-.2-.1-.3,0-5.7,8.6-6.5,18.6-3.5,28.2C536.6,135.4,537.3,135,537.3,134.7Z"/><path class="e" d="M587.3,76.3s27.9,6.2,37.2,25c1.1,3.1-24.7,3.9-44.1-15.7Z"/><path class="b" d="M588.4,80.6a35.132,35.132,0,0,1,11.2,4.5c.3.2-.2.3-.4.2a73.08,73.08,0,0,0-10.9-4.4C588,80.8,588.2,80.6,588.4,80.6Z"/><path class="b" d="M587.3,81.5c6.4,2.1,12.2,5.9,17.3,10,.3.2-.3.2-.4.1-5.6-3.6-10.6-7.6-17-10C586.9,81.6,587.1,81.4,587.3,81.5Z"/><path class="b" d="M585.8,83.4c-.1-.2.3-.1.3,0,4.6,5.7,11.8,9.9,18.4,13.1.3.1-.1.3-.3.2C597.7,93.9,589.6,89.2,585.8,83.4Z"/><g class="f"><path class="g" d="M580.4,85.5l6.9-9.3a79.275,79.275,0,0,1,21.1,8.7c-1.6-.8-12.3-6-15.3-5.2-3.3.8,10.6,7.6,10.6,7.6s-7.1-3.2-8.1-3.1,11.5,9.2,11.5,9.2-14.4-8.6-15.7-7.7c-1.4,1,13.2,12.9,25,14.3,8.5.7,3.1-6.3-2.7-11.5l-.4-.4a38.448,38.448,0,0,1,11.3,13C625.6,104.4,599.8,105.2,580.4,85.5Z"/></g><path class="g" d="M620,98.5c-3.1-4.1-5.5-7.7-9.7-11A36.347,36.347,0,0,0,596.9,81c-.2,0,.1-.2.2-.2,10.5,2.1,18.6,8.7,23.7,17.4C620.9,98.6,620.1,98.7,620,98.5Z"/><path class="e" d="M530.4,54.3s-26.9-11.2-32.5-31.9c-.5-3.4,25.7.5,41.3,23.8Z"/><path class="b" d="M530.1,49.6a37.207,37.207,0,0,1-10.4-6.5c-.2-.2.3-.2.4-.1a76.1,76.1,0,0,0,10.2,6.4C530.6,49.6,530.3,49.7,530.1,49.6Z"/><path class="b" d="M531.4,49A55.915,55.915,0,0,1,516,35.8c-.2-.3.3-.2.5-.1,4.9,4.7,9.2,9.6,15.2,13.1C531.9,49,531.6,49.1,531.4,49Z"/><path class="b" d="M533.4,47.3c.1.2-.3.1-.3,0-3.5-6.5-9.9-12.1-15.9-16.5-.3-.2.2-.2.3-.1C523.4,34.6,530.6,40.8,533.4,47.3Z"/><g class="f"><path class="g" d="M539.2,46.2l-8.8,8.1a78.424,78.424,0,0,1-19.5-12.5c1.5,1.1,11.2,8.3,14.4,8,3.5-.3-9.2-9.6-9.2-9.6s6.5,4.5,7.5,4.6-9.8-11.4-9.8-11.4,12.8,11.3,14.4,10.5S517.5,28.5,505.9,25c-8.4-2.3-4.3,5.8.4,12a1.381,1.381,0,0,0,.3.4,36.322,36.322,0,0,1-8.7-15.1C497.4,19,523.6,22.9,539.2,46.2Z"/></g><path class="g" d="M501.9,26c2.3,4.7,4,8.7,7.6,12.8a35.93,35.93,0,0,0,12.2,8.9c.2.1-.1.2-.2.2-10.1-4-17-12.1-20.4-21.8C501,25.8,501.8,25.7,501.9,26Z"/><path class="e" d="M563.8,98.1c13.8,29.7-.8,46.2-2.2,44.3-15.3-20.6-6.4-43.5-6.4-43.5Z"/><path class="b" d="M558.7,102c0-.2-.4.1-.4.2a99.277,99.277,0,0,0,.4,10.9c0,.3.5-.1.5-.4C559,109.2,558.8,105.6,558.7,102Z"/><path class="b" d="M560.6,102.1c-.1-.1-.3.1-.3.3,2.8,6.9,3.7,13.8,4.1,21.2,0,.3.5-.1.5-.3A47.141,47.141,0,0,0,560.6,102.1Z"/><g class="f"><path class="g" d="M563.8,98.1l-8.6.7a49.349,49.349,0,0,0-2.2,21.8h.1s.7-15.9,3-18.2,2,13.6,3.2,18.3c-.2-10.1,2.4-15.3,4.2-5.1,3.1,17.4,2.8,1.5-.7-9.9-2.4-7.6,13.4,14.8-.2,33.5a33.193,33.193,0,0,1-9.2-16.7c0,.1-.1.2-.1.3a43.614,43.614,0,0,0,8.3,19.5C563,144.4,577.6,127.8,563.8,98.1Z"/></g><path class="g" d="M562,137.1c-2.7-4.4-5.1-7.9-6.6-12.9a32.442,32.442,0,0,1-.7-14.2c0-.2-.2,0-.2.1-2.2,9.9.7,19.6,7,27.6C561.7,138,562.2,137.4,562,137.1Z"/><path class="e" d="M583.4,74.3c30.5,14.7,48.8,1.8,46.8.3-20.9-15.6-45.6-8.4-45.6-8.4Z"/><path class="b" d="M587.7,69.7c-.2,0,.1-.3.2-.3a111.534,111.534,0,0,1,11.5,1c.3,0-.2.5-.4.5C595.3,70.4,591.5,70,587.7,69.7Z"/><path class="b" d="M587.8,71.5c-.1-.1.2-.3.3-.2,7.2,3,14.4,4.2,22.2,5.1.3,0-.1.5-.3.5A56.217,56.217,0,0,1,587.8,71.5Z"/><g class="f"><path class="g" d="M583.4,74.3l1.2-8.1a57.36,57.36,0,0,1,23.1-.9v.1s-16.8-.2-19.4,1.9,14.2,2.6,19.1,4c-10.6-.8-16.2,1.4-5.6,3.7,18.2,3.9,1.5,2.8-10.4-1.2-7.9-2.7,14.9,13.4,35.4,1.7a35.284,35.284,0,0,0-17.1-9.6c.1,0,.2-.1.3-.1a50.016,50.016,0,0,1,20.1,8.9C632.2,76.1,613.9,89,583.4,74.3Z"/></g><path class="g" d="M624.6,74.8c-4.5-2.8-8.1-5.3-13.3-6.9a39.8,39.8,0,0,0-15-1.5c-.2,0,0-.2.1-.2a36.52,36.52,0,0,1,28.7,8.2C625.5,74.5,624.9,75,624.6,74.8Z"/><path class="e" d="M560.3,44.5c12.5-30.2-2.9-46.2-4.2-44.1-14.3,21.3-4.4,43.8-4.4,43.8Z"/><path class="b" d="M555.1,40.9c0,.2-.4-.1-.4-.2a79.31,79.31,0,0,1-.1-10.9c0-.3.5.1.5.3C555,33.7,555.1,37.2,555.1,40.9Z"/><path class="b" d="M557,40.6c-.1.1-.3-.1-.3-.3,2.4-7,3-14,3.2-21.4,0-.3.5.1.5.3A48.7,48.7,0,0,1,557,40.6Z"/><g class="f"><path class="g" d="M560.3,44.5l-8.6-.4a49.9,49.9,0,0,1-3.2-21.7h.1s1.4,15.9,3.8,18.1,1.4-13.7,2.4-18.4c.2,10.1,3,15.2,4.4,4.9,2.3-17.5,2.8-1.6-.3,9.9-2,7.7,12.7-15.3-1.7-33.5a32.193,32.193,0,0,0-8.4,17.1c0-.1-.1-.2-.1-.3A45.7,45.7,0,0,1,556.1.4C557.5-1.7,572.8,14.3,560.3,44.5Z"/></g><path class="g" d="M556.8,5.6c-2.5,4.5-4.8,8.1-6,13.2a32.412,32.412,0,0,0-.1,14.2c0,.2-.2,0-.2-.1-2.7-9.8-.2-19.6,5.8-27.9C556.5,4.8,557,5.3,556.8,5.6Z"/><path class="e" d="M550.8,44.3c-4.6-32.1-26.2-39-26.3-36.6C522.9,32.9,543.1,48,543.1,48Z"/><path class="b" d="M544.4,43.5c.1.2-.4.1-.4,0a91.845,91.845,0,0,1-5.7-9.5c-.2-.3.5-.2.6.1C540.6,37.2,542.5,40.3,544.4,43.5Z"/><path class="b" d="M545.9,42.4c0,.2-.4,0-.4-.1C544,35,541,28.7,537.3,22.1c-.2-.3.5-.2.6,0A48.084,48.084,0,0,1,545.9,42.4Z"/><g class="f"><path class="g" d="M550.8,44.3l-7.7,3.6a52.825,52.825,0,0,1-13.9-17.5l.1-.1s9.4,13.2,12.6,14-5.8-12.6-7.4-17.2c5.4,8.7,10.4,11.9,6.4,2.3-6.9-16.4,1.6-2.7,4.8,8.8C547.9,46,549,19,527.1,9.7a31.292,31.292,0,0,0,1.4,18.8c-.1-.1-.2-.1-.3-.2a44.606,44.606,0,0,1-3.7-20.7C524.7,5.2,546.3,12.1,550.8,44.3Z"/></g><path class="g" d="M527.8,11.8c.1,5.1,0,9.3,1.5,14.3a34.9,34.9,0,0,0,7.2,12.5c.1.1-.2.1-.3.1-7.4-7.3-10.2-17.1-9.2-27C527.1,11.3,527.8,11.6,527.8,11.8Z"/><path class="e" d="M571.1,47.7c26.9-20.8,20-42.2,17.7-41C564.6,18.7,563,43.4,563,43.4Z"/><path class="b" d="M567.8,42c-.1.2-.3-.2-.3-.4a76.27,76.27,0,0,1,5.3-9.7c.2-.3.5.4.3.6C571.3,35.6,569.6,38.8,567.8,42Z"/><path class="b" d="M569.8,42.7c-.1.1-.3-.3-.1-.4,5.8-5.1,9.8-10.9,13.6-17.4.2-.3.4.3.4.5A48.429,48.429,0,0,1,569.8,42.7Z"/><g class="f"><path class="g" d="M571.1,47.7,563,43.3a46.125,46.125,0,0,1,7.6-20.7h.1s-6.4,14.7-5.2,17.8,8.1-11.4,11.4-15.2c-4.8,9.1-4.5,14.9,1.8,6.4,10.9-14.4,3.5-.2-5.1,8.6-5.8,5.9,19.7-7.6,14.9-30.4A34.675,34.675,0,0,0,572,20.9v-.3a45.459,45.459,0,0,1,16.9-14C591.1,5.5,598,26.9,571.1,47.7Z"/></g><path class="g" d="M586.9,11.6c-4.6,2.8-8.6,4.9-12.3,8.8a31.953,31.953,0,0,0-7.1,12.5c-.1.2-.2-.1-.2-.2,2.2-9.9,9.5-17.5,19.3-21.9C586.9,10.7,587.1,11.5,586.9,11.6Z"/><path class="e" d="M579.8,55.1c31.8-12.1,33.5-33.6,31-33.2-26.2,4.7-36.6,27-36.6,27Z"/><path class="b" d="M579,49c-.2.2-.2-.3-.1-.4a87.231,87.231,0,0,1,8.4-7.6c.3-.2.3.5.1.6C584.5,44.1,581.8,46.5,579,49Z"/><path class="b" d="M580.5,50.2c-.2.1-.1-.3,0-.4,7.1-3.1,12.8-7.5,18.6-12.5.2-.2.3.4.1.5A51.468,51.468,0,0,1,580.5,50.2Z"/><g class="f"><path class="g" d="M579.8,55.1l-5.6-6.2a54.332,54.332,0,0,1,14.4-17.1l.1.1s-11.2,11.9-11.3,15c0,3.2,11.4-8.4,15.8-11-7.6,7.1-9.6,12.5-.8,6.4,15.1-10.4,3.2.8-7.8,6.6-7.3,3.9,20.5-1.8,24.6-24.1a36.525,36.525,0,0,0-18.9,5.9c0-.1.1-.2.1-.3a51.029,51.029,0,0,1,20.3-8.5C613.3,21.5,611.6,43,579.8,55.1Z"/></g><path class="g" d="M607.3,26c-5.2,1.4-9.5,2.3-14.2,4.9a34.26,34.26,0,0,0-11,9.7c-.1.1-.2-.1-.1-.2,5.7-8.6,15-13.6,25.4-15.1C607.7,25.2,607.6,26,607.3,26Z"/><path class="g" d="M551.1,37.2s1.7-4.4,2.9-1c.4,1,.3-2.4,2.4-.6.5.3,1-1.7,1.9.4.5.4,1.6-1.9,2.4-1.5.9.4.3,2.6.3,2.6s4.4-2.5,3,.2c1.4-1.3,2.2-1.9,2.7.3.4,1.7,3.2-2.6,3.1.8,0,1,3.2-2.3,2.3.7-.2.8,3.4-1.7,2.7,1-.1.9,3.7-1.9,2.3,1-.4.8,4.7-2.1,2.5,1.4-.3.5,5.2-1.6,2.8,1.6-.7.8,7.9.6,1.9,2.6,3,.6,3.7.8,1.5,1.8,2.5-.2,2.1,1.1,1,2.3,1.8-.5,2.4.7,1.9,1.6,2.1-1.1,2.7.2.9,2,3.6-.3,4.2.3,2.1,1.5,3.3.3,2.9,2.7,1,3.4,3.4.3,3.4,2.1,1.4,2.7,2.8,1.8,2.9,3.1.9,3.2,2.7,1.5,1.4,2.4-.3,2.6.6.6-1,1.9-1,1.9s5,.4.7,2.1c2.2,1,1.9,1.5-.7,2.8,2.6.7,1.2,2-1,2.5,1.6,2,.3,2.1-1,1.3,1.4,2.9,1.4,4.5-.4,3.7,1.2,2.1.2,1.9-1.5,2.7,1.7,1.2-.2,2-1.4,2.2,2.2,1.4.2,2.1-2,2.2,1.1,2.4.2,3.8-1.6,1.7,0,3.1-.5,3.1-1.8,1.8.4,1.8-.2,3.4-2.7,2.3.7,2.4-.6,2.7-1.5.6-.6,2.6-.4,3.5-1.8,1.1.4,3-1.9,3.5-4.4,1.7.8,3.4-.8,3.2-3,.8-.1,2.4-1.8,1.5-3.4.4.1,2.5-1,3.7-3.1,2-.1,2.3-1.4,1.2-2.3-.2-1.4,3-1.6,2.4-2.4.3-.9,2.9-3.1,2.6-3.6.4-1.6,2.5-2.3,2.4-3.5.3-1.9,3.1-2.2.5-2.8-1.2-1.2,2.8-2.8.9-2.7-.4-2.5,2.4-2.5,1.1-2.4-1-1.8,2.6-2.8,1.3-3.1-1.3-2.2,2.1-3.3,1.9-1.9-1.6-3.1,2.3-3.7.5-3.6-1.3-1.3,1.8-2.6-.3-1.7-1.6-1.4.9-1.1-.4-1.1-.4-2.3.9-3.1.1-1.6-1.9-5,.1-4.8-1.5-2.6-2.7-3.3-.7-3.1-1.5-1.6-2.6-2.6.7-3.1-.4-1.1-3.2-2.4,1.6-3.4-1-.9-3-3.6-.9-2.3-1.5-.6-2.8-2.9.6-4.3-2.6-.9-2.8-2.7-1.9-1.4-2.4.2-2.4-3.9-3.1-3.2-2.9-1-3.9-3.1-1.5-1.6-2.6.5-3.5-2.9.4-1.8-.7.3-2.2-3-2.6-1.3-2.9.6-3.1-2.4-1.2-.2-2.4,1.6-2.7-3.4-1.1-1.4-2,.4-1.9-3.8-3.1-2.1-3.9.5-2.7-2.9-2.9-.8-3.1,1.5-2.5-1.3-3.9.8-3.4,2.1-2.1-.3-2.6.2-2.7,2.3-1.9-1.6-3.2.1-2.8,2.5-2-1.5-2.6,0-2.6,3.4-2-.8-2.4.1-2.4,1.9-1.2-.8-2.7.8-2.6,3.5-1.4-.3-2.8.9-2.3,2.4-.9-.1-3.2,1.2-3.3,2-.9C549.2,34,550.7,34.8,551.1,37.2Z"/><path class="h" d="M551.7,39.8s1.5-4,2.7-.9c.3.9.2-2.2,2.2-.5.5.3.9-1.6,1.8.4.5.4,1.5-1.8,2.3-1.4s.3,2.4.3,2.4,4-2.3,2.7.2c1.3-1.2,2.1-1.8,2.4.3.4,1.6,2.9-2.4,2.8.7,0,.9,2.9-2.1,2.2.7-.2.7,3.1-1.6,2.4.9-.1.8,3.4-1.8,2.2.9-.4.7,4.3-1.9,2.3,1.3-.3.5,4.8-1.5,2.5,1.5-.7.7,7.2.6,1.8,2.4,2.7.6,3.4.7,1.4,1.7,2.4-.2,2,1,.9,2.1,1.7-.5,2.3.6,1.8,1.5,2-1,2.4.2.8,1.9,3.3-.3,3.9.3,2,1.4,3,.3,2.6,2.5.9,3.2,3.1.3,3.1,1.9,1.3,2.5,2.5,1.7,2.6,2.9.8,3,2.4,1.4,1.3,2.2-.3,2.4.6.6-.9,1.8-.9,1.8s4.6.4.7,1.9c2.1.9,1.8,1.4-.7,2.6,2.4.6,1.1,1.9-.9,2.3,1.5,1.9.3,1.9-.9,1.2,1.3,2.7,1.3,4.2-.4,3.4,1.1,1.9.2,1.8-1.4,2.5,1.6,1.1-.2,1.9-1.3,2,2.1,1.3.2,1.9-1.9,2,1,2.2.2,3.5-1.5,1.6,0,2.9-.5,2.9-1.7,1.7.4,1.7-.2,3.2-2.4,2.1.7,2.2-.6,2.5-1.4.6-.6,2.4-.4,3.2-1.7,1,.4,2.8-1.8,3.2-4,1.6.8,3.2-.8,3-2.7.7-.1,2.2-1.7,1.4-3.1.4.1,2.3-.9,3.4-2.8,1.9-.1,2.1-1.3,1.1-2.2-.2-1.3,2.8-1.5,2.2-2.3.3-.8,2.7-2.8,2.4-3.3.4-1.5,2.3-2.2,2.2-3.2.3-1.8,2.9-2.1.5-2.5-1.1-1.1,2.6-2.5.8-2.4-.4-2.3,2.2-2.3,1-2.3-.9-1.7,2.4-2.5,1.2-2.8-1.2-2.1,1.9-3.1,1.7-1.8-1.5-2.9,2.1-3.4.5-3.3-1.2-1.2,1.6-2.4-.3-1.6-1.5-1.3.9-1-.4-1-.4-2.1.9-2.9.1-1.4-1.7-4.6.1-4.4-1.4-2.4-2.5-3-.6-2.9-1.4-1.4-2.4-2.4.6-2.9-.4-1-3-2.2,1.5-3.1-1-.8-2.7-3.4-.8-2.1-1.4-.5-2.6-2.7.6-3.9-2.4-.8-2.6-2.5-1.7-1.3-2.2.2-2.2-3.6-2.9-2.9-2.7-.9-3.6-2.8-1.4-1.5-2.4.5-3.2-2.6.4-1.7-.6.3-2-2.7-2.4-1.2-2.7.6-2.9-2.2-1.1-.2-2.2,1.5-2.5-3.1-1-1.3-1.8.4-1.7-3.5-2.9-1.9-3.6.5-2.5-2.6-2.7-.8-2.9,1.4-2.3-1.2-3.6.8-3.1,1.9-1.9-.3-2.4.2-2.5,2.1-1.8-1.5-2.9.1-2.6,2.3-1.8-1.4-2.4,0-2.4,3.1-1.8-.8-2.2.1-2.2,1.8-1.1-.8-2.5.8-2.4,3.2-1.3-.3-2.6.9-2.1,2.2-.8-.1-2.9,1.1-3,1.8-.8C549.9,36.8,551.3,37.5,551.7,39.8Z"/><path class="i" d="M537.8,44c-1.5-.1-2.2.2-1.6,1.5a9.286,9.286,0,0,1,1.3.4C536.8,44.6,537,44.1,537.8,44Z"/><path class="i" d="M548,40.7a10.358,10.358,0,0,1,.4-1c-.6-1.3-1.2-1.4-1.5-.3C547.3,39.3,547.7,39.8,548,40.7Z"/><path class="i" d="M540.7,42.7c-1.1-.6-1.6-.3-1.1,1.4.2,0,.4.1.6.1C539.7,42.9,540,42.5,540.7,42.7Z"/><path class="i" d="M544.5,42.2v-.3c-2.3-1-3.8-1.1-3.1,1.2.1.1.2.1.4.2C541.1,41.1,542.4,41.2,544.5,42.2Z"/><path class="i" d="M546.4,41.5v-.7c-1-.8-1.8-1.1-1.9.2C544.8,40.2,545.6,40.6,546.4,41.5Z"/><path class="i" d="M556.4,39.4c.4.3,1.1-1.1,1.7-1.2-.7-1.1-1.1.4-1.5.1-1.4-1.2-1.8.2-2,.6.1.1.2.1.3.2C555.3,39.3,555.7,37.7,556.4,39.4Z"/><path class="i" d="M558.6,40.3s1.7-1,2.3-.8c.1-.5.3-1.9-.3-2.2s-1.4,1.1-1.9,1.4A3.393,3.393,0,0,1,558.6,40.3Z"/><path class="i" d="M553,39.5c.3.7.2-1.3,1.4-.8-.7-1.8-1.5-1-2.1-.2A2.856,2.856,0,0,1,553,39.5Z"/><path class="i" d="M550.7,40.4a12.3,12.3,0,0,1,.8-1.5c-.4-1.2-1.3-1.5-2.1-.1C550,38.5,550.5,39.2,550.7,40.4Z"/><path class="i" d="M533.7,48.9a5.74,5.74,0,0,1-.1-1.2c-1-.3-1.5-.3-1.6.5C532.4,48,533.1,48.4,533.7,48.9Z"/><path class="i" d="M535.5,47.4c-.5-.9-.6-1.4-.4-1.7-1.2-.3-1.8,0-1.2,1.5C534.1,47,534.7,47.1,535.5,47.4Z"/><path class="j" d="M592.1,65.8c1.9-.1,1.8-1.3-.8-3,1.9-.6,1.9-2.2-1.3-2.5,1.8-.6,2.2-2.9-.9-3.2,2-1.1,1.4-1.7-2-1.4,1.7-1.7,1.2-2.9-.8-1.9.5-.8-.1-1.9-1.8-1.5,1.1-1.1,1.5-2.3-.9-2.1,2.1-.9,1.4-1.1-1.4-1.7,5.5-1.9-2.4-1.7-1.8-2.4,2.3-3-2.8-1-2.5-1.5,2-3.2-2.7-.6-2.3-1.3,1.3-2.7-2.3-.1-2.2-.9.7-2.5-2.6-.2-2.4-.9.8-2.8-2.2.3-2.2-.7.1-3.2-2.4.8-2.8-.7-.4-2-1.2-1.5-2.4-.3,1.1-2.2-1.7-.7-2.5-.3.1.1.1.4-.1.9,1.1-1,1.8-1.5,2.1.2.3,1.4,2.5-2.1,2.5.6,0,.8,2.5-1.8,1.9.6-.2.6,2.7-1.4,2.1.8-.1.7,3-1.5,1.9.8-.3.6,3.7-1.7,2,1.1-.3.4,4.2-1.3,2.2,1.3-.6.6,6.3.5,1.5,2.1,2.4.5,3,.6,1.2,1.4,2-.2,1.7.9.8,1.8,1.4-.4,1.9.6,1.5,1.3,1.7-.9,2.1.2.7,1.6,2.9-.2,3.4.2,1.7,1.2,2.6.2,2.3,2.2.8,2.7,2.7.2,2.7,1.7,1.1,2.2,2.2,1.4,2.3,2.5.7,2.6,2.1,1.2,1.1,1.9-.3,2.1.5.5-.8,1.5-.8,1.5s4,.3.6,1.7c1.8.8,1.5,1.2-.6,2.2,2,.6.9,1.6-.8,2,1.3,1.6.3,1.7-.8,1,1.1,2.3,1.1,3.6-.3,3,.9,1.7.2,1.5-1.2,2.2,1.4,1-.2,1.6-1.1,1.8,1.8,1.1.2,1.7-1.6,1.8.8,1.9.2,3-1.3,1.4,0,2.5-.4,2.5-1.4,1.4.3,1.4-.2,2.7-2.1,1.8.6,1.9-.5,2.2-1.2.5-.5,2.1-.3,2.8-1.4.9.3,2.4-1.5,2.8-3.5,1.4.7,2.7-.7,2.6-2.4.6-.1,1.9-1.4,1.2-2.7.3.1,2-.8,3-2.5,1.6-.1,1.8-1.1,1-1.9-.2-1.1,2.4-1.3,1.9-1.9.2-.7,2.3-2.5,2.1-2.9.3-1.3,2-1.9,1.9-2.8.2-1.5,2.5-1.8.4-2.2-1-.9,2.2-2.2.7-2.1-.3-2,1.9-2,.9-1.9-.8-1.4,2.1-2.2,1-2.5-1-1.8,1.7-2.7,1.5-1.5-1.3-2.5,1.8-2.9.4-2.8-1.1-1,1.4-2-.2-1.4-1.3-1.1.8-.9-.3-.9-.3-1.8.7-2.5.1-1.2-1.5-4,.1-3.8-1.2-2-2.1-2.6-.5-2.5-1.2-1.2-2-2,.5-2.5-.3-.9-2.6-1.9,1.3-2.7-.8-.7-2.4-2.9-.7-1.8-1.2-.5-2.2-2.3.5-3.4-2.1-.7-2.3-2.2-1.5-1.1-1.9.2-1.9-3.1-2.5-2.5-2.3-.8-3.1-2.4-1.2-1.3-2.1.4-2.8-2.3.3-1.4-.6.3-1.8-2.4-2.1-1-2.3.5-2.5-1.9-1-.2-1.9,1.3-2.1-2.7-.9-1.1-1.6.3-1.5-3-2.5-1.7-3.1.4-2.2a3.138,3.138,0,0,1-.8-1c-2.1-.5-3.8-.3-1.2,2.3-2.4-1.1-4-.4-.5,2.5-1.7-.1-3.5.7-.4,1.7-1.7.3-3.7,1.4-1.5,2.5-1.8.2-3.3.5-.6,2.9-1.9,1.4-2.9,2.4-.3,2-1.9.8-3.3,1.8-.5,3.2-2,.9-2.7.7.9,3.6-1.5,0-2.7.5-.2,2.2-3.1.2-1.8,3.2.8,2.6-1.6,1.2-2.8,1.8.5,2.6-2.3,1.8-1.4,4.2.8,2.7-1.8,2.6-1.3,3.6,1,3-1.4,1-1.6,1.7,1.4,2.4-2.1,1.1-2.2,2.6,2.4,2.5-1.4,1.9-.7,2.6,1.4,1.7,0,0-.3,1.2,1,.4-.8,1.2.4,3.1,1.6,1.5-.1,1.7.4,3.3,3.3,1.2-1.3,3.2-.3,3.4,1.8,1.5.3,2.4,1.2,3.6,2.8,1.2-.1,1.9-.1,3.2,2.3.9-.1,1.2,1.4,3,2.4.4.5,1.6.8,4,2.5,1.1,1.1,1.9,1.8,2,3.2-.3.5,2,2.5,2.3,3.3-.4.8,1.9,1,2.5,2.3-.3.9,1.3,2.1,2.3,2.2.2,2,1.6,2.9.5,2.8-1.9,1.5,1,3,1.9,3.1-.4,2,2.2,3.5,2.4,2.7-.7,2.3,1.7,4.4,1.2,4-1.6,1.3,2.2,1.1,1.4,1.7-1,.8,1.9,2.1,1.7,1.4-.6,2.3,1,2.8-.5,2.4-2.1,1.2,1.2,1.7,1.2,1.7-1.7,1.7,1.9,2.4.6,1.5-1.6,2.1-.1,3.9-.7,1.9-2,1.1-.2,2.8-.9,1.3-2,1.6-.7,2.4-.6,1.4-2.5,1.7.7,1.7-.7.4-3.4,1.2.7,2.3.7.9-1.2,2-.5,3.2-1.7.9-2.3,2.4-1.2,2.7-1.7.7-2.6,3.9-1.6-.7-1.9-.7-1.9s1.5-1.2.9-1.8C593.3,68,594.5,67.1,592.1,65.8Z"/><path class="i" d="M532,50.6a10.331,10.331,0,0,1-.3-1.2c-1-.8-2.3-1-1.9,1.2C530.2,50.3,531,50.4,532,50.6Z"/><path class="i" d="M529.8,50.6c-.2.2-.2.5.1,1h.1A2.956,2.956,0,0,0,529.8,50.6Z"/><path class="i" d="M552.3,38.6a.67.67,0,0,0-.8.3,2.389,2.389,0,0,1,.2.9A12.01,12.01,0,0,1,552.3,38.6Z"/><path class="i" d="M558.7,38.7c-.1-.2-.2-.4-.3-.4h-.3a2.186,2.186,0,0,1,.3.5A.367.367,0,0,1,558.7,38.7Z"/><path class="i" d="M539.6,44.1a5.96,5.96,0,0,0-1.8-.1,6.723,6.723,0,0,1,1.8.3Z"/><path class="i" d="M561.1,39.6c0-.1-.1-.1-.2-.1v.2A.31.31,0,0,0,561.1,39.6Z"/><path class="i" d="M554.6,38.9c-.1-.1-.2-.1-.3-.2v.1C554.5,39.1,554.6,39,554.6,38.9Z"/><path class="i" d="M541.4,43.1a1.329,1.329,0,0,0-.7-.3c.2.1.5.3.7.4Z"/><path class="i" d="M536.2,45.5c-.6-.1-1-.1-1.1.2a10.259,10.259,0,0,1,1.4.4Z"/><path class="i" d="M544.6,40.9a2.22,2.22,0,0,0-.1.9h.1Z"/><path class="i" d="M549.4,38.8a1.8,1.8,0,0,0-.9,1c.1.1.1.3.2.5A3.492,3.492,0,0,1,549.4,38.8Z"/><path class="i" d="M547,39.4c-.3.1-.4.5-.5,1.3a1.38,1.38,0,0,0,.4.3A3.9,3.9,0,0,1,547,39.4Z"/><path class="i" d="M533.9,47.2a1.628,1.628,0,0,0-.3.6c.2.1.4.1.6.2A2,2,0,0,1,533.9,47.2Z"/><path class="i" d="M532.1,49.7a8.172,8.172,0,0,1-.1-1.4c-.2.1-.4.5-.3,1.1A1.381,1.381,0,0,0,532.1,49.7Z"/><path class="k" d="M531,54.2c-.2-.1-.5.3-.3.4.5.3.7.7,1.1,1,.1.1.3-.2.3-.3C532.1,54.7,531.6,54.4,531,54.2Z"/><path class="k" d="M532.8,53.3c-.1-.4-.7.2-.6.5.1.2.2.3.2.5.1.3.5-.2.5-.4S532.8,53.5,532.8,53.3Z"/><path class="k" d="M536.1,54.4a6.574,6.574,0,0,0-1.9-2.2c-.2-.2-.5.3-.4.5a11.865,11.865,0,0,1,1.6,2.3C535.7,55.3,536.2,54.7,536.1,54.4Z"/><path class="k" d="M536.3,52.1c.2-.5-.5-.2-.6.1a.954.954,0,0,0,.3,1.2c.2.2.5-.3.5-.5C536.4,52.6,536.2,52.3,536.3,52.1Z"/><path class="k" d="M538.5,50.4a6.2,6.2,0,0,0-1.4-1.4c-.2-.2-.7.4-.5.6.4.4.8,1,1.4,1.2C538.3,51,538.7,50.6,538.5,50.4Z"/><path class="k" d="M539.5,49.5c-.2-.3-.4-.5-.6-.8s-.7.3-.5.5a2.407,2.407,0,0,0,.6.8C539.3,50.1,539.7,49.7,539.5,49.5Z"/><path class="k" d="M542.9,47.1c-.4-.7-.4-1.5-.9-2.1-.1-.2-.3.1-.3.3.2.8,0,1.9.7,2.4C542.6,47.8,543,47.3,542.9,47.1Z"/><path class="k" d="M545.4,44.2c.1-.2.2-.4,0-.4-.1,0-.2.1-.3.2-.2.1-.5.4-.4.6.1.4.2.5.6.6.2,0,.4-.3.4-.4A3.285,3.285,0,0,1,545.4,44.2Z"/><path class="k" d="M547.9,42.9c-.3,0-.6.6-.3.6C547.8,43.5,548.1,42.9,547.9,42.9Z"/><path class="k" d="M551.5,43c-.1-.1-.3-.3-.3-.4-.1-.3-.7.3-.7.6a1.332,1.332,0,0,0,.3.5h.2c.1,0,.1,0,.2-.1S551.6,43.2,551.5,43Z"/><path class="k" d="M553.9,42.9c-.1-.2-.3-.3-.4-.4-.2-.2-.8.4-.5.7.1.1.3.2.4.4C553.6,43.7,554,43.1,553.9,42.9Z"/><path class="k" d="M555.7,42.1c-.3,0-.7.7-.4.7C555.7,42.8,556.1,42.1,555.7,42.1Z"/><path class="k" d="M550.7,45.3c0-.3-.5.1-.5.3a1.8,1.8,0,0,0,.1,1c.1.3.4,0,.4-.2Z"/><path class="k" d="M554.7,44.8a.367.367,0,0,1-.3-.1c-.1-.3-.7.3-.6.6s.3.3.6.2S555.1,44.8,554.7,44.8Z"/><path class="k" d="M559.6,41.8a6.884,6.884,0,0,0-.2,1.3c0,.4.5,0,.6-.3a5.85,5.85,0,0,1,.2-1.3C560.1,41.3,559.6,41.6,559.6,41.8Z"/><path class="k" d="M562.6,42.6c0-.1-.1-.2-.1-.3,0-.3-.6.1-.6.4s0,.4.3.5S562.9,42.7,562.6,42.6Z"/><path class="k" d="M565.2,43.4a.1.1,0,0,0-.1-.1H565c-.3-.1-.7.5-.5.7,0,.1,0,.2.1.2h.1a.792.792,0,0,0,.5-.8Z"/><path class="k" d="M562.1,43.9a.758.758,0,0,0-.4.2c-.3.1-.5.7-.1.6a.758.758,0,0,1,.4-.2C562.1,44.3,562.4,43.8,562.1,43.9Z"/><path class="k" d="M543.3,50.5l-1.2-.9c-.2-.1-.6.4-.4.5.4.3.7.8,1.1,1C543.1,51.3,543.5,50.7,543.3,50.5Z"/><path class="k" d="M530.9,57c-.2-.2-.5.3-.4.5.4.5.5,1.1.9,1.4.2.2.5-.4.5-.5A4.508,4.508,0,0,0,530.9,57Z"/><path class="k" d="M534.9,56.7c0-.1-.1-.1-.1-.2-.2,0-.3-.1-.5,0-.1,0-.2.2-.2.3h0v.1h0c0,.1.1.2.1.3s.1.1.2.1h.1c.2,0,.4-.3.4-.5Z"/><path class="k" d="M546.5,54c-.1,0-.3.3-.1.3C546.5,54.2,546.6,54,546.5,54Z"/><path class="k" d="M530.8,63.4a.9.9,0,0,0-.1,1c.1.3.5-.2.5-.3.1-.2.1-.5.2-.7C531.5,62.9,530.9,63.2,530.8,63.4Z"/><path class="k" d="M533.1,67.1v.1h0c0,.4.7-.2.7-.4v-.1C533.9,66.2,533.1,66.7,533.1,67.1Z"/><path class="k" d="M541.2,55.4c-.1.1-.1.2-.2.3,0,.1,0,.2.1.2s.2-.1.3-.1C541.8,55.4,541.5,54.9,541.2,55.4Z"/><path class="k" d="M537.1,68.3a2.177,2.177,0,0,0-.5.8c-.1.2.1.2.3.1l.5-.5C537.7,68.5,537.5,68,537.1,68.3Z"/><path class="k" d="M532.7,72.8c-.1.1-.1.3,0,.3h.1c.2.1.4-.3.5-.4v-.1C533.6,72.2,532.9,72.3,532.7,72.8Z"/><path class="k" d="M530.8,74.5c-.1-.1-.1-.3-.2-.4-.1-.4-.8.2-.7.5s.2.5.5.5C530.7,75,530.9,74.7,530.8,74.5Z"/><path class="k" d="M568,48.2c-.1-.1-.2-.1-.3-.3-.2-.3-.8.3-.6.6s.4.4.7.3C567.9,48.7,568.2,48.3,568,48.2Z"/><path class="k" d="M572.1,45.9c-.2,0-.5.2-.5.4,0,.1,0,.2.1.2h.1C572.2,46.6,572.5,45.9,572.1,45.9Z"/><path class="k" d="M568.8,43.9c-.3,0-.6.6-.3.6S569.1,43.9,568.8,43.9Z"/><path class="k" d="M573.7,46.9V47c.1.4.5-.1.5-.3v-.1C574.4,46.1,573.6,46.5,573.7,46.9Z"/><path class="k" d="M574.7,48.7a.367.367,0,0,0,.1.3c.1.2.5-.2.5-.3s.1-.2.1-.4C575.4,47.8,574.7,48.3,574.7,48.7Z"/><path class="k" d="M574.2,51.1c-.3,0-.7.7-.4.7C574.2,51.8,574.6,51.1,574.2,51.1Z"/><path class="k" d="M572.4,49c-.1,0-.3.1-.4.1-.3.1-.6.8-.1.6.1,0,.3-.1.4-.1C572.5,49.5,572.7,48.9,572.4,49Z"/><path class="k" d="M578.6,51.3c-.2-.4-.8.3-.7.6v.5c-.1.2,0,.6.3.3C578.6,52.3,578.9,51.9,578.6,51.3Z"/><path class="k" d="M557.5,47.6a1.269,1.269,0,0,0,.1.6c.1.3.4-.1.5-.3,0-.2.1-.4.1-.6C558.1,46.9,557.5,47.3,557.5,47.6Z"/><path class="k" d="M562.4,48.1c-.1.1-.2.1-.3.2-.1,0-.3.5-.1.5a.9.9,0,0,0,.5-.1C562.7,48.4,562.8,47.8,562.4,48.1Z"/><path class="k" d="M553.6,47.3c-.2-.5-1.1.4-1.1.8v.2c-.1.5.4.5.7.3l.1-.1a1.016,1.016,0,0,0,.5-1C553.7,47.4,553.7,47.3,553.6,47.3Z"/><path class="k" d="M576.9,53.8c-.3,0-.8.8-.4.8C576.8,54.5,577.2,53.8,576.9,53.8Z"/><path class="k" d="M575.6,49.7c-.2,0-.2.1-.4.1-.1.1-.3.4-.2.5a.769.769,0,0,0,.3.2C575.7,50.6,576,49.7,575.6,49.7Z"/><path class="k" d="M580.3,56.3c-.4,0-1,1-.5,1C580.2,57.2,580.7,56.3,580.3,56.3Z"/><path class="k" d="M576.5,61.3c-.4,0-.9.9-.5.9C576.4,62.3,576.9,61.3,576.5,61.3Z"/><path class="k" d="M583,64c-.2-.5-1.1.4-.9.8a.1.1,0,0,0,.1.1c0,.1.1.1.2.1h.1c.3,0,.5-.3.6-.5C583.1,64.3,583.2,64.2,583,64Z"/><path class="k" d="M581.6,65.7c-.3,0-.6.6-.3.6S581.9,65.7,581.6,65.7Z"/><path class="k" d="M579,66.2c0-.6-1.1.6-.4.6h.1c.2,0,.3-.3.3-.4S579,66.2,579,66.2Z"/><path class="k" d="M540.8,75.1h0c.1.3.5-.1.5-.2v-.1C541.4,74.3,540.6,74.7,540.8,75.1Z"/><path class="k" d="M541.1,79.6c-.3,0-.7.7-.3.7C541,80.3,541.4,79.6,541.1,79.6Z"/><path class="k" d="M537.1,80.3c-.6,0-1.3,1.3-.7,1.3S537.7,80.3,537.1,80.3Z"/><path class="k" d="M543.8,80.4a.1.1,0,0,0-.1.1.664.664,0,0,0-.4.5h0c0,.3.5-.1.5-.2,0,.1-.1.1-.1.2C544,80.9,544.3,80.1,543.8,80.4Z"/><path class="k" d="M543.7,86.1c-.2,0-.5.5-.2.5C543.6,86.6,543.9,86.1,543.7,86.1Z"/><path class="k" d="M554.7,85v.2c0,.3.4-.1.4-.2v-.3C555.1,84.4,554.7,84.8,554.7,85Z"/><path class="k" d="M555.1,88.4l-.1.1c-.3.2-.2.7.1.4l.1-.1C555.4,88.6,555.4,88.2,555.1,88.4Z"/><path class="k" d="M567.2,82.6c-.3,0-.6.6-.3.6C567.1,83.2,567.5,82.6,567.2,82.6Z"/><path class="k" d="M566.9,85.9l-.1.1c-.3.3-.2.8.1.4l.1-.1C567.2,86.1,567.2,85.6,566.9,85.9Z"/><path class="k" d="M561.5,82.6c-.2,0-.4.4-.2.4S561.7,82.6,561.5,82.6Z"/><path class="k" d="M564,84.7c-.4,0-.8.8-.4.8C563.9,85.6,564.4,84.7,564,84.7Z"/><path class="k" d="M570.4,82.5c-.4.1-.5.8-.1.7a.781.781,0,0,0,.4-.4C570.8,82.4,570.6,82.3,570.4,82.5Z"/><path class="k" d="M572.4,78.6c-.3.1-.5.8-.1.7a1,1,0,0,0,.4-.5C572.9,78.5,572.6,78.5,572.4,78.6Z"/><path class="k" d="M576,73.9c-.3-.3-.7.7-.3.6h.1c.2.1.3-.2.3-.3C576.1,74,576.1,74,576,73.9Z"/><path class="k" d="M579.1,77c0-.1-.1-.1-.1-.2-.2-.3-.7.4-.5.5.1,0,.1.1.2.1C578.9,77.6,579.2,77.2,579.1,77Z"/><path class="k" d="M578.6,79.5c-.3,0-.6.6-.3.6C578.5,80.1,578.8,79.5,578.6,79.5Z"/><path class="k" d="M576.6,82.2a.31.31,0,0,0-.2-.1c-.2-.1-.6.4-.3.5.1,0,.2.1.3.1S576.8,82.3,576.6,82.2Z"/><path class="k" d="M582.7,70.9c-.2,0-.6.6-.3.6C582.7,71.4,583,70.9,582.7,70.9Z"/><path class="k" d="M546.7,44.9c0-.4-.6.2-.5.4a3.255,3.255,0,0,0,.4,1.4c.1.3.6-.3.6-.5A2.947,2.947,0,0,1,546.7,44.9Z"/><path class="h" d="M594.7,69.3c0,18.9-16.2,34.2-36.1,34.2s-36.1-15.3-36.1-34.2,16.2-34.2,36.1-34.2S594.7,50.4,594.7,69.3Z"/><path d="M542.3,51.1a.849.849,0,0,1,.7.8c-4.6,2-7.3,11.2-7.3,15.7v3.3a6.741,6.741,0,0,0,1.8,4.7,2.2,2.2,0,0,0,.8.1c1-.7,2.6-2.7,2.6-3.9,0-.1-.3,0-.4.1,0-.2-.1-.3-.1-.5,0-.8.8-1,1.4-1,.8,0,.9,1.4.9,1.8a5.673,5.673,0,0,1-5.2,5.2c-4.7,0-6-5.6-6-9.1C531.5,62.7,535.4,51.8,542.3,51.1Z"/><path d="M547.4,77.3A3.83,3.83,0,0,1,545,76a7.193,7.193,0,0,1-1.2-2.1,11.835,11.835,0,0,1-.5-2.8l-.1-1.2.2-1.1a9.836,9.836,0,0,1,.8-3.2,25.957,25.957,0,0,1,1.9-4.2,24.92,24.92,0,0,1,1.7-2.4,21.007,21.007,0,0,1,2.4-2.6l.3-.3.1.1c.3.1.5.3.5.4,0,.2-.7,1.9-1.4,4.2-.8,2.1-1.6,4.3-1.8,5.2s-.4,1.5-.8,2.9c-.1,1.2-.1,1.1-.2,2.4v1.8c.1,1.6.5,2.5,1.2,2.8a.6.6,0,0,0,.4.1c.3,0,.4-.1.5-.4a5.718,5.718,0,0,1,.8-.8c.4-.5.5-.8.9-1.4,1.2-1.7,1.4-2.3,2.6-6a18.865,18.865,0,0,0,1-4.7,8.2,8.2,0,0,0,.1-1.9,14.123,14.123,0,0,0-.1-2.2,6.629,6.629,0,0,0-.6-2.9,4.183,4.183,0,0,0-3.3-2.9,1.974,1.974,0,0,0-.9-.1h-.6l-.5.3a4.489,4.489,0,0,0-2.2,1,2.276,2.276,0,0,0-.8.9.438.438,0,0,0,.1.3h.1c0,.1-.6.5-.6.6a1.06,1.06,0,0,1-.6-.4,1.077,1.077,0,0,1-.2-.8c0-.3,0-.4.1-.5a2.664,2.664,0,0,1,.6-1,4.784,4.784,0,0,1,1.9-1.2c.5-.3.5-.2,1.5-.4a6.263,6.263,0,0,1,4.1.2,7.327,7.327,0,0,1,4.6,4.5,8.985,8.985,0,0,1,.6,2.2l.1.9V63a36.506,36.506,0,0,1-1.3,5,28.22,28.22,0,0,1-2.9,5.5,6.524,6.524,0,0,1-.9,1,6.279,6.279,0,0,1-1.1,1.2,1.41,1.41,0,0,1-.8.6,6.39,6.39,0,0,1-1.9.8h-1.4Z"/><path d="M569.5,51.5a3.832,3.832,0,0,1,2.8,1.2,5.65,5.65,0,0,1,1.1,2.5,5.426,5.426,0,0,1-.6,3,8.538,8.538,0,0,1-1.1,2.1,10.261,10.261,0,0,1-8,4.4.756.756,0,0,1-.4.1h-.2l.6.8a15.3,15.3,0,0,0,1.3,1.6c.6.8,1.3,1.6,1.6,2,.7,1,2.9,4,3.2,4.4.8,1.1,4.8,6.1,7.1,8.6l.2.4h.3c.1,0,.3-.1.6-.5.1-.2.1-.5.3-1.1.1-.4.1-.4.3-.4h1.1v1.1a5.071,5.071,0,0,1-.9,1.6l-.2.3-.1.1a2.091,2.091,0,0,1-.4.6,1.82,1.82,0,0,1-1.1.4c-.4,0-.6,0-.7-.1-1.1-.2-2-.9-3.5-2a21.133,21.133,0,0,1-2.9-3,44.041,44.041,0,0,1-3.1-4,28.88,28.88,0,0,1-3.1-5.1c-.1-.2-.1-.4-.2-.5l-.1-.2a5.09,5.09,0,0,0-.1.8c0,1-.2,2.7-.3,3.6a11.467,11.467,0,0,1-.6,2.5,1.12,1.12,0,0,1-.8.7c-.3.1-1.1.4-1.1.3l.1-.2c.1-.1.1-.3.2-.5v-.2l-.1.1a.349.349,0,0,1-.1.2,1.759,1.759,0,0,1-.6.1c-.2,0-.2-.1-.2-.5a3.87,3.87,0,0,0-.1-.9c0-.5-.2-1.6-.3-3.6,0-.9-.2-2-.2-2.7-.1-1.1-.2-3-.3-4.5v-.6l-.3-.3c-1.1-.5-1.8-1-2-1.6-.1,0-.1-.1-.1-.2v-.2c.1,0,.2-.1.4-.1l.7-.2.3-.1.1.1c.2.1.3.3.6.4l.3.1V61.2c0-1.4.2-4.1.2-4.9,0-.6.3-2.7.3-3V53h.4a1.486,1.486,0,0,1,.6-.1l.3-.1.2.6c.3.6.5,1.1.8,1.7a.367.367,0,0,0,.1.3l.1.1.1-.1.2-.2c.3-.4,1.6-1.3,2-1.8a9.217,9.217,0,0,1,2-1,6.605,6.605,0,0,1,1.5-.5,8.284,8.284,0,0,1,2-.2h-.2ZM567.4,54a13.649,13.649,0,0,0-4.6,2.7c-.7.6-.7.6-.7.8l.1.3c0,.2.1.4.1.7a18.567,18.567,0,0,1,.5,3.4l.1.9h.8c.3,0,.7-.1.9-.1a5.869,5.869,0,0,0,2-.6A6.732,6.732,0,0,0,568,61a29.561,29.561,0,0,0,3.1-4.4,4.443,4.443,0,0,0,0-2.3c0-.2-.3-.5-.6-.6s-.3-.3-.8-.1A4.141,4.141,0,0,0,567.4,54Z"/><path d="M341.3,52.5A23.249,23.249,0,0,1,336,52a3.708,3.708,0,0,1,.4-1.4c1.4-.7,7.4-.7,9.1-.7a36.944,36.944,0,0,1,5.8.3c.2.1.2.1.2.3l-.4,1.5a38.85,38.85,0,0,1-7.6.5,45.173,45.173,0,0,1,1.2,9.7v9.1c0,2,.2,7.3-2.5,7.3-.6,0-.7-.8-.8-1.2a55.761,55.761,0,0,1-.9-11.5C340.5,61.5,340.4,56.9,341.3,52.5Z"/><path d="M360.4,50.2a3.755,3.755,0,0,1,3,1.4,5.12,5.12,0,0,1,1.2,2.8c.2,1,0,1.7-.7,3.3a17.686,17.686,0,0,1-1.2,2.4,11.162,11.162,0,0,1-8.8,4.8.9.9,0,0,1-.5.1h-.2l.6.8c.4.5.9,1.2,1.4,1.8.7.8,1.4,1.8,1.7,2.2.8,1.1,3.2,4.4,3.5,4.8.9,1.3,5.3,6.8,7.8,9.5l.2.4h.3c.2,0,.3-.1.7-.6.2-.3.1-.6.3-1.2.2-.4.1-.4.3-.4h1.2v1.2a4,4,0,0,1-1,1.8l-.2.3-.1.1a1.531,1.531,0,0,1-.5.7,1.594,1.594,0,0,1-1.2.4c-.5,0-.7,0-.8-.1a12.254,12.254,0,0,1-3.9-2.2,16.889,16.889,0,0,1-3.2-3.3,40.487,40.487,0,0,1-3.4-4.4,29.622,29.622,0,0,1-3.4-5.7c-.1-.2-.1-.4-.2-.6l-.1-.3c0-.1,0,0-.2.8,0,1.1-.2,3-.3,4a9.521,9.521,0,0,1-.7,2.8,1.419,1.419,0,0,1-.9.8c-.3.1-1.2.4-1.2.3l.1-.3c.1-.1.1-.3.2-.6h0l-.1.1a.349.349,0,0,1-.1.2,1.952,1.952,0,0,1-.7.1c-.2,0-.2-.1-.2-.6a2.676,2.676,0,0,0-.2-1c0-.6-.2-1.8-.3-4,0-1-.2-2.2-.2-3-.2-1.3-.2-3.3-.3-5v-.7l-.3-.3c-1.2-.6-2-1.1-2.2-1.8-.1,0-.1-.1-.2-.3v-.2c.1,0,.2-.1.4-.1l.8-.3.3-.1.2.1c.2.1.3.3.7.4l.3.1V60.4c0-1.6.2-4.5.2-5.4,0-.7.3-2.9.3-3.3v-.3h.5a1.7,1.7,0,0,1,.7-.1l.3-.1.2.7a16.315,16.315,0,0,0,.9,1.9.367.367,0,0,0,.1.3l.1.1.1-.1.2-.2c.3-.4,1.7-1.5,2.2-2a11.174,11.174,0,0,1,2.2-1.1,5.557,5.557,0,0,1,1.7-.6,6.966,6.966,0,0,1,2.2-.3h.4ZM358.1,53a15.635,15.635,0,0,0-5.1,3c-.8.7-.8.7-.8.8l.1.3c0,.2.1.5.1.7a25.16,25.16,0,0,1,.5,3.7l.2,1h.9c.3,0,.8-.1,1-.1a8.083,8.083,0,0,0,2.2-.7,15.757,15.757,0,0,0,1.5-1.2,32.925,32.925,0,0,0,3.4-4.8,4.228,4.228,0,0,0,0-2.5.842.842,0,0,0-.7-.7c-.4-.1-.4-.3-.9-.1A6.915,6.915,0,0,0,358.1,53Z"/><path d="M378.9,50.4c1.8.6,4.2,22.4,4.2,25.2a4.22,4.22,0,0,1-1.2.3h-.4c-.5-.6-.9-4.7-1-5.5-.3-2.1-.8-4.1-1-6.2V64c-1.3,0-2.6.2-3.9.3-2.9,5.2-4.1,11.5-7.5,16.6a5.16,5.16,0,0,1-1.1.2c-1.1,0-1.4-.9-1.4-1.8,0-4.8,9.9-28.9,12.2-28.9A2.018,2.018,0,0,1,378.9,50.4ZM378,56c0,.2-1.7,6-1.9,6.8h.2c.5,0,.8-.1,1.2-.1.5,0,1-.1,1.5-.1h.1a.367.367,0,0,0-.1-.3,27.2,27.2,0,0,0-.8-4.7A7.774,7.774,0,0,0,378,56Z"/><path d="M383.2,73.9c0-6.5,1.5-12.9,3.1-19.1a2.39,2.39,0,0,1,.9-.3l.6.1c1.6,1.2,3.9,10,4.8,12.2l1.1,3.1.2.7.1.1v-.1l.1-.6c.4-3.4.2-6.7.7-10.1.4-2.8,2.2-13,3.7-15a12.306,12.306,0,0,1,3.3.3c-.6,6-3.6,24.9-5.4,30.9-.4,1.2-1,.9-2.2.9,0-.1-3.4-9.3-3.7-10.2a41.439,41.439,0,0,1-1.8-6l-.2-.8v0c0,1.1-.1,2.2-.2,3.3-.5,5-1.9,10.3-1.9,15.2h.2c.2,0,.3.1.6.2,0,.6-.5,1-.9,1.4h-.5a4.869,4.869,0,0,1-1.2-.1C383.3,78.1,383.2,76,383.2,73.9Z"/><path d="M400.2,73.9a4.863,4.863,0,0,1,1.4,1.1,3.128,3.128,0,0,0-.5,1c3.9-1.5,7.6-3.8,11.6-5-.5-1.2-11.5-7-11.5-13.9,0-3.6,1.7-7.1,6-7.1,3.5,0,6.1,3.9,6.6,6.8a1.606,1.606,0,0,1-1.1.5c-1.6-1.9-3.1-4.8-6.1-4.8-1.4,0-2.4,3.4-2.4,4.5,0,6.3,10.1,9.3,10.1,13.6,0,3.8-9.5,8.4-13,8.4-1.3,0-2.6,0-2.6-1.5C398.6,76.7,399.7,73.9,400.2,73.9Z"/><path d="M428.6,73.4a80.585,80.585,0,0,1,1.8-16.3c-2.5,3.1-4.3,6.7-6.6,9.9a8.663,8.663,0,0,0-1,.2c-.4,0-2.2-3.9-2.4-4.3,0,2.9-.3,12.2-1.4,14.5l-.4.1-.2-.1c-.5,0-.8.4-1.3.4-1.2,0-1.3-6.2-1.3-7.1,0-3.7.4-17.2,2.2-20.3.1-.2.2-.5.5-.5a5.02,5.02,0,0,1,1.2.2c.2.7,3.2,12.4,3.7,14.1,3.1-4.3,4.5-9.4,8.6-13.2h.1a9.971,9.971,0,0,1,1.6.2,13.449,13.449,0,0,1,.5,3.5c0,4.1-.3,21.9-3,24.1h-.6a2.114,2.114,0,0,1-1.7-.6A25.274,25.274,0,0,1,428.6,73.4Z"/><path d="M433.9,78.7l.3-1.7c.6-.3,1.4-.2,2-.5v-.3c0-1.6-.3-3.3-.3-5,0-4.7.6-14.3,2.5-18.5l-2.2.2c-.4-.2-.7-1.1-.8-1.6.3-.8,5.9-1.3,6.7-1.3a1.344,1.344,0,0,1,.9.2l-.5,1.5a7.619,7.619,0,0,1-2,.6c0,8-1.8,15.9-1.8,23.9.3,0,1.5-.1,1.4.3l-.2,1.4a14.961,14.961,0,0,1-4.7.8Z"/><path d="M448.9,52.5a23.249,23.249,0,0,1-5.3-.5,3.708,3.708,0,0,1,.4-1.4c1.4-.7,7.4-.7,9.1-.7a36.944,36.944,0,0,1,5.8.3c.2.1.2.1.2.3l-.4,1.5a38.85,38.85,0,0,1-7.6.5,45.173,45.173,0,0,1,1.2,9.7v9.1c0,2,.2,7.3-2.5,7.3-.6,0-.7-.8-.8-1.2a55.761,55.761,0,0,1-.9-11.5A75.364,75.364,0,0,1,448.9,52.5Z"/><path d="M457.9,78.7l.3-1.7c.6-.3,1.4-.2,2-.5v-.3c0-1.6-.3-3.3-.3-5,0-4.7.6-14.3,2.5-18.5l-2.2.2c-.4-.2-.7-1.1-.8-1.6.3-.8,5.9-1.3,6.7-1.3a1.344,1.344,0,0,1,.9.2l-.5,1.5a7.619,7.619,0,0,1-2,.6c0,8-1.8,15.9-1.8,23.9.3,0,1.5-.1,1.4.3l-.2,1.4a14.961,14.961,0,0,1-4.7.8Z"/><path d="M465.8,73.9c0-6.5,1.5-12.9,3.1-19.1a2.39,2.39,0,0,1,.9-.3l.6.1c1.6,1.2,3.9,10,4.8,12.2l1.1,3.1.2.7.1.1v-.1l.1-.6c.4-3.4.2-6.7.7-10.1.4-2.8,2.2-13,3.7-15a12.306,12.306,0,0,1,3.3.3c-.6,6-3.6,24.9-5.4,30.9-.4,1.2-1,.9-2.2.9,0-.1-3.4-9.3-3.7-10.2a41.439,41.439,0,0,1-1.8-6l-.2-.8v0c0,1.1-.1,2.2-.2,3.3-.5,5-1.9,10.3-1.9,15.2h.2c.2,0,.3.1.6.2,0,.6-.5,1-.9,1.4h-.5a4.869,4.869,0,0,1-1.2-.1C465.9,78.1,465.8,76,465.8,73.9Z"/><path d="M499.6,59.5c0,7.3-6.7,20.4-15.8,20.4-1.6,0-3.8-.5-3.8-2.4a5.08,5.08,0,0,1,.3-1.7l.1-.1a10.154,10.154,0,0,1,2.5.6c-.1.4-.5.8-.3,1.2a5.387,5.387,0,0,0,2.1-.8c.1-8.3-.4-16.4-.4-24.7a16.007,16.007,0,0,1,2.3-.3,23,23,0,0,1,1,3.5c2.1-2.4,4-5.2,7.8-5.2C499.4,49.9,499.6,57,499.6,59.5Zm-5.9-6a28.543,28.543,0,0,0-5.3,6.2c0,2.7.1,5.4,0,8.1-.1,2.1-.5,4.3-.5,6.4,5.5-4.4,8-12.9,8-19.4a24.517,24.517,0,0,0-.2-2.7C495.1,52.6,494.3,53,493.7,53.5Z"/><path d="M504,78.8a4.723,4.723,0,0,1-2.7-1.4,7.552,7.552,0,0,1-1.3-2.3,11.879,11.879,0,0,1-.6-3.1l-.2-1.3.3-1.3a12.483,12.483,0,0,1,.9-3.6,31.27,31.27,0,0,1,2.1-4.6c.4-.7,1.4-2.1,1.8-2.7a14.527,14.527,0,0,1,2.7-2.8l.3-.3.2.1c.3.1.6.3.6.4,0,.2-.7,2.1-1.6,4.7a51.1,51.1,0,0,0-2,5.8c-.2,1-.5,1.7-.9,3.2-.2,1.3-.1,1.3-.3,2.7v2c.2,1.8.6,2.8,1.3,3.1a.6.6,0,0,0,.4.1c.3,0,.4-.1.6-.4.2-.1.4-.5.9-.8.5-.6.5-.8,1-1.5,1.3-1.8,1.6-2.6,2.8-6.6a25.523,25.523,0,0,0,1.1-5.2,4.773,4.773,0,0,0,.2-2.1,8.241,8.241,0,0,0-.2-2.4,7.048,7.048,0,0,0-.7-3.3c-.7-1.7-2.1-3.1-3.7-3.2a2.245,2.245,0,0,0-1-.1h-.7l-.6.3a5.939,5.939,0,0,0-2.4,1.1,2.714,2.714,0,0,0-.9,1c0,.2.1.3.2.3h.1c0,.1-.7.6-.7.7a1.612,1.612,0,0,1-.7-.4.829.829,0,0,1-.3-.8,1.083,1.083,0,0,1,.1-.6,3.377,3.377,0,0,1,.7-1.1,5.534,5.534,0,0,1,2.2-1.3,3.232,3.232,0,0,1,1.7-.4,6.5,6.5,0,0,1,4.6.3,8.148,8.148,0,0,1,5.1,5,10.237,10.237,0,0,1,.7,2.4l.1,1v3.8a31.624,31.624,0,0,1-1.4,5.5,26.9,26.9,0,0,1-3.3,6.1,9.042,9.042,0,0,1-1,1.1,5.347,5.347,0,0,1-1.3,1.3c-.3.3-.7.7-.9.7a5.387,5.387,0,0,1-2.1.8H504Z"/></g></svg>